<?xml version="1.0" encoding="iso-8859-1"?>
<!-- Generator: Adobe Illustrator 21.1.0, SVG Export Plug-In . SVG Version: 6.00 Build 0)  -->
<svg version="1.1" id="&#x421;&#x43B;&#x43E;&#x439;_1"
	 xmlns="http://www.w3.org/2000/svg" xmlns:xlink="http://www.w3.org/1999/xlink" x="0px" y="0px" viewBox="0 0 460.54 461.094"
	 style="enable-background:new 0 0 460.54 461.094;" xml:space="preserve">
<g>
	<path style="fill:#32C741;" d="M135.144,217.001c-6.35-6.35-16.67-6.35-23.02,0c-6.35,6.35-6.35,16.67,0,23.02l75.014,75.014
		c3.175,3.175,7.144,4.763,11.51,4.763c0.397,0,0.397,0,0.794,0c4.366-0.397,8.732-2.381,11.907-5.953L399.082,88.803
		c5.557-6.747,4.763-17.067-1.984-23.02c-6.747-5.557-17.067-4.763-23.02,1.984l-176.62,211.547L135.144,217.001L135.144,217.001z"
		/>
	<path style="fill:#32C741;" d="M351.851,35.222C260.564-21.932,143.479-8.437,67.274,67.767
		c-89.699,89.699-89.699,236.155,0,325.854c44.85,44.85,103.988,67.473,162.729,67.473s117.879-22.623,162.729-67.473
		c76.602-76.602,89.699-194.084,32.149-285.371c-4.763-7.541-14.685-9.922-22.226-5.16c-7.541,4.763-9.922,14.685-5.16,22.226
		c49.612,78.586,38.102,179.398-27.783,245.284c-76.998,76.998-202.815,76.998-279.814,0s-76.998-202.816,0-279.814
		c65.885-65.488,166.301-76.998,244.887-28.18c7.541,4.763,17.464,2.381,22.226-5.16C361.774,49.907,359.392,39.984,351.851,35.222
		L351.851,35.222z"/>
</g>
</svg>
