<?xml version="1.0" encoding="iso-8859-1"?>
<!-- Generator: Adobe Illustrator 21.1.0, SVG Export Plug-In . SVG Version: 6.00 Build 0)  -->
<svg version="1.1" id="&#x421;&#x43B;&#x43E;&#x439;_1"
	 xmlns="http://www.w3.org/2000/svg" xmlns:xlink="http://www.w3.org/1999/xlink" x="0px" y="0px" viewBox="0 0 175.748 32.333"
	 style="enable-background:new 0 0 175.748 32.333;" xml:space="preserve">
<g>
	<path style="fill-rule:evenodd;clip-rule:evenodd;fill:#DE2D14;" d="M175.054,22.982l0.353-0.922h0.341v1.254h-0.222v-1.02h-0.006
		l-0.393,1.02h-0.152l-0.393-1.02h-0.006v1.02h-0.222V22.06h0.341L175.054,22.982L175.054,22.982z M174.135,22.242h-0.386v1.072
		h-0.222v-1.072h-0.387V22.06h0.995V22.242L174.135,22.242z"/>
	<path style="fill-rule:evenodd;clip-rule:evenodd;fill:#DE2D14;" d="M67.124,6.254h4.74v1.619c0.509-0.444,2.151-2.016,5.186-2.016
		c3.571,0,6.407,2.636,6.407,6.775v10.742h-5.009v-9.412c0-2.305-1.122-3.675-3.159-3.675c-1.975,0-3.161,1.29-3.161,3.675v9.412
		h-5.004V6.254L67.124,6.254z"/>
	<path style="fill-rule:evenodd;clip-rule:evenodd;fill:#DE2D14;" d="M119.736,14.813c0-2.368,1.769-4.311,4.227-4.311
		c2.459,0,4.226,1.943,4.226,4.311c0,2.366-1.767,4.31-4.226,4.31C121.505,19.123,119.736,17.179,119.736,14.813L119.736,14.813z
		 M114.797,14.813c0,4.938,3.957,8.948,9.133,8.948c5.179,0,9.134-4.01,9.134-8.948c0-4.937-3.954-8.957-9.134-8.957
		C118.754,5.856,114.797,9.876,114.797,14.813L114.797,14.813z"/>
	<path style="fill-rule:evenodd;clip-rule:evenodd;fill:#DE2D14;" d="M51.004,14.814c0-2.367,1.769-4.31,4.225-4.31
		c2.459,0,4.227,1.943,4.227,4.31c0,2.367-1.768,4.312-4.227,4.312C52.772,19.126,51.004,17.18,51.004,14.814L51.004,14.814z
		 M46.062,14.815c0,4.938,3.957,8.948,9.134,8.948c5.178,0,9.134-4.01,9.134-8.948c0-4.937-3.956-8.958-9.134-8.958
		C50.019,5.857,46.062,9.878,46.062,14.815L46.062,14.815z"/>
	<path style="fill-rule:evenodd;clip-rule:evenodd;fill:#DE2D14;" d="M157.339,6.254h5.074v17.119h-5.074V6.254L157.339,6.254z
		 M157.339,0h5.074v4.355h-5.074V0L157.339,0z"/>
	<polygon style="fill-rule:evenodd;clip-rule:evenodd;fill:#DE2D14;" points="166.325,0 171.399,0 171.399,23.373 166.325,23.373 
		166.325,0 	"/>
	<path style="fill-rule:evenodd;clip-rule:evenodd;fill:#DE2D14;" d="M149.248,14.803c0,2.414-1.852,4.289-4.275,4.289
		c-2.45,0-4.292-1.869-4.292-4.277c0-2.438,1.865-4.286,4.297-4.286C147.421,10.529,149.248,12.395,149.248,14.803L149.248,14.803z
		 M140.809,23.373l0.052-1.318c0.354,0.268,1.921,1.709,5.205,1.709c4.317,0,8.32-3.866,8.32-8.949c0-5.092-3.758-8.958-8.264-8.958
		c-3.443,0-5.02,1.578-5.261,1.755V0h-4.865v23.373H140.809L140.809,23.373z"/>
	<polygon style="fill-rule:evenodd;clip-rule:evenodd;fill:#DE2D14;" points="16.557,23.373 24.538,13.384 17.476,6.254 
		24.487,6.254 27.617,9.482 33.379,2.064 39.256,2.064 30.816,12.695 34.101,15.994 41.688,6.254 47.58,6.254 37.313,19.225 
		50.35,32.333 43.242,32.333 34.171,23.103 29.351,29.348 23.461,29.348 30.989,19.923 27.699,16.595 22.426,23.373 16.557,23.373 	
		"/>
	<polygon style="fill-rule:evenodd;clip-rule:evenodd;fill:#DE2D14;" points="0,0 15.393,0 15.393,4.355 5.236,4.355 5.236,9.201 
		14.936,9.201 14.936,13.427 5.236,13.427 5.236,19.011 15.393,19.011 15.393,23.373 0,23.373 0,0 	"/>
	<polygon style="fill-rule:evenodd;clip-rule:evenodd;fill:#DE2D14;" points="87.462,0 95.738,0 99.643,17.061 99.82,17.061 
		103.825,0 111.866,0 111.866,23.373 106.943,23.373 106.943,5.725 106.718,5.725 102.381,23.373 96.85,23.373 92.612,5.725 
		92.389,5.725 92.389,23.373 87.462,23.373 87.462,0 	"/>
</g>
</svg>
