<?xml version="1.0" encoding="iso-8859-1"?>
<!-- Generator: Adobe Illustrator 21.1.0, SVG Export Plug-In . SVG Version: 6.00 Build 0)  -->
<svg version="1.1" id="&#x421;&#x43B;&#x43E;&#x439;_1"
	 xmlns="http://www.w3.org/2000/svg" xmlns:xlink="http://www.w3.org/1999/xlink" x="0px" y="0px" viewBox="0 0 631.152 130.559"
	 style="enable-background:new 0 0 631.152 130.559;" xml:space="preserve">
<image style="overflow:visible;" width="640" height="297" xlink:href="93D5D6F5.jpg"  transform="matrix(1 0 0 1 -7877.1001 -8128.4067)">
</image>
<g>
	<path style="fill:#002C77;" d="M597.249,0.003c0,11.688,0,22.623,0,34.174c11.362,0,22.246,0,33.532,0
		c0.141,2.2,0.333,3.806,0.335,5.411c0.022,22.495,0.064,44.989,0.005,67.484c-0.042,15.801-7.909,23.486-23.788,23.486
		c-194.953-0.007-389.907-0.011-584.86-0.013c-14.094,0-22.435-8.201-22.45-22.241c-0.031-28.66-0.03-57.32,0-85.98
		C0.038,8.477,8.582,0.007,22.565,0.006C212.02-0.004,401.475,0.001,590.93,0.003C592.869,0.003,594.807,0.003,597.249,0.003z
		 M587.66,43.973c0-9.619,0.002-18.565-0.001-27.511c-0.002-6.745-0.005-6.785-6.759-6.785
		C395.118,9.678,209.335,9.685,23.552,9.704C13.548,9.705,9.712,13.569,9.703,23.627C9.68,51.619,9.688,79.611,9.705,107.604
		c0.006,9.47,3.787,13.276,13.333,13.276c195.113,0.004,390.227-0.006,585.34-0.03c9.115-0.001,13.01-3.982,13.023-13.16
		c0.029-19.161-0.176-38.326,0.168-57.482c0.094-5.2-1.495-6.54-6.442-6.338C606.196,44.235,597.24,43.973,587.66,43.973z"/>
	<path style="fill:#002C77;" d="M605.179,0.276c8.702,0,16.963,0,25.594,0c0,8.697,0,17.099,0,25.888c-8.464,0-16.851,0-25.594,0
		C605.179,17.633,605.179,9.224,605.179,0.276z"/>
	<path style="fill:#FFFFFF;" d="M587.66,43.973c9.58,0,18.536,0.262,27.466-0.103c4.947-0.202,6.536,1.138,6.442,6.338
		c-0.344,19.155-0.14,38.32-0.168,57.482c-0.014,9.179-3.908,13.159-13.023,13.16c-195.113,0.024-390.227,0.034-585.34,0.03
		c-9.546,0-13.327-3.807-13.333-13.276C9.688,79.611,9.68,51.619,9.703,23.627C9.712,13.569,13.548,9.705,23.552,9.704
		C209.335,9.685,395.118,9.678,580.9,9.677c6.754,0,6.757,0.04,6.759,6.785C587.663,25.409,587.66,34.355,587.66,43.973z
		 M585.845,11.583c-2.506,0-4.458,0-6.41,0c-185.282-0.002-370.564-0.004-555.846-0.001c-9.127,0-12.321,3.186-12.327,12.342
		c-0.019,27.659-0.022,55.318-0.003,82.977c0.006,8.932,3.448,12.337,12.47,12.337c194.779,0.01,389.559,0.012,584.338,0.007
		c8.097,0,11.659-3.497,11.672-11.485c0.031-18.995,0.015-37.989,0.017-56.984c0-1.589,0-3.178,0-5.093
		c-10.076,0-19.396-0.211-28.699,0.095c-4.21,0.138-5.42-1.209-5.3-5.33C586.033,31.007,585.845,21.552,585.845,11.583z"/>
	<path style="fill:#002C77;" d="M585.845,11.583c0,9.968,0.187,19.423-0.087,28.865c-0.12,4.121,1.09,5.469,5.3,5.33
		c9.303-0.306,18.622-0.095,28.699-0.095c0,1.915,0,3.504,0,5.093c-0.003,18.995,0.014,37.989-0.017,56.984
		c-0.013,7.988-3.575,11.485-11.672,11.485c-194.779,0.005-389.559,0.003-584.338-0.007c-9.022,0-12.464-3.405-12.47-12.337
		c-0.019-27.659-0.016-55.318,0.003-82.977c0.006-9.156,3.2-12.342,12.327-12.342c185.282-0.003,370.564,0,555.846,0.001
		C581.387,11.583,583.34,11.583,585.845,11.583z M548.953,67.915c-0.296,0.055-0.592,0.11-0.888,0.165
		c-0.663-1.608-1.37-3.199-1.981-4.827c-3.921-10.435-7.95-20.831-11.647-31.345c-1.088-3.093-2.708-4.033-5.821-3.96
		c-7.655,0.18-15.333,0.362-22.97-0.052c-4.943-0.267-6.565,1.081-6.512,6.252c0.204,19.808-0.079,39.622-0.176,59.434
		c-0.014,2.781-0.002,5.563-0.002,8.492c8.205,0,15.877,0,23.481,0c0-13.554,0-26.637,0-39.719
		c5.26,11.482,10.008,23.007,14.356,34.681c1.474,3.956,3.279,5.833,7.832,5.591c7.803-0.415,15.65-0.249,23.469-0.011
		c3.579,0.109,4.536-1.246,4.522-4.625c-0.043-10.32,0.258-20.64,0.311-30.961c0.065-12.788,0.016-25.577,0.016-38.657
		c-8.042,0-15.769,0-23.988,0C548.953,41.801,548.953,54.858,548.953,67.915z M340.199,102.213c0-24.707,0-49.1,0-73.855
		c-8.555,0-17.296,0-26.719,0c0,8.403,0,16.496,0,25.048c-5.299,0-9.952-0.314-14.541,0.092c-4.249,0.376-5.054-1.397-4.911-5.143
		c0.25-6.588,0.07-13.193,0.07-19.933c-9.287,0-18.023,0-27.435,0c0,23.888,0.026,47.361-0.034,70.834
		c-0.007,2.795,1.408,3.317,3.754,3.292c5.998-0.064,12.008-0.237,17.991,0.073c4.105,0.213,5.649-1.078,5.469-5.303
		c-0.288-6.752-0.077-13.525-0.077-20.368c6.931,0,13.001,0,19.541,0c0,8.596,0,16.854,0,25.261
		C322.353,102.213,330.919,102.213,340.199,102.213z M452.445,104.65c24.16-0.059,40.064-15.534,40.054-38.973
		c-0.011-24.254-15.859-39.966-40.24-39.894c-23.651,0.07-39.726,16.121-39.638,39.579
		C412.709,88.966,428.667,104.709,452.445,104.65z M137.12,83.736c-0.614,4.766-1.481,10.332-1.913,15.931
		c-0.079,1.021,1.465,2.909,2.53,3.139c3.559,0.767,7.252,1.389,10.873,1.295c9.588-0.25,19.386,0.19,28.693-1.674
		c11.727-2.349,17.786-12.742,17.154-25.851c-0.575-11.91-6.366-18.303-18.871-20.796c-3.912-0.78-7.883-1.331-11.722-2.372
		c-1.113-0.302-2.578-1.94-2.584-2.972c-0.006-1.104,1.319-2.84,2.421-3.198c2.489-0.808,5.211-1.337,7.816-1.257
		c4.977,0.151,9.977,0.565,14.894,1.336c3.335,0.523,4.523-0.433,4.651-3.734c0.148-3.817,0.583-7.638,1.155-11.417
		c0.463-3.059-0.145-4.872-3.674-4.782c-1.312,0.033-2.629-0.402-3.954-0.517c-11.776-1.023-23.582-2.253-35.157,1.366
		c-11.492,3.592-17.511,13.129-16.512,25.847c0.891,11.338,8.179,18.828,20.059,20.608c2.468,0.37,5.083,0.332,7.367,1.186
		c2.19,0.819,5.596,2.414,5.73,3.913c0.341,3.829-3.422,3.845-6.177,3.902C152.623,83.835,145.34,83.736,137.12,83.736z
		 M89.797,56.604c-11.788,0-23.014,0-34.435,0c0-2.804,0-5.028,0-7.882c11.501,0,22.722,0,34.253,0c0-7.175,0-13.718,0-20.314
		c-20.414,0-40.458,0-60.983,0c0,24.787,0,49.167,0,73.769c8.683,0,17.221,0,26.296,0c0-8.261,0-16.174,0-24.414
		c2.132-0.113,3.746-0.267,5.361-0.273c8.491-0.029,16.986,0.111,25.469-0.156c1.375-0.043,3.786-1.765,3.857-2.836
		C90,68.743,89.797,62.95,89.797,56.604z M405.537,49.605c1.117-7.163,2.227-14.279,3.388-21.723
		c-11.014-2.248-21.411-2.852-31.832-0.975c-15.474,2.787-26.47,11.041-29.737,27c-3.457,16.89-0.899,32.491,13.971,43.422
		c13.691,10.063,29.338,7.881,44.771,5.464c0.716-0.112,1.826-1.649,1.729-2.389c-0.854-6.528-1.94-13.025-2.883-19.055
		c-5.512,0-10.332,0.262-15.115-0.054c-9.942-0.657-15.634-6.503-15.799-15.796c-0.151-8.514,5.895-14.983,15.374-15.813
		C394.505,49.237,399.677,49.605,405.537,49.605z M256.008,80.748c-3.322,0.255-6.107,0.622-8.895,0.64
		c-2.985,0.019-6.026,0.01-8.949-0.513c-8.323-1.487-13.001-7.061-13.105-15.189c-0.1-7.735,4.395-13.819,12.332-15.339
		c4.664-0.893,9.58-0.496,14.384-0.61c1.569-0.037,3.143,0.144,4.81,0.23c1.177-7.634,2.259-14.655,3.4-22.055
		c-2.483-0.473-4.562-1.07-6.675-1.232c-5.143-0.393-10.319-0.994-15.452-0.788c-25.168,1.011-38.46,12.616-40.618,35.127
		c-1.963,20.473,8.664,36.879,27.491,42.056c10.528,2.895,21.157,1.701,31.699-0.144c0.97-0.17,2.474-1.947,2.375-2.824
		C258.08,93.712,257.007,87.357,256.008,80.748z M99.072,28.356c0,23.982,0.022,47.419-0.03,70.855
		c-0.006,2.725,1.325,3.352,3.718,3.324c6.321-0.075,12.648-0.154,18.963,0.052c3.437,0.112,4.61-1.036,4.589-4.555
		c-0.059-10.31,0.314-20.621,0.378-30.933c0.08-12.788,0.019-25.577,0.019-38.743C117.859,28.356,109.131,28.356,99.072,28.356z"/>
	<path style="fill:#FFFFFF;" d="M548.953,67.915c0-13.057,0-26.114,0-39.541c8.219,0,15.946,0,23.988,0
		c0,13.08,0.05,25.869-0.016,38.657c-0.053,10.321-0.354,20.641-0.311,30.961c0.014,3.379-0.943,4.733-4.522,4.625
		c-7.819-0.238-15.666-0.403-23.469,0.011c-4.553,0.242-6.358-1.635-7.832-5.591c-4.348-11.674-9.096-23.199-14.356-34.681
		c0,13.082,0,26.164,0,39.719c-7.604,0-15.276,0-23.481,0c0-2.929-0.012-5.711,0.002-8.492c0.097-19.812,0.38-39.625,0.176-59.434
		c-0.053-5.171,1.57-6.519,6.512-6.252c7.637,0.413,15.315,0.232,22.97,0.052c3.113-0.073,4.733,0.866,5.821,3.96
		c3.697,10.514,7.727,20.91,11.647,31.345c0.612,1.627,1.319,3.219,1.981,4.827C548.361,68.025,548.657,67.97,548.953,67.915z"/>
	<path style="fill:#FFFFFF;" d="M340.199,102.213c-9.28,0-17.846,0-26.892,0c0-8.407,0-16.665,0-25.261c-6.54,0-12.61,0-19.541,0
		c0,6.843-0.211,13.616,0.077,20.368c0.18,4.224-1.364,5.515-5.469,5.303c-5.983-0.31-11.993-0.137-17.991-0.073
		c-2.346,0.025-3.761-0.497-3.754-3.292c0.06-23.473,0.034-46.946,0.034-70.834c9.411,0,18.148,0,27.435,0
		c0,6.74,0.18,13.344-0.07,19.933c-0.142,3.746,0.662,5.519,4.911,5.143c4.589-0.406,9.242-0.092,14.541-0.092
		c0-8.552,0-16.645,0-25.048c9.423,0,18.163,0,26.719,0C340.199,53.113,340.199,77.507,340.199,102.213z"/>
	<path style="fill:#FFFFFF;" d="M452.445,104.65c-23.778,0.058-39.737-15.685-39.825-39.288
		c-0.088-23.459,15.987-39.51,39.638-39.579c24.381-0.072,40.229,15.64,40.24,39.894C492.509,89.116,476.605,104.591,452.445,104.65
		z M440.348,65.204c0.582,3.236,0.921,6.559,1.81,9.727c1.372,4.884,4.892,7.349,9.939,7.546c5.191,0.203,9.129-2.263,10.852-7.078
		c2.38-6.646,2.31-13.382-0.026-20.038c-1.682-4.794-5.211-7.171-10.263-7.13c-5.002,0.04-8.737,2.356-10.357,7.099
		C441.247,58.427,440.992,61.797,440.348,65.204z"/>
	<path style="fill:#FFFFFF;" d="M137.12,83.736c8.22,0,15.503,0.099,22.78-0.051c2.755-0.057,6.518-0.073,6.177-3.902
		c-0.134-1.498-3.54-3.093-5.73-3.913c-2.284-0.854-4.899-0.817-7.367-1.186c-11.88-1.78-19.168-9.27-20.059-20.608
		c-0.999-12.717,5.019-22.254,16.512-25.847c11.575-3.618,23.381-2.388,35.157-1.366c1.324,0.115,2.641,0.55,3.954,0.517
		c3.529-0.09,4.138,1.723,3.674,4.782c-0.572,3.78-1.007,7.601-1.155,11.417c-0.128,3.301-1.316,4.257-4.651,3.734
		c-4.917-0.771-9.917-1.185-14.894-1.336c-2.605-0.079-5.327,0.449-7.816,1.257c-1.102,0.358-2.427,2.094-2.421,3.198
		c0.005,1.032,1.471,2.67,2.584,2.972c3.839,1.042,7.81,1.592,11.722,2.372c12.505,2.493,18.296,8.886,18.871,20.796
		c0.633,13.109-5.426,23.503-17.154,25.851c-9.308,1.864-19.105,1.424-28.693,1.674c-3.621,0.094-7.314-0.528-10.873-1.295
		c-1.066-0.23-2.609-2.118-2.53-3.139C135.638,94.068,136.506,88.503,137.12,83.736z"/>
	<path style="fill:#FFFFFF;" d="M89.797,56.604c0,6.346,0.203,12.14-0.182,17.893c-0.072,1.071-2.483,2.793-3.857,2.836
		c-8.483,0.268-16.978,0.128-25.469,0.156c-1.615,0.005-3.23,0.16-5.361,0.273c0,8.24,0,16.153,0,24.414c-9.075,0-17.613,0-26.296,0
		c0-24.601,0-48.981,0-73.769c20.525,0,40.569,0,60.983,0c0,6.596,0,13.139,0,20.314c-11.531,0-22.752,0-34.253,0
		c0,2.853,0,5.077,0,7.882C66.783,56.604,78.009,56.604,89.797,56.604z"/>
	<path style="fill:#FFFFFF;" d="M405.537,49.605c-5.86,0-11.032-0.368-16.133,0.079c-9.479,0.831-15.525,7.299-15.374,15.813
		c0.165,9.293,5.856,15.139,15.799,15.796c4.783,0.316,9.604,0.054,15.115,0.054c0.943,6.03,2.029,12.527,2.883,19.055
		c0.097,0.74-1.013,2.277-1.729,2.389c-15.433,2.417-31.08,4.6-44.771-5.464c-14.87-10.93-17.428-26.532-13.971-43.422
		c3.266-15.959,14.262-24.213,29.737-27c10.421-1.877,20.818-1.273,31.832,0.975C407.764,35.326,406.654,42.441,405.537,49.605z"/>
	<path style="fill:#FFFFFF;" d="M256.008,80.748c0.999,6.609,2.072,12.964,2.797,19.358c0.099,0.877-1.405,2.655-2.375,2.824
		c-10.542,1.845-21.171,3.039-31.699,0.144c-18.827-5.177-29.454-21.583-27.491-42.056c2.158-22.511,15.45-34.116,40.618-35.127
		c5.133-0.206,10.309,0.395,15.452,0.788c2.112,0.162,4.191,0.759,6.675,1.232c-1.141,7.4-2.223,14.421-3.4,22.055
		c-1.667-0.086-3.241-0.268-4.81-0.23c-4.804,0.114-9.72-0.283-14.384,0.61c-7.937,1.52-12.432,7.605-12.332,15.339
		c0.105,8.129,4.783,13.702,13.105,15.189c2.923,0.522,5.964,0.532,8.949,0.513C249.9,81.37,252.686,81.003,256.008,80.748z"/>
	<path style="fill:#FFFFFF;" d="M99.072,28.356c10.059,0,18.787,0,27.638,0c0,13.165,0.061,25.954-0.019,38.743
		c-0.064,10.312-0.438,20.623-0.378,30.933c0.02,3.519-1.152,4.667-4.589,4.555c-6.315-0.206-12.642-0.126-18.963-0.052
		c-2.392,0.028-3.724-0.599-3.718-3.324C99.094,75.775,99.072,52.338,99.072,28.356z"/>
	<path style="fill:#002C77;" d="M440.348,65.204c0.644-3.407,0.9-6.777,1.957-9.874c1.619-4.743,5.354-7.059,10.357-7.099
		c5.052-0.041,8.581,2.336,10.263,7.13c2.335,6.656,2.405,13.392,0.026,20.038c-1.724,4.815-5.661,7.281-10.852,7.078
		c-5.048-0.197-8.567-2.662-9.939-7.546C441.268,71.763,440.93,68.44,440.348,65.204z"/>
</g>
</svg>
