<?xml version="1.0" encoding="iso-8859-1"?>
<!-- Generator: Adobe Illustrator 21.1.0, SVG Export Plug-In . SVG Version: 6.00 Build 0)  -->
<svg version="1.1" id="&#x421;&#x43B;&#x43E;&#x439;_1"
	 xmlns="http://www.w3.org/2000/svg" xmlns:xlink="http://www.w3.org/1999/xlink" x="0px" y="0px" viewBox="0 0 108.692 48.808"
	 style="enable-background:new 0 0 108.692 48.808;" xml:space="preserve">
<g>
	<path d="M45.412,10.403c-0.006-0.191-0.116-0.364-0.292-0.443L22.954,0.043c-0.128-0.056-0.275-0.058-0.405-0.001l-22.25,9.75
		C0.118,9.871,0,10.05,0,10.249c0,0,0,0.001,0,0.001h0v8.392h0c0,0.198,0.116,0.377,0.297,0.457l11.888,5.264L0.297,29.626
		C0.117,29.706,0,29.885,0,30.083c0,0,0,0.001,0,0.001h0v8.391h0c0,0.198,0.117,0.377,0.298,0.457l22.25,9.833
		c0.064,0.028,0.133,0.042,0.202,0.042c0.07,0,0.14-0.015,0.206-0.044l22.167-10c0.175-0.079,0.285-0.252,0.29-0.443h0.004v-8.391
		h-0.004c0-0.005,0.004-0.009,0.004-0.014c0-0.197-0.117-0.375-0.297-0.455l-11.512-5.097l11.512-5.097
		c0.18-0.08,0.297-0.259,0.297-0.456c0-0.005-0.004-0.009-0.004-0.015h0.004v-8.391H45.412z M44.417,18.036l-7.697-3.443
		l7.697-3.408V18.036z M22.748,1.046l20.939,9.368l-8.196,3.629L22.954,8.435c-0.128-0.057-0.275-0.058-0.405-0.001l-12.523,5.488
		L1.74,10.252L22.748,1.046z M14.656,24.362l8.241-3.649l8.24,3.649l-8.24,3.649L14.656,24.362z M34.304,34.156l-11.556,5.213
		L11.22,34.274l11.676-5.17L34.304,34.156z M11.266,14.47l11.483-5.032l11.512,5.15L22.896,19.62L11.266,14.47z M1,11.018
		l7.785,3.447L1,17.876V11.018z M1.74,18.644l8.284-3.63l11.637,5.153l-8.241,3.649L1.74,18.644z M13.421,24.909l8.24,3.649
		l-11.677,5.17l-8.248-3.645L13.421,24.909z M1,30.851l7.748,3.424L1,37.706V30.851z M22.748,47.76L1.736,38.474l8.248-3.652
		l12.564,5.552c0.064,0.028,0.133,0.042,0.202,0.042c0.07,0,0.14-0.015,0.206-0.044l12.575-5.673l8.16,3.613L22.748,47.76z
		 M44.417,37.54l-7.662-3.393l7.662-3.457V37.54z M43.691,29.921l-8.164,3.683l-11.396-5.046l8.241-3.649L43.691,29.921z
		 M32.372,23.815l-8.241-3.649l11.357-5.029l8.198,3.668L32.372,23.815z"/>
	<g>
		<path d="M60.393,15.88c-0.709,0.34-1.559,0.549-2.668,0.549c-2.279,0-3.868-1.529-3.868-3.738c0-2.269,1.659-3.698,3.838-3.698
			c1.119,0,2.119,0.36,2.688,0.889l-0.87,0.939c-0.36-0.399-1.049-0.719-1.809-0.719c-1.489,0-2.458,1.129-2.458,2.588
			c0,1.509,0.959,2.608,2.519,2.608c0.53,0,1-0.08,1.409-0.25v-1.799h-1.489v-1.039h2.708V15.88z"/>
		<path d="M61.926,9.174h1.259v5.957h3.008v1.119h-4.268V9.174z"/>
		<path d="M70.484,8.994c2.209,0,3.818,1.429,3.818,3.698c0,2.209-1.609,3.738-3.818,3.738c-2.179,0-3.788-1.529-3.788-3.738
			C66.696,10.423,68.305,8.994,70.484,8.994z M70.494,15.3c1.449,0,2.438-1.099,2.438-2.608c0-1.459-0.969-2.588-2.438-2.588
			c-1.459,0-2.429,1.129-2.429,2.588C68.065,14.201,69.055,15.3,70.494,15.3z"/>
		<path d="M75.525,9.174h2.759c1.069,0,2.169,0.49,2.169,1.779c0,0.799-0.5,1.329-1.229,1.549v0.02
			c0.89,0.12,1.529,0.72,1.529,1.669c0,1.54-1.34,2.059-2.679,2.059h-2.549V9.174z M76.785,12.052h1.119
			c0.84,0,1.289-0.35,1.289-0.959c0-0.629-0.449-0.879-1.399-0.879h-1.009V12.052z M76.785,15.19h1.129
			c0.65,0,1.579-0.13,1.579-1.059c0-0.74-0.51-1-1.529-1h-1.179V15.19z"/>
		<path d="M84.214,9.174h1.09l3.048,7.076h-1.438l-0.66-1.619h-3.068l-0.64,1.619h-1.409L84.214,9.174z M85.813,13.551l-1.09-2.878
			l-1.109,2.878H85.813z"/>
		<path d="M89.056,9.174h1.26v5.957h3.008v1.119h-4.268V9.174z"/>
		<path d="M54.196,21.174h1.259v5.957h3.008v1.119h-4.268V21.174z"/>
		<path d="M61.525,21.174h1.089l3.048,7.076h-1.439l-0.66-1.619h-3.068l-0.64,1.619h-1.409L61.525,21.174z M63.124,25.551
			l-1.089-2.878l-1.11,2.878H63.124z"/>
		<path d="M66.366,21.174h1.669l3.288,5.297h0.02v-5.297h1.259v7.076h-1.599l-3.358-5.467h-0.02v5.467h-1.259V21.174z"/>
		<path d="M80.363,27.88c-0.71,0.34-1.56,0.549-2.669,0.549c-2.278,0-3.868-1.529-3.868-3.738c0-2.269,1.659-3.698,3.838-3.698
			c1.12,0,2.119,0.36,2.688,0.889l-0.869,0.939c-0.359-0.399-1.05-0.719-1.809-0.719c-1.489,0-2.459,1.129-2.459,2.588
			c0,1.509,0.959,2.608,2.519,2.608c0.529,0,0.999-0.08,1.409-0.25v-1.799h-1.489v-1.039h2.709V27.88z"/>
		<path d="M87.532,25.651c0,1.709-1.229,2.778-2.848,2.778s-2.849-1.069-2.849-2.778v-4.478h1.259v4.428
			c0,0.819,0.38,1.699,1.59,1.699c1.209,0,1.589-0.879,1.589-1.699v-4.428h1.259V25.651z"/>
		<path d="M91.254,21.174h1.09l3.048,7.076h-1.438l-0.66-1.619h-3.068l-0.64,1.619h-1.409L91.254,21.174z M92.854,25.551
			l-1.09-2.878l-1.109,2.878H92.854z"/>
		<path d="M102.293,27.88c-0.71,0.34-1.56,0.549-2.669,0.549c-2.278,0-3.868-1.529-3.868-3.738c0-2.269,1.659-3.698,3.838-3.698
			c1.12,0,2.119,0.36,2.688,0.889l-0.869,0.939c-0.359-0.399-1.05-0.719-1.809-0.719c-1.489,0-2.459,1.129-2.459,2.588
			c0,1.509,0.959,2.608,2.519,2.608c0.529,0,0.999-0.08,1.409-0.25v-1.799h-1.489v-1.039h2.709V27.88z"/>
		<path d="M103.825,21.174h4.688v1.1h-3.428v1.799h3.248v1.06h-3.248v1.999h3.607v1.119h-4.867V21.174z"/>
		<path d="M57.804,34.653c-0.27-0.35-0.8-0.61-1.299-0.61c-0.58,0-1.25,0.28-1.25,0.969c0,0.65,0.55,0.84,1.35,1.089
			c0.909,0.28,2.069,0.68,2.069,2.069c0,1.52-1.189,2.259-2.579,2.259c-0.919,0-1.869-0.35-2.429-1.009l0.899-0.839
			c0.35,0.479,0.989,0.779,1.549,0.779c0.589,0,1.279-0.29,1.279-1.049c0-0.74-0.74-0.949-1.629-1.229
			c-0.859-0.27-1.789-0.689-1.789-2.009c0-1.439,1.31-2.079,2.589-2.079c0.709,0,1.519,0.25,2.059,0.759L57.804,34.653z"/>
		<path d="M63.384,32.994c2.209,0,3.818,1.429,3.818,3.698c0,2.209-1.609,3.738-3.818,3.738c-2.179,0-3.788-1.529-3.788-3.738
			C59.596,34.423,61.205,32.994,63.384,32.994z M63.394,39.3c1.449,0,2.438-1.099,2.438-2.608c0-1.459-0.969-2.588-2.438-2.588
			c-1.459,0-2.429,1.129-2.429,2.588C60.965,38.201,61.955,39.3,63.394,39.3z"/>
		<path d="M68.426,33.174h1.259v5.957h3.008v1.119h-4.268V33.174z"/>
		<path d="M79.173,37.651c0,1.709-1.229,2.778-2.849,2.778s-2.849-1.069-2.849-2.778v-4.478h1.26v4.428
			c0,0.819,0.38,1.699,1.589,1.699c1.21,0,1.589-0.879,1.589-1.699v-4.428h1.26V37.651z"/>
		<path d="M82.105,34.273h-2.169v-1.1h5.597v1.1h-2.169v5.977h-1.259V34.273z"/>
		<path d="M86.355,33.174h1.26v7.076h-1.26V33.174z"/>
		<path d="M92.624,32.994c2.209,0,3.818,1.429,3.818,3.698c0,2.209-1.609,3.738-3.818,3.738c-2.179,0-3.788-1.529-3.788-3.738
			C88.836,34.423,90.445,32.994,92.624,32.994z M92.634,39.3c1.449,0,2.439-1.099,2.439-2.608c0-1.459-0.97-2.588-2.439-2.588
			c-1.459,0-2.429,1.129-2.429,2.588C90.205,38.201,91.195,39.3,92.634,39.3z"/>
		<path d="M97.665,33.174h1.669l3.289,5.297h0.02v-5.297h1.26v7.076h-1.6l-3.358-5.467h-0.02v5.467h-1.26V33.174z"/>
	</g>
</g>
</svg>
