<?xml version="1.0" encoding="iso-8859-1"?>
<!-- Generator: Adobe Illustrator 21.1.0, SVG Export Plug-In . SVG Version: 6.00 Build 0)  -->
<svg version="1.1" id="Layer_1" xmlns="http://www.w3.org/2000/svg" xmlns:xlink="http://www.w3.org/1999/xlink" x="0px" y="0px"
	 viewBox="0 0 141.711 42.293" style="enable-background:new 0 0 141.711 42.293;" xml:space="preserve">
<g>
	<g>
		<polygon style="fill:#009B3E;" points="69.839,26.961 64.294,26.961 64.294,30.914 69.633,30.914 69.633,32.608 64.294,32.608 
			64.294,36.664 69.993,36.664 69.993,38.359 62.446,38.359 62.446,25.269 69.839,25.269 69.839,26.961 		"/>
		<polygon style="fill:#009B3E;" points="74.074,25.269 75.768,25.269 75.768,38.359 74.074,38.359 74.074,25.269 		"/>
		<path style="fill:#009B3E;" d="M82.338,34.304h6.058c0-3.184-1.487-4.724-3.747-4.724c-2.361,0-4.005,1.745-4.005,4.363
			c0,2.361,1.488,4.569,4.158,4.569c1.437,0,2.361-0.36,3.441-1.027v-1.642c-1.027,0.665-2.004,1.026-3.029,1.026
			C83.57,36.87,82.595,35.996,82.338,34.304L82.338,34.304z M84.699,31.018c1.182,0,1.951,0.82,2.003,2.156H82.39
			C82.595,31.788,83.365,31.018,84.699,31.018L84.699,31.018z"/>
		<path style="fill:#009B3E;" d="M99.15,31.992c-0.976-0.667-1.642-0.872-2.361-0.872c-1.592,0-2.618,1.182-2.618,2.927
			c0,1.797,1.129,2.875,2.875,2.875c0.718,0,1.437-0.206,2.31-0.565v1.642c-0.615,0.256-1.694,0.514-2.566,0.514
			c-2.567,0-4.364-1.797-4.364-4.313c0-2.822,1.644-4.619,4.21-4.619c1.026,0,1.694,0.205,2.516,0.566V31.992L99.15,31.992z"/>
		<path style="fill:#009B3E;" d="M106.799,29.735h2.723v1.539h-2.723v4.414c0,0.976,0.719,1.284,1.233,1.284
			c0.616,0,1.231-0.205,1.949-0.615v1.591c-0.615,0.307-1.538,0.564-2.104,0.564c-1.849,0-2.771-1.18-2.771-2.722v-4.517h-1.488
			v-0.206l3.182-3.131V29.735L106.799,29.735z"/>
		<path style="fill:#009B3E;" d="M115.656,29.735v2l0,0c0.872-1.539,1.691-2.155,2.514-2.155c0.667,0,1.334,0.308,2.053,0.976
			l-0.926,1.489c-0.512-0.514-1.179-0.822-1.588-0.822c-1.181,0-2.053,1.182-2.053,2.618v4.519h-1.694v-8.624H115.656
			L115.656,29.735z"/>
		<polygon style="fill:#009B3E;" points="125.047,29.735 126.741,29.735 126.741,38.359 125.047,38.359 125.047,29.735 		"/>
		<path style="fill:#009B3E;" d="M137.754,31.992c-0.975-0.667-1.644-0.872-2.362-0.872c-1.591,0-2.617,1.182-2.617,2.927
			c0,1.797,1.129,2.875,2.874,2.875c0.718,0,1.437-0.206,2.31-0.565v1.642c-0.615,0.256-1.693,0.514-2.566,0.514
			c-2.567,0-4.363-1.797-4.363-4.313c0-2.822,1.643-4.619,4.211-4.619c1.025,0,1.692,0.205,2.515,0.566V31.992L137.754,31.992z"/>
	</g>
	<g>
		<g>
			<path style="fill:#009B3E;" d="M16.13,6.049c-3.241-1.439-5.184-1.944-7.057-1.944c-2.016,0-3.312,0.72-3.312,1.801
				c0,3.383,11.377,2.448,11.377,10.224c0,4.249-3.601,6.769-8.569,6.769c-3.961,0-5.905-1.009-8.064-2.16v-4.825
				c3.167,2.161,5.112,2.881,7.632,2.881c2.16,0,3.312-0.72,3.312-2.087C11.45,13.104,0,14.402,0,6.409C0,2.52,3.385,0,8.57,0
				c2.52,0,4.752,0.504,7.561,1.73V6.049L16.13,6.049z"/>
			<path style="fill:#009B3E;" d="M32.115,21.89c-1.943,0.648-3.528,1.009-5.113,1.009c-5.328,0-8.785-3.097-8.785-7.849
				c0-4.608,3.601-7.85,8.569-7.85c1.512,0,3.529,0.361,5.113,1.009v3.528c-1.296-0.648-2.738-1.08-3.89-1.08
				c-2.879,0-4.679,1.727-4.679,4.393c0,2.664,1.8,4.465,4.536,4.465c1.152,0,2.161-0.29,4.248-1.08V21.89L32.115,21.89z"/>
			<path style="fill:#009B3E;" d="M44.429,20.019V13.97c0-2.232-0.935-3.313-2.448-3.313c-1.082,0-2.017,0.72-3.169,2.305v9.648
				h-4.753V0.287h4.753v9.434h0.072c1.369-1.728,2.88-2.521,4.752-2.521c2.81,0,5.544,1.656,5.544,5.762v6.119
				C47.597,19.081,45.653,19.658,44.429,20.019L44.429,20.019z"/>
			<path style="fill:#009B3E;" d="M51.414,18.794c0-2.737,0-11.305,0-11.305h4.752v2.16C57.679,7.921,59.19,7.2,61.136,7.2
				c2.375,0,5.471,1.37,5.471,5.762v9.648h-4.753v-9.217c0-2.16-1.007-3.024-2.375-3.024c-1.153,0-2.017,0.648-3.313,2.52
				c0,0,0,4.176,0,6.625C54.582,19.081,52.927,18.938,51.414,18.794L51.414,18.794z"/>
			<path style="fill:#009B3E;" d="M76.473,7.2c-4.68,0-7.994,3.313-7.994,7.922c0,4.68,3.457,7.776,8.785,7.776
				c1.225,0,4.034,0,6.769-2.016V17.93c-2.231,1.585-3.743,2.159-5.616,2.159c-2.953,0-4.823-1.584-4.969-4.247H84.25
				C84.537,10.298,80.865,7.2,76.473,7.2L76.473,7.2z M73.52,13.322c0.216-2.089,1.44-3.314,3.313-3.314
				c1.802,0,3.096,1.298,3.239,3.314H73.52L73.52,13.322z"/>
			<polygon style="fill:#009B3E;" points="86.121,7.489 90.873,7.489 90.873,22.61 86.121,22.61 86.121,7.489 			"/>
			<path style="fill:#009B3E;" d="M104.053,0.287v7.851c-1.227-0.576-2.521-0.938-3.89-0.938c-4.321,0-7.345,3.17-7.345,7.85
				c0,4.536,3.023,7.849,7.057,7.849c1.583,0,2.879-0.432,4.178-1.512v1.224h4.752V0.287H104.053L104.053,0.287z M104.053,18.505
				c-0.937,0.866-1.801,1.225-2.81,1.225c-2.232,0-3.673-1.871-3.673-4.607c0-3.025,1.44-4.752,3.818-4.752
				c0.863,0,2.014,0.36,2.664,0.863V18.505L104.053,18.505z"/>
			<path style="fill:#009B3E;" d="M118.813,7.2c-4.682,0-7.992,3.313-7.992,7.922c0,4.68,3.457,7.776,8.785,7.776
				c1.152,0,4.03,0,6.769-2.016V17.93c-2.232,1.585-3.745,2.159-5.616,2.159c-3.025,0-4.824-1.584-5.041-4.247h10.872
				C126.805,10.298,123.205,7.2,118.813,7.2L118.813,7.2z M115.862,13.322c0.214-2.089,1.367-3.314,3.239-3.314
				c1.871,0,3.095,1.298,3.311,3.314H115.862L115.862,13.322z"/>
			<path style="fill:#009B3E;" d="M133.717,11.81h0.072c1.368-3.169,2.952-4.609,4.825-4.609c0.935,0,1.729,0.361,3.097,1.37
				l-1.296,4.176c-1.225-0.793-2.017-1.081-2.808-1.081c-1.729,0-2.881,1.657-3.891,4.392v6.554h-4.752V7.489h4.752V11.81
				L133.717,11.81z"/>
		</g>
		<path style="fill:#009B3E;" d="M91.09,1.079c0.433,1.225-0.36,2.88-1.8,3.674c-1.442,0.864-2.953,0.576-3.386-0.576
			c-0.432-1.151,0.362-2.81,1.803-3.673C89.146-0.359,90.656-0.072,91.09,1.079L91.09,1.079z"/>
	</g>
	<path style="fill:#009B3E;" d="M126.845,26.654c0.154,0.41-0.153,0.976-0.668,1.283c-0.514,0.308-1.026,0.206-1.181-0.206
		c-0.153-0.41,0.104-0.975,0.616-1.282C126.126,26.141,126.639,26.243,126.845,26.654L126.845,26.654z"/>
	<g>
		<path style="fill:#009B3E;" d="M40.099,25.587c4.95-5.146,12-6.757,15.694-3.591c3.694,3.166,2.669,9.942-2.279,15.085
			c-4.949,5.145-12,6.755-15.694,3.59C34.125,37.505,35.149,30.729,40.099,25.587L40.099,25.587z"/>
		<g>
			<path style="fill:#009B3E;" d="M43.618,37.86h-4.97l0.788-3.04l2.769,0.026c0.444,0.003,1.016-0.3,1.113-0.733l1.223-5.377
				c0.502-2.216,3.269-3.966,5.54-3.966h4.915l-0.652,2.745l-2.58,0.025c-0.575,0.007-0.775,0.137-0.896,0.596l-1.548,5.841
				C48.732,36.201,45.917,37.86,43.618,37.86L43.618,37.86z"/>
			<path style="fill:#FFFFFF;" d="M37.297,29.468c0.353-0.653,0.762-1.305,1.225-1.942h2.857l-0.63,1.942H37.297L37.297,29.468z"/>
			<path style="fill:#FFFFFF;" d="M35.908,33.16c0.137-0.641,0.333-1.29,0.583-1.942h3.974l-0.631,1.942H35.908L35.908,33.16z"/>
			<path style="fill:#FFFFFF;" d="M56.607,32.854c-0.334,0.654-0.721,1.306-1.165,1.943h-3.827l0.63-1.943H56.607L56.607,32.854z"/>
			<path style="fill:#FFFFFF;" d="M57.891,29.164c-0.119,0.639-0.294,1.29-0.527,1.942H52.53l0.629-1.942H57.891L57.891,29.164z"/>
			<path style="fill:#FFFFFF;" d="M43.618,37.86h-4.97l0.788-3.04l2.769,0.026c0.444,0.003,1.016-0.3,1.113-0.733l1.223-5.377
				c0.502-2.216,3.269-3.966,5.54-3.966h4.915l-0.652,2.745l-2.58,0.025c-0.575,0.007-0.775,0.137-0.896,0.596l-1.548,5.841
				C48.732,36.201,45.917,37.86,43.618,37.86L43.618,37.86z"/>
		</g>
	</g>
</g>
</svg>
