<?xml version="1.0" encoding="iso-8859-1"?>
<!-- Generator: Adobe Illustrator 21.1.0, SVG Export Plug-In . SVG Version: 6.00 Build 0)  -->
<svg version="1.1" id="&#x421;&#x43B;&#x43E;&#x439;_1"
	 xmlns="http://www.w3.org/2000/svg" xmlns:xlink="http://www.w3.org/1999/xlink" x="0px" y="0px" viewBox="0 0 187.111 28.973"
	 style="enable-background:new 0 0 187.111 28.973;" xml:space="preserve">
<g>
	<g>
		<polygon style="fill-rule:evenodd;clip-rule:evenodd;fill:#00ACAD;" points="26.487,28.163 34.729,28.163 34.729,0.528 
			26.487,0.528 26.487,28.163 26.487,28.163 		"/>
		<polygon style="fill-rule:evenodd;clip-rule:evenodd;fill:#00ACAD;" points="41.3,28.163 62.633,28.163 62.633,22.669 
			49.543,22.669 49.543,17.012 61.017,17.012 61.017,11.679 49.543,11.679 49.543,6.023 62.633,6.023 62.633,0.528 41.3,0.528 
			41.3,28.163 41.3,28.163 		"/>
		<polygon style="fill-rule:evenodd;clip-rule:evenodd;fill:#00ACAD;" points="85.181,16.931 77.909,0.528 67.161,0.528 
			67.161,28.163 73.787,28.163 73.787,11.679 81.06,28.163 86.474,28.163 94.312,11.275 94.312,28.163 102.554,28.163 
			102.554,0.528 92.777,0.528 85.181,16.931 85.181,16.931 		"/>
		<polygon style="fill-rule:evenodd;clip-rule:evenodd;fill:#00ACAD;" points="154.909,17.497 144.566,0.528 135.516,0.528 
			135.516,28.163 141.334,28.163 141.334,11.114 151.758,28.163 160.728,28.163 160.728,0.528 154.909,0.528 154.909,17.497 
			154.909,17.497 		"/>
		<polygon style="fill-rule:evenodd;clip-rule:evenodd;fill:#00ACAD;" points="109.031,28.163 130.364,28.163 130.364,22.669 
			117.274,22.669 117.274,17.012 128.748,17.012 128.748,11.679 117.274,11.679 117.274,6.023 130.364,6.023 130.364,0.528 
			109.031,0.528 109.031,28.163 109.031,28.163 		"/>
		<path style="fill-rule:evenodd;clip-rule:evenodd;fill:#00ACAD;" d="M17.602,13.215c-2.343-1.05-5.979-2.909-8.485-4.04
			C6.765,8.112,6.694,2.549,20.269,6.67l0,0V1.418l0,0C17.441,0.448,9.683-1.411,3.865,1.822c-5.818,3.232-4.444,11.232,0,13.899
			c1.939,1.05,4.606,2.02,8,3.474c2.811,1.205,4.525,7.353-11.555,3.152l0,0v5.414l0,0c3.313,1.212,15.434,2.505,18.989-1.454
			C23.738,21.362,21.723,14.912,17.602,13.215L17.602,13.215L17.602,13.215L17.602,13.215z"/>
		<path style="fill-rule:evenodd;clip-rule:evenodd;fill:#00ACAD;" d="M182.906,13.215c-2.343-1.05-5.98-2.909-8.485-4.04
			c-2.353-1.063-2.424-6.626,11.151-2.505l0,0V1.418l0,0c-2.828-0.97-10.585-2.828-16.404,0.404c-5.818,3.232-4.444,11.232,0,13.899
			c1.939,1.05,4.606,2.02,8,3.474c2.812,1.205,4.525,7.353-11.555,3.152l0,0v5.414l0,0c3.313,1.212,15.434,2.505,18.989-1.454
			C189.042,21.362,187.027,14.912,182.906,13.215L182.906,13.215L182.906,13.215L182.906,13.215z"/>
	</g>
</g>
</svg>
