<?xml version="1.0" encoding="utf-8"?>
<!-- Generator: Adobe Illustrator 21.1.0, SVG Export Plug-In . SVG Version: 6.00 Build 0)  -->
<svg version="1.1" id="Layer_1" xmlns="http://www.w3.org/2000/svg" xmlns:xlink="http://www.w3.org/1999/xlink" x="0px" y="0px"
	 viewBox="0 0 512 335.4" style="enable-background:new 0 0 512 335.4;" xml:space="preserve">
<style type="text/css">
	.st0{fill:#73AF00;}
	.st1{fill:#FF4B55;}
	.st2{fill:#F5F5F5;}
</style>
<path class="st0" d="M512,111.8H0V8.8C0,4,4,0,8.8,0h494.3c4.9,0,8.8,4,8.8,8.8L512,111.8L512,111.8z"/>
<path class="st1" d="M503.2,335.4H8.8c-4.9,0-8.8-4-8.8-8.8v-103h512v103C512,331.5,508,335.4,503.2,335.4z"/>
<g>
	<rect y="111.8" class="st2" width="512" height="111.8"/>
	<path class="st2" d="M1.4,105.9L1.4,105.9c0.8,0,1.5-0.6,1.5-1.4v-3c0-0.8,0.6-1.4,1.4-1.4h5.8c0.8,0,1.4,0.6,1.4,1.4v3
		c0,0.8,0.6,1.4,1.4,1.4h11.5c0.8,0,1.4-0.6,1.4-1.4v-5.9c0-0.8-0.6-1.4-1.4-1.4h-5.8c-0.8,0-1.4,0.6-1.4,1.4v0.2
		c0,0.8,0.6,1.4,1.4,1.4h2.9c0.8,0,1.4,0.6,1.4,1.4v0.2c0,0.8-0.6,1.4-1.4,1.4h-5.8c-0.8,0-1.4-0.6-1.4-1.4v-3.1
		c0-0.8-0.6-1.4-1.4-1.4H1.4c-0.8,0-1.4,0.6-1.4,1.4v5.9C0,105.3,0.6,105.9,1.4,105.9z M7.1,105.9L7.1,105.9c0.8,0,1.5-0.6,1.5-1.4
		v-0.1c0-0.8-0.6-1.4-1.4-1.4H7.1c-0.8,0-1.4,0.6-1.4,1.4v0.1C5.7,105.3,6.4,105.9,7.1,105.9z M1.4,94.3h34.4c0.8,0,1.4-0.6,1.4-1.4
		v-0.2c0-0.8-0.6-1.4-1.4-1.4H1.4c-0.8,0-1.4,0.6-1.4,1.4v0.2C0,93.6,0.6,94.3,1.4,94.3z M35.8,105.9H30c-0.8,0-1.4-0.6-1.4-1.4
		v-5.9c0-0.8,0.6-1.4,1.4-1.4h8.6c0.8,0,1.4-0.6,1.4-1.4v-3.1c0-0.8,0.6-1.4,1.4-1.4h0.1c0.8,0,1.4,0.6,1.4,1.4v8.9
		c0,0.8,0.6,1.4,1.4,1.4h0.1c0.8,0,1.4-0.6,1.4-1.4v-8.9c0-0.8,0.6-1.4,1.4-1.4h0.1c0.8,0,1.4,0.6,1.4,1.4v8.9
		c0,0.8,0.6,1.4,1.4,1.4h0.1c0.8,0,1.4-0.6,1.4-1.4v-8.9c0-0.8,0.6-1.4,1.4-1.4h0c0.8,0,1.4,0.6,1.4,1.4v11.8c0,0.8-0.6,1.4-1.4,1.4
		H41.4c-0.8,0-1.4-0.6-1.4-1.4v-3c0-0.8-0.6-1.4-1.4-1.4h-5.8c-0.8,0-1.4,0.6-1.4,1.4v0.2c0,0.8,0.6,1.4,1.4,1.4h2.9
		c0.8,0,1.4,0.6,1.4,1.4v0.1C37.2,105.3,36.6,105.9,35.8,105.9z"/>
	<path class="st2" d="M58.6,105.9h0.1c0.8,0,1.4-0.6,1.4-1.4v-3c0-0.8,0.6-1.4,1.4-1.4h5.8c0.8,0,1.4,0.6,1.4,1.4v3
		c0,0.8,0.6,1.4,1.4,1.4h11.5c0.8,0,1.4-0.6,1.4-1.4v-5.9c0-0.8-0.6-1.4-1.4-1.4h-5.8c-0.8,0-1.4,0.6-1.4,1.4v0.2
		c0,0.8,0.6,1.4,1.4,1.4h2.9c0.8,0,1.4,0.6,1.4,1.4v0.2c0,0.8-0.6,1.4-1.4,1.4h-5.8c-0.8,0-1.4-0.6-1.4-1.4v-3.1
		c0-0.8-0.6-1.4-1.4-1.4H58.6c-0.8,0-1.4,0.6-1.4,1.4v5.9C57.2,105.3,57.9,105.9,58.6,105.9z M64.3,105.9L64.3,105.9
		c0.8,0,1.5-0.6,1.5-1.4v-0.1c0-0.8-0.6-1.4-1.4-1.4h-0.1c-0.8,0-1.4,0.6-1.4,1.4v0.1C62.9,105.3,63.6,105.9,64.3,105.9z M58.6,94.3
		H93c0.8,0,1.4-0.6,1.4-1.4v-0.2c0-0.8-0.6-1.4-1.4-1.4H58.6c-0.8,0-1.4,0.6-1.4,1.4v0.2C57.2,93.6,57.9,94.3,58.6,94.3z M93,105.9
		h-5.8c-0.8,0-1.4-0.6-1.4-1.4v-5.9c0-0.8,0.6-1.4,1.4-1.4h8.6c0.8,0,1.4-0.6,1.4-1.4v-3.1c0-0.8,0.6-1.4,1.4-1.4h0.1
		c0.8,0,1.4,0.6,1.4,1.4v8.9c0,0.8,0.6,1.4,1.4,1.4h0.1c0.8,0,1.4-0.6,1.4-1.4v-8.9c0-0.8,0.6-1.4,1.4-1.4h0c0.8,0,1.4,0.6,1.4,1.4
		v8.9c0,0.8,0.6,1.4,1.4,1.4h0.1c0.8,0,1.4-0.6,1.4-1.4v-8.9c0-0.8,0.6-1.4,1.4-1.4h0.1c0.8,0,1.4,0.6,1.4,1.4v11.8
		c0,0.8-0.6,1.4-1.4,1.4H98.6c-0.8,0-1.4-0.6-1.4-1.4v-3c0-0.8-0.6-1.4-1.4-1.4h-5.8c-0.8,0-1.4,0.6-1.4,1.4v0.2
		c0,0.8,0.6,1.4,1.4,1.4H93c0.8,0,1.4,0.6,1.4,1.4v0.1C94.4,105.3,93.8,105.9,93,105.9z"/>
	<path class="st2" d="M115.8,105.9L115.8,105.9c0.8,0,1.5-0.6,1.5-1.4v-3c0-0.8,0.6-1.4,1.4-1.4h5.8c0.8,0,1.4,0.6,1.4,1.4v3
		c0,0.8,0.6,1.4,1.4,1.4h11.5c0.8,0,1.4-0.6,1.4-1.4v-5.9c0-0.8-0.6-1.4-1.4-1.4H133c-0.8,0-1.4,0.6-1.4,1.4v0.2
		c0,0.8,0.6,1.4,1.4,1.4h2.9c0.8,0,1.4,0.6,1.4,1.4v0.2c0,0.8-0.6,1.4-1.4,1.4h-5.8c-0.8,0-1.4-0.6-1.4-1.4v-3.1
		c0-0.8-0.6-1.4-1.4-1.4h-11.5c-0.8,0-1.4,0.6-1.4,1.4v5.9C114.4,105.3,115,105.9,115.8,105.9z M121.5,105.9L121.5,105.9
		c0.8,0,1.5-0.6,1.5-1.4v-0.1c0-0.8-0.6-1.4-1.4-1.4h-0.1c-0.8,0-1.4,0.6-1.4,1.4v0.1C120.1,105.3,120.8,105.9,121.5,105.9z
		 M115.8,94.3h34.4c0.8,0,1.4-0.6,1.4-1.4v-0.2c0-0.8-0.6-1.4-1.4-1.4h-34.4c-0.8,0-1.4,0.6-1.4,1.4v0.2
		C114.4,93.6,115,94.3,115.8,94.3z M150.2,105.9h-5.8c-0.8,0-1.4-0.6-1.4-1.4v-5.9c0-0.8,0.6-1.4,1.4-1.4h8.6c0.8,0,1.4-0.6,1.4-1.4
		v-3.1c0-0.8,0.6-1.4,1.4-1.4h0.1c0.8,0,1.4,0.6,1.4,1.4v8.9c0,0.8,0.6,1.4,1.4,1.4h0.1c0.8,0,1.4-0.6,1.4-1.4v-8.9
		c0-0.8,0.6-1.4,1.4-1.4h0.1c0.8,0,1.4,0.6,1.4,1.4v8.9c0,0.8,0.6,1.4,1.4,1.4h0c0.8,0,1.4-0.6,1.4-1.4v-8.9c0-0.8,0.6-1.4,1.4-1.4
		h0.1c0.8,0,1.4,0.6,1.4,1.4v11.8c0,0.8-0.6,1.4-1.4,1.4h-11.5c-0.8,0-1.4-0.6-1.4-1.4v-3c0-0.8-0.6-1.4-1.4-1.4h-5.8
		c-0.8,0-1.4,0.6-1.4,1.4v0.2c0,0.8,0.6,1.4,1.4,1.4h3c0.8,0,1.4,0.6,1.4,1.4v0.1C151.6,105.3,151,105.9,150.2,105.9z"/>
	<path class="st2" d="M173,105.9L173,105.9c0.8,0,1.5-0.6,1.5-1.4v-3c0-0.8,0.6-1.4,1.4-1.4h5.8c0.8,0,1.4,0.6,1.4,1.4v3
		c0,0.8,0.6,1.4,1.4,1.4H196c0.8,0,1.4-0.6,1.4-1.4v-5.9c0-0.8-0.6-1.4-1.4-1.4h-5.8c-0.8,0-1.4,0.6-1.4,1.4v0.2
		c0,0.8,0.6,1.4,1.4,1.4h2.9c0.8,0,1.4,0.6,1.4,1.4v0.2c0,0.8-0.6,1.4-1.4,1.4h-5.8c-0.8,0-1.4-0.6-1.4-1.4v-3.1
		c0-0.8-0.6-1.4-1.4-1.4H173c-0.8,0-1.4,0.6-1.4,1.4v5.9C171.6,105.3,172.2,105.9,173,105.9z M178.7,105.9L178.7,105.9
		c0.8,0,1.5-0.6,1.5-1.4v-0.1c0-0.8-0.6-1.4-1.4-1.4h-0.1c-0.8,0-1.4,0.6-1.4,1.4v0.1C177.3,105.3,178,105.9,178.7,105.9z M173,94.3
		h34.4c0.8,0,1.4-0.6,1.4-1.4v-0.2c0-0.8-0.6-1.4-1.4-1.4H173c-0.8,0-1.4,0.6-1.4,1.4v0.2C171.6,93.6,172.2,94.3,173,94.3z
		 M207.4,105.9h-5.8c-0.8,0-1.4-0.6-1.4-1.4v-5.9c0-0.8,0.6-1.4,1.4-1.4h8.7c0.8,0,1.4-0.6,1.4-1.4v-3.1c0-0.8,0.6-1.4,1.4-1.4h0.1
		c0.8,0,1.4,0.6,1.4,1.4v8.9c0,0.8,0.6,1.4,1.4,1.4h0c0.8,0,1.4-0.6,1.4-1.4v-8.9c0-0.8,0.6-1.4,1.4-1.4h0.1c0.8,0,1.4,0.6,1.4,1.4
		v8.9c0,0.8,0.6,1.4,1.4,1.4h0.1c0.8,0,1.4-0.6,1.4-1.4v-8.9c0-0.8,0.6-1.4,1.4-1.4h0.1c0.8,0,1.4,0.6,1.4,1.4v11.8
		c0,0.8-0.6,1.4-1.4,1.4h-11.5c-0.8,0-1.4-0.6-1.4-1.4v-3c0-0.8-0.6-1.4-1.4-1.4h-5.8c-0.8,0-1.4,0.6-1.4,1.4v0.2
		c0,0.8,0.6,1.4,1.4,1.4h2.9c0.8,0,1.4,0.6,1.4,1.4v0.1C208.8,105.3,208.2,105.9,207.4,105.9z"/>
	<path class="st2" d="M230.2,105.9L230.2,105.9c0.8,0,1.5-0.6,1.5-1.4v-3c0-0.8,0.6-1.4,1.4-1.4h5.8c0.8,0,1.4,0.6,1.4,1.4v3
		c0,0.8,0.6,1.4,1.4,1.4h11.5c0.8,0,1.4-0.6,1.4-1.4v-5.9c0-0.8-0.6-1.4-1.4-1.4h-5.8c-0.8,0-1.4,0.6-1.4,1.4v0.2
		c0,0.8,0.6,1.4,1.4,1.4h3c0.8,0,1.4,0.6,1.4,1.4v0.2c0,0.8-0.6,1.4-1.4,1.4h-5.8c-0.8,0-1.4-0.6-1.4-1.4v-3.1
		c0-0.8-0.6-1.4-1.4-1.4h-11.5c-0.8,0-1.4,0.6-1.4,1.4v5.9C228.8,105.3,229.4,105.9,230.2,105.9z M235.9,105.9L235.9,105.9
		c0.8,0,1.4-0.6,1.4-1.4v-0.1c0-0.8-0.6-1.4-1.4-1.4h0c-0.8,0-1.4,0.6-1.4,1.4v0.1C234.6,105.3,235.2,105.9,235.9,105.9z
		 M230.2,94.3h34.4c0.8,0,1.4-0.6,1.4-1.4v-0.2c0-0.8-0.6-1.4-1.4-1.4h-34.4c-0.8,0-1.4,0.6-1.4,1.4v0.2
		C228.8,93.6,229.4,94.3,230.2,94.3z M264.6,105.9h-5.8c-0.8,0-1.4-0.6-1.4-1.4v-5.9c0-0.8,0.6-1.4,1.4-1.4h8.7
		c0.8,0,1.4-0.6,1.4-1.4v-3.1c0-0.8,0.6-1.4,1.4-1.4h0.1c0.8,0,1.4,0.6,1.4,1.4v8.9c0,0.8,0.6,1.4,1.4,1.4h0.1
		c0.8,0,1.4-0.6,1.4-1.4v-8.9c0-0.8,0.6-1.4,1.4-1.4h0.1c0.8,0,1.4,0.6,1.4,1.4v8.9c0,0.8,0.6,1.4,1.4,1.4h0.1
		c0.8,0,1.4-0.6,1.4-1.4v-8.9c0-0.8,0.6-1.4,1.4-1.4h0.1c0.8,0,1.4,0.6,1.4,1.4v11.8c0,0.8-0.6,1.4-1.4,1.4h-11.5
		c-0.8,0-1.4-0.6-1.4-1.4v-3c0-0.8-0.6-1.4-1.4-1.4h-5.8c-0.8,0-1.4,0.6-1.4,1.4v0.2c0,0.8,0.6,1.4,1.4,1.4h3c0.8,0,1.4,0.6,1.4,1.4
		v0.1C266,105.3,265.4,105.9,264.6,105.9z"/>
	<path class="st2" d="M287.4,105.9L287.4,105.9c0.8,0,1.5-0.6,1.5-1.4v-3c0-0.8,0.6-1.4,1.4-1.4h5.8c0.8,0,1.4,0.6,1.4,1.4v3
		c0,0.8,0.6,1.4,1.4,1.4h11.5c0.8,0,1.4-0.6,1.4-1.4v-5.9c0-0.8-0.6-1.4-1.4-1.4h-5.8c-0.8,0-1.4,0.6-1.4,1.4v0.2
		c0,0.8,0.6,1.4,1.4,1.4h2.9c0.8,0,1.4,0.6,1.4,1.4v0.2c0,0.8-0.6,1.4-1.4,1.4h-5.8c-0.8,0-1.4-0.6-1.4-1.4v-3.1
		c0-0.8-0.6-1.4-1.4-1.4h-11.5c-0.8,0-1.4,0.6-1.4,1.4v5.9C286,105.3,286.6,105.9,287.4,105.9z M293.1,105.9L293.1,105.9
		c0.8,0,1.4-0.6,1.4-1.4v-0.1c0-0.8-0.6-1.4-1.4-1.4h0c-0.8,0-1.4,0.6-1.4,1.4v0.1C291.8,105.3,292.4,105.9,293.1,105.9z
		 M287.4,94.3h34.4c0.8,0,1.4-0.6,1.4-1.4v-0.2c0-0.8-0.6-1.4-1.4-1.4h-34.4c-0.8,0-1.4,0.6-1.4,1.4v0.2
		C286,93.6,286.6,94.3,287.4,94.3z M321.8,105.9H316c-0.8,0-1.4-0.6-1.4-1.4v-5.9c0-0.8,0.6-1.4,1.4-1.4h8.6c0.8,0,1.4-0.6,1.4-1.4
		v-3.1c0-0.8,0.6-1.4,1.4-1.4h0.1c0.8,0,1.4,0.6,1.4,1.4v8.9c0,0.8,0.6,1.4,1.4,1.4h0.1c0.8,0,1.4-0.6,1.4-1.4v-8.9
		c0-0.8,0.6-1.4,1.4-1.4h0.1c0.8,0,1.4,0.6,1.4,1.4v8.9c0,0.8,0.6,1.4,1.4,1.4h0.1c0.8,0,1.4-0.6,1.4-1.4v-8.9
		c0-0.8,0.6-1.4,1.4-1.4h0.1c0.8,0,1.4,0.6,1.4,1.4v11.8c0,0.8-0.6,1.4-1.4,1.4h-11.5c-0.8,0-1.4-0.6-1.4-1.4v-3
		c0-0.8-0.6-1.4-1.4-1.4h-5.8c-0.8,0-1.4,0.6-1.4,1.4v0.2c0,0.8,0.6,1.4,1.4,1.4h3c0.8,0,1.4,0.6,1.4,1.4v0.1
		C323.2,105.3,322.6,105.9,321.8,105.9z"/>
	<path class="st2" d="M344.6,105.9L344.6,105.9c0.8,0,1.5-0.6,1.5-1.4v-3c0-0.8,0.6-1.4,1.4-1.4h5.8c0.8,0,1.4,0.6,1.4,1.4v3
		c0,0.8,0.6,1.4,1.4,1.4h11.5c0.8,0,1.4-0.6,1.4-1.4v-5.9c0-0.8-0.6-1.4-1.4-1.4h-5.8c-0.8,0-1.4,0.6-1.4,1.4v0.2
		c0,0.8,0.6,1.4,1.4,1.4h3c0.8,0,1.4,0.6,1.4,1.4v0.2c0,0.8-0.6,1.4-1.4,1.4h-5.9c-0.8,0-1.4-0.6-1.4-1.4v-3.1
		c0-0.8-0.6-1.4-1.4-1.4h-11.5c-0.8,0-1.4,0.6-1.4,1.4v5.9C343.2,105.3,343.8,105.9,344.6,105.9z M350.3,105.9h0.1
		c0.8,0,1.4-0.6,1.4-1.4v-0.1c0-0.8-0.6-1.4-1.4-1.4h-0.1c-0.8,0-1.4,0.6-1.4,1.4v0.1C348.9,105.3,349.5,105.9,350.3,105.9z
		 M344.6,94.3H379c0.8,0,1.4-0.6,1.4-1.4v-0.2c0-0.8-0.6-1.4-1.4-1.4h-34.4c-0.8,0-1.4,0.6-1.4,1.4v0.2
		C343.2,93.6,343.8,94.3,344.6,94.3z M379,105.9h-5.8c-0.8,0-1.4-0.6-1.4-1.4v-5.9c0-0.8,0.6-1.4,1.4-1.4h8.6c0.8,0,1.4-0.6,1.4-1.4
		v-3.1c0-0.8,0.6-1.4,1.4-1.4h0.1c0.8,0,1.4,0.6,1.4,1.4v8.9c0,0.8,0.6,1.4,1.4,1.4h0.1c0.8,0,1.4-0.6,1.4-1.4v-8.9
		c0-0.8,0.6-1.4,1.4-1.4h0.1c0.8,0,1.4,0.6,1.4,1.4v8.9c0,0.8,0.6,1.4,1.4,1.4h0.1c0.8,0,1.4-0.6,1.4-1.4v-8.9
		c0-0.8,0.6-1.4,1.4-1.4h0c0.8,0,1.4,0.6,1.4,1.4v11.8c0,0.8-0.6,1.4-1.4,1.4h-11.5c-0.8,0-1.4-0.6-1.4-1.4v-3
		c0-0.8-0.6-1.4-1.4-1.4h-5.8c-0.8,0-1.4,0.6-1.4,1.4v0.2c0,0.8,0.6,1.4,1.4,1.4h2.9c0.8,0,1.4,0.6,1.4,1.4v0.1
		C380.4,105.3,379.8,105.9,379,105.9z"/>
	<path class="st2" d="M401.8,105.9L401.8,105.9c0.8,0,1.4-0.6,1.4-1.4v-3c0-0.8,0.6-1.4,1.4-1.4h5.8c0.8,0,1.4,0.6,1.4,1.4v3
		c0,0.8,0.6,1.4,1.4,1.4h11.5c0.8,0,1.4-0.6,1.4-1.4v-5.9c0-0.8-0.6-1.4-1.4-1.4H419c-0.8,0-1.4,0.6-1.4,1.4v0.2
		c0,0.8,0.6,1.4,1.4,1.4h2.9c0.8,0,1.4,0.6,1.4,1.4v0.2c0,0.8-0.6,1.4-1.4,1.4h-5.8c-0.8,0-1.4-0.6-1.4-1.4v-3.1
		c0-0.8-0.6-1.4-1.4-1.4h-11.5c-0.8,0-1.4,0.6-1.4,1.4v5.9C400.4,105.3,401.1,105.9,401.8,105.9z M407.5,105.9L407.5,105.9
		c0.8,0,1.5-0.6,1.5-1.4v-0.1c0-0.8-0.6-1.4-1.4-1.4h-0.1c-0.8,0-1.4,0.6-1.4,1.4v0.1C406.1,105.3,406.8,105.9,407.5,105.9z
		 M401.8,94.3h34.5c0.8,0,1.4-0.6,1.4-1.4v-0.2c0-0.8-0.6-1.4-1.4-1.4h-34.5c-0.8,0-1.4,0.6-1.4,1.4v0.2
		C400.4,93.6,401.1,94.3,401.8,94.3z M436.3,105.9h-5.9c-0.8,0-1.4-0.6-1.4-1.4v-5.9c0-0.8,0.6-1.4,1.4-1.4h8.6
		c0.8,0,1.4-0.6,1.4-1.4v-3.1c0-0.8,0.6-1.4,1.4-1.4h0.1c0.8,0,1.4,0.6,1.4,1.4v8.9c0,0.8,0.6,1.4,1.4,1.4h0.1
		c0.8,0,1.4-0.6,1.4-1.4v-8.9c0-0.8,0.6-1.4,1.4-1.4h0c0.8,0,1.4,0.6,1.4,1.4v8.9c0,0.8,0.6,1.4,1.4,1.4h0.1c0.8,0,1.4-0.6,1.4-1.4
		v-8.9c0-0.8,0.6-1.4,1.4-1.4h0.1c0.8,0,1.4,0.6,1.4,1.4v11.8c0,0.8-0.6,1.4-1.4,1.4h-11.5c-0.8,0-1.4-0.6-1.4-1.4v-3
		c0-0.8-0.6-1.4-1.4-1.4h-5.8c-0.8,0-1.4,0.6-1.4,1.4v0.2c0,0.8,0.6,1.4,1.4,1.4h3c0.8,0,1.4,0.6,1.4,1.4v0.1
		C437.7,105.3,437,105.9,436.3,105.9z"/>
	<path class="st2" d="M459,105.9L459,105.9c0.8,0,1.5-0.6,1.5-1.4v-3c0-0.8,0.6-1.4,1.4-1.4h5.8c0.8,0,1.4,0.6,1.4,1.4v3
		c0,0.8,0.6,1.4,1.4,1.4H482c0.8,0,1.4-0.6,1.4-1.4v-5.9c0-0.8-0.6-1.4-1.4-1.4h-5.8c-0.8,0-1.4,0.6-1.4,1.4v0.2
		c0,0.8,0.6,1.4,1.4,1.4h2.9c0.8,0,1.4,0.6,1.4,1.4v0.2c0,0.8-0.6,1.4-1.4,1.4h-5.9c-0.8,0-1.4-0.6-1.4-1.4v-3.1
		c0-0.8-0.6-1.4-1.4-1.4H459c-0.8,0-1.4,0.6-1.4,1.4v5.9C457.6,105.3,458.2,105.9,459,105.9z M464.7,105.9L464.7,105.9
		c0.8,0,1.5-0.6,1.5-1.4v-0.1c0-0.8-0.6-1.4-1.4-1.4h-0.1c-0.8,0-1.4,0.6-1.4,1.4v0.1C463.3,105.3,464,105.9,464.7,105.9z M459,94.3
		h34.4c0.8,0,1.4-0.6,1.4-1.4v-0.2c0-0.8-0.6-1.4-1.4-1.4H459c-0.8,0-1.4,0.6-1.4,1.4v0.2C457.6,93.6,458.2,94.3,459,94.3z
		 M493.4,105.9h-5.8c-0.8,0-1.4-0.6-1.4-1.4v-5.9c0-0.8,0.6-1.4,1.4-1.4h8.7c0.8,0,1.4-0.6,1.4-1.4v-3.1c0-0.8,0.6-1.4,1.4-1.4h0
		c0.8,0,1.4,0.6,1.4,1.4v8.9c0,0.8,0.6,1.4,1.4,1.4h0.2c0.8,0,1.4-0.6,1.4-1.4v-8.9c0-0.8,0.6-1.4,1.4-1.4h0c0.8,0,1.4,0.6,1.4,1.4
		v8.9c0,0.8,0.6,1.4,1.4,1.4h0.1c0.8,0,1.4-0.6,1.4-1.4v-8.9c0-0.8,0.6-1.4,1.4-1.4h0.2c0.8,0,1.4,0.6,1.4,1.4v11.8
		c0,0.8-0.6,1.4-1.4,1.4h-11.5c-0.8,0-1.4-0.6-1.4-1.4v-3c0-0.8-0.6-1.4-1.4-1.4h-5.9c-0.8,0-1.4,0.6-1.4,1.4v0.2
		c0,0.8,0.6,1.4,1.4,1.4h2.9c0.8,0,1.4,0.6,1.4,1.4v0.1C494.8,105.3,494.2,105.9,493.4,105.9z"/>
	<path class="st2" d="M1.4,114.8h23c0.8,0,1.4-0.6,1.4-1.4v-3.1c0-0.8-0.6-1.4-1.4-1.4h-23c-0.8,0-1.4,0.6-1.4,1.4v3.1
		C0,114.1,0.6,114.8,1.4,114.8z M30,114.8h22.9c0.8,0,1.4-0.6,1.4-1.4v-3.1c0-0.8-0.6-1.4-1.4-1.4H30c-0.8,0-1.4,0.6-1.4,1.4v3.1
		C28.6,114.1,29.3,114.8,30,114.8z"/>
	<path class="st2" d="M58.6,114.8h22.9c0.8,0,1.4-0.6,1.4-1.4v-3.1c0-0.8-0.6-1.4-1.4-1.4H58.6c-0.8,0-1.4,0.6-1.4,1.4v3.1
		C57.2,114.1,57.9,114.8,58.6,114.8z M87.2,114.8h23c0.8,0,1.4-0.6,1.4-1.4v-3.1c0-0.8-0.6-1.4-1.4-1.4h-23c-0.8,0-1.4,0.6-1.4,1.4
		v3.1C85.8,114.1,86.4,114.8,87.2,114.8z"/>
	<path class="st2" d="M115.8,114.8h23c0.8,0,1.4-0.6,1.4-1.4v-3.1c0-0.8-0.6-1.4-1.4-1.4h-23c-0.8,0-1.4,0.6-1.4,1.4v3.1
		C114.4,114.1,115,114.8,115.8,114.8z M144.4,114.8h23c0.8,0,1.4-0.6,1.4-1.4v-3.1c0-0.8-0.6-1.4-1.4-1.4h-23
		c-0.8,0-1.4,0.6-1.4,1.4v3.1C143,114.1,143.6,114.8,144.4,114.8z"/>
	<path class="st2" d="M173,114.8h23c0.8,0,1.4-0.6,1.4-1.4v-3.1c0-0.8-0.6-1.4-1.4-1.4h-23c-0.8,0-1.4,0.6-1.4,1.4v3.1
		C171.6,114.1,172.2,114.8,173,114.8z M201.6,114.8h23c0.8,0,1.4-0.6,1.4-1.4v-3.1c0-0.8-0.6-1.4-1.4-1.4h-23
		c-0.8,0-1.4,0.6-1.4,1.4v3.1C200.2,114.1,200.8,114.8,201.6,114.8z"/>
	<path class="st2" d="M230.2,114.8h23c0.8,0,1.4-0.6,1.4-1.4v-3.1c0-0.8-0.6-1.4-1.4-1.4h-23c-0.8,0-1.4,0.6-1.4,1.4v3.1
		C228.8,114.1,229.4,114.8,230.2,114.8z M258.8,114.8h23c0.8,0,1.4-0.6,1.4-1.4v-3.1c0-0.8-0.6-1.4-1.4-1.4h-23
		c-0.8,0-1.4,0.6-1.4,1.4v3.1C257.4,114.1,258,114.8,258.8,114.8z"/>
	<path class="st2" d="M287.4,114.8h23c0.8,0,1.4-0.6,1.4-1.4v-3.1c0-0.8-0.6-1.4-1.4-1.4h-23c-0.8,0-1.4,0.6-1.4,1.4v3.1
		C286,114.1,286.6,114.8,287.4,114.8z M316,114.8H339c0.8,0,1.4-0.6,1.4-1.4v-3.1c0-0.8-0.6-1.4-1.4-1.4H316c-0.8,0-1.4,0.6-1.4,1.4
		v3.1C314.6,114.1,315.3,114.8,316,114.8z"/>
	<path class="st2" d="M344.6,114.8h23c0.8,0,1.4-0.6,1.4-1.4v-3.1c0-0.8-0.6-1.4-1.4-1.4h-23c-0.8,0-1.4,0.6-1.4,1.4v3.1
		C343.2,114.1,343.8,114.8,344.6,114.8z M373.2,114.8h22.9c0.8,0,1.4-0.6,1.4-1.4v-3.1c0-0.8-0.6-1.4-1.4-1.4h-22.9
		c-0.8,0-1.4,0.6-1.4,1.4v3.1C371.8,114.1,372.5,114.8,373.2,114.8z"/>
	<path class="st2" d="M401.8,114.8h22.9c0.8,0,1.4-0.6,1.4-1.4v-3.1c0-0.8-0.6-1.4-1.4-1.4h-22.9c-0.8,0-1.4,0.6-1.4,1.4v3.1
		C400.4,114.1,401.1,114.8,401.8,114.8z M430.4,114.8h23c0.8,0,1.4-0.6,1.4-1.4v-3.1c0-0.8-0.6-1.4-1.4-1.4h-23
		c-0.8,0-1.4,0.6-1.4,1.4v3.1C429,114.1,429.6,114.8,430.4,114.8z"/>
	<path class="st2" d="M459,114.8h23c0.8,0,1.4-0.6,1.4-1.4v-3.1c0-0.8-0.6-1.4-1.4-1.4h-23c-0.8,0-1.4,0.6-1.4,1.4v3.1
		C457.6,114.1,458.2,114.8,459,114.8z M487.6,114.8h23c0.8,0,1.4-0.6,1.4-1.4v-3.1c0-0.8-0.6-1.4-1.4-1.4h-23
		c-0.8,0-1.4,0.6-1.4,1.4v3.1C486.2,114.1,486.8,114.8,487.6,114.8z"/>
	<path class="st2" d="M510.6,229.5L510.6,229.5c-0.8,0-1.5,0.6-1.5,1.4v3c0,0.8-0.6,1.4-1.4,1.4h-5.8c-0.8,0-1.4-0.6-1.4-1.4v-3
		c0-0.8-0.6-1.4-1.4-1.4h-11.5c-0.8,0-1.4,0.6-1.4,1.4v5.9c0,0.8,0.6,1.4,1.4,1.4h5.8c0.8,0,1.4-0.6,1.4-1.4v-0.2
		c0-0.8-0.6-1.4-1.4-1.4h-2.9c-0.8,0-1.4-0.6-1.4-1.4v-0.2c0-0.8,0.6-1.4,1.4-1.4h5.8c0.8,0,1.4,0.6,1.4,1.4v3.1
		c0,0.8,0.6,1.4,1.4,1.4h11.5c0.8,0,1.4-0.6,1.4-1.4v-5.9C512,230.2,511.4,229.5,510.6,229.5z M504.9,229.5L504.9,229.5
		c-0.8,0-1.5,0.6-1.5,1.4v0.1c0,0.8,0.6,1.4,1.4,1.4h0.1c0.8,0,1.4-0.6,1.4-1.4v-0.1C506.3,230.2,505.6,229.5,504.9,229.5z
		 M510.6,241.2h-34.4c-0.8,0-1.4,0.6-1.4,1.4v0.2c0,0.8,0.6,1.4,1.4,1.4h34.4c0.8,0,1.4-0.6,1.4-1.4v-0.2
		C512,241.8,511.4,241.2,510.6,241.2z M476.2,229.5h5.8c0.8,0,1.4,0.6,1.4,1.4v5.9c0,0.8-0.6,1.4-1.4,1.4h-8.6
		c-0.8,0-1.4,0.6-1.4,1.4v3.1c0,0.8-0.6,1.4-1.4,1.4h-0.1c-0.8,0-1.4-0.6-1.4-1.4v-8.9c0-0.8-0.6-1.4-1.4-1.4h-0.1
		c-0.8,0-1.4,0.6-1.4,1.4v8.9c0,0.8-0.6,1.4-1.4,1.4h-0.1c-0.8,0-1.4-0.6-1.4-1.4v-8.9c0-0.8-0.6-1.4-1.4-1.4h-0.1
		c-0.8,0-1.4,0.6-1.4,1.4v8.9c0,0.8-0.6,1.4-1.4,1.4h0c-0.8,0-1.4-0.6-1.4-1.4v-11.8c0-0.8,0.6-1.4,1.4-1.4h11.5
		c0.8,0,1.4,0.6,1.4,1.4v3c0,0.8,0.6,1.4,1.4,1.4h5.8c0.8,0,1.4-0.6,1.4-1.4v-0.2c0-0.8-0.6-1.4-1.4-1.4h-2.9
		c-0.8,0-1.4-0.6-1.4-1.4v-0.1C474.8,230.2,475.4,229.5,476.2,229.5z"/>
	<path class="st2" d="M453.4,229.5h-0.1c-0.8,0-1.4,0.6-1.4,1.4v3c0,0.8-0.6,1.4-1.4,1.4h-5.8c-0.8,0-1.4-0.6-1.4-1.4v-3
		c0-0.8-0.6-1.4-1.4-1.4h-11.5c-0.8,0-1.4,0.6-1.4,1.4v5.9c0,0.8,0.6,1.4,1.4,1.4h5.8c0.8,0,1.4-0.6,1.4-1.4v-0.2
		c0-0.8-0.6-1.4-1.4-1.4h-2.9c-0.8,0-1.4-0.6-1.4-1.4v-0.2c0-0.8,0.6-1.4,1.4-1.4h5.8c0.8,0,1.4,0.6,1.4,1.4v3.1
		c0,0.8,0.6,1.4,1.4,1.4h11.5c0.8,0,1.4-0.6,1.4-1.4v-5.9C454.8,230.2,454.1,229.5,453.4,229.5z M447.7,229.5L447.7,229.5
		c-0.8,0-1.5,0.6-1.5,1.4v0.1c0,0.8,0.6,1.4,1.4,1.4h0.1c0.8,0,1.4-0.6,1.4-1.4v-0.1C449.1,230.2,448.4,229.5,447.7,229.5z
		 M453.4,241.2H419c-0.8,0-1.4,0.6-1.4,1.4v0.2c0,0.8,0.6,1.4,1.4,1.4h34.4c0.8,0,1.4-0.6,1.4-1.4v-0.2
		C454.8,241.8,454.1,241.2,453.4,241.2z M419,229.5h5.8c0.8,0,1.4,0.6,1.4,1.4v5.9c0,0.8-0.6,1.4-1.4,1.4h-8.6
		c-0.8,0-1.4,0.6-1.4,1.4v3.1c0,0.8-0.6,1.4-1.4,1.4h-0.1c-0.8,0-1.4-0.6-1.4-1.4v-8.9c0-0.8-0.6-1.4-1.4-1.4h-0.1
		c-0.8,0-1.4,0.6-1.4,1.4v8.9c0,0.8-0.6,1.4-1.4,1.4h0c-0.8,0-1.4-0.6-1.4-1.4v-8.9c0-0.8-0.6-1.4-1.4-1.4h-0.1
		c-0.8,0-1.4,0.6-1.4,1.4v8.9c0,0.8-0.6,1.4-1.4,1.4h-0.1c-0.8,0-1.4-0.6-1.4-1.4v-11.8c0-0.8,0.6-1.4,1.4-1.4h11.6
		c0.8,0,1.4,0.6,1.4,1.4v3c0,0.8,0.6,1.4,1.4,1.4h5.8c0.8,0,1.4-0.6,1.4-1.4v-0.2c0-0.8-0.6-1.4-1.4-1.4H419c-0.8,0-1.4-0.6-1.4-1.4
		v-0.1C417.6,230.2,418.2,229.5,419,229.5z"/>
	<path class="st2" d="M396.2,229.5L396.2,229.5c-0.8,0-1.5,0.6-1.5,1.4v3c0,0.8-0.6,1.4-1.4,1.4h-5.8c-0.8,0-1.4-0.6-1.4-1.4v-3
		c0-0.8-0.6-1.4-1.4-1.4h-11.5c-0.8,0-1.4,0.6-1.4,1.4v5.9c0,0.8,0.6,1.4,1.4,1.4h5.8c0.8,0,1.4-0.6,1.4-1.4v-0.2
		c0-0.8-0.6-1.4-1.4-1.4h-2.9c-0.8,0-1.4-0.6-1.4-1.4v-0.2c0-0.8,0.6-1.4,1.4-1.4h5.8c0.8,0,1.4,0.6,1.4,1.4v3.1
		c0,0.8,0.6,1.4,1.4,1.4h11.5c0.8,0,1.4-0.6,1.4-1.4v-5.9C397.6,230.2,397,229.5,396.2,229.5z M390.5,229.5L390.5,229.5
		c-0.8,0-1.5,0.6-1.5,1.4v0.1c0,0.8,0.6,1.4,1.4,1.4h0.1c0.8,0,1.4-0.6,1.4-1.4v-0.1C391.9,230.2,391.2,229.5,390.5,229.5z
		 M396.2,241.2h-34.4c-0.8,0-1.4,0.6-1.4,1.4v0.2c0,0.8,0.6,1.4,1.4,1.4h34.4c0.8,0,1.4-0.6,1.4-1.4v-0.2
		C397.6,241.8,397,241.2,396.2,241.2z M361.8,229.5h5.8c0.8,0,1.4,0.6,1.4,1.4v5.9c0,0.8-0.6,1.4-1.4,1.4h-8.6
		c-0.8,0-1.4,0.6-1.4,1.4v3.1c0,0.8-0.6,1.4-1.4,1.4h-0.1c-0.8,0-1.4-0.6-1.4-1.4v-8.9c0-0.8-0.6-1.4-1.4-1.4h-0.1
		c-0.8,0-1.4,0.6-1.4,1.4v8.9c0,0.8-0.6,1.4-1.4,1.4h-0.1c-0.8,0-1.4-0.6-1.4-1.4v-8.9c0-0.8-0.6-1.4-1.4-1.4h0
		c-0.8,0-1.4,0.6-1.4,1.4v8.9c0,0.8-0.6,1.4-1.4,1.4h-0.1c-0.8,0-1.4-0.6-1.4-1.4v-11.8c0-0.8,0.6-1.4,1.4-1.4h11.5
		c0.8,0,1.4,0.6,1.4,1.4v3c0,0.8,0.6,1.4,1.4,1.4h5.8c0.8,0,1.4-0.6,1.4-1.4v-0.2c0-0.8-0.6-1.4-1.4-1.4h-3c-0.8,0-1.4-0.6-1.4-1.4
		v-0.1C360.4,230.2,361,229.5,361.8,229.5z"/>
	<path class="st2" d="M339,229.5L339,229.5c-0.8,0-1.5,0.6-1.5,1.4v3c0,0.8-0.6,1.4-1.4,1.4h-5.8c-0.8,0-1.4-0.6-1.4-1.4v-3
		c0-0.8-0.6-1.4-1.4-1.4H316c-0.8,0-1.4,0.6-1.4,1.4v5.9c0,0.8,0.6,1.4,1.4,1.4h5.8c0.8,0,1.4-0.6,1.4-1.4v-0.2
		c0-0.8-0.6-1.4-1.4-1.4h-2.9c-0.8,0-1.4-0.6-1.4-1.4v-0.2c0-0.8,0.6-1.4,1.4-1.4h5.8c0.8,0,1.4,0.6,1.4,1.4v3.1
		c0,0.8,0.6,1.4,1.4,1.4H339c0.8,0,1.4-0.6,1.4-1.4v-5.9C340.4,230.2,339.8,229.5,339,229.5z M333.3,229.5L333.3,229.5
		c-0.8,0-1.5,0.6-1.5,1.4v0.1c0,0.8,0.6,1.4,1.4,1.4h0.1c0.8,0,1.4-0.6,1.4-1.4v-0.1C334.7,230.2,334,229.5,333.3,229.5z M339,241.2
		h-34.4c-0.8,0-1.4,0.6-1.4,1.4v0.2c0,0.8,0.6,1.4,1.4,1.4H339c0.8,0,1.4-0.6,1.4-1.4v-0.2C340.4,241.8,339.8,241.2,339,241.2z
		 M304.6,229.5h5.8c0.8,0,1.4,0.6,1.4,1.4v5.9c0,0.8-0.6,1.4-1.4,1.4h-8.7c-0.8,0-1.4,0.6-1.4,1.4v3.1c0,0.8-0.6,1.4-1.4,1.4h-0.1
		c-0.8,0-1.4-0.6-1.4-1.4v-8.9c0-0.8-0.6-1.4-1.4-1.4h0c-0.8,0-1.4,0.6-1.4,1.4v8.9c0,0.8-0.6,1.4-1.4,1.4h-0.1
		c-0.8,0-1.4-0.6-1.4-1.4v-8.9c0-0.8-0.6-1.4-1.4-1.4h-0.1c-0.8,0-1.4,0.6-1.4,1.4v8.9c0,0.8-0.6,1.4-1.4,1.4h-0.1
		c-0.8,0-1.4-0.6-1.4-1.4v-11.8c0-0.8,0.6-1.4,1.4-1.4h11.5c0.8,0,1.4,0.6,1.4,1.4v3c0,0.8,0.6,1.4,1.4,1.4h5.8
		c0.8,0,1.4-0.6,1.4-1.4v-0.2c0-0.8-0.6-1.4-1.4-1.4h-2.9c-0.8,0-1.4-0.6-1.4-1.4v-0.1C303.2,230.2,303.8,229.5,304.6,229.5z"/>
	<path class="st2" d="M281.8,229.5L281.8,229.5c-0.8,0-1.5,0.6-1.5,1.4v3c0,0.8-0.6,1.4-1.4,1.4h-5.8c-0.8,0-1.4-0.6-1.4-1.4v-3
		c0-0.8-0.6-1.4-1.4-1.4h-11.5c-0.8,0-1.4,0.6-1.4,1.4v5.9c0,0.8,0.6,1.4,1.4,1.4h5.8c0.8,0,1.4-0.6,1.4-1.4v-0.2
		c0-0.8-0.6-1.4-1.4-1.4h-3c-0.8,0-1.4-0.6-1.4-1.4v-0.2c0-0.8,0.6-1.4,1.4-1.4h5.8c0.8,0,1.4,0.6,1.4,1.4v3.1
		c0,0.8,0.6,1.4,1.4,1.4h11.5c0.8,0,1.4-0.6,1.4-1.4v-5.9C283.2,230.2,282.6,229.5,281.8,229.5z M276,229.5L276,229.5
		c-0.8,0-1.4,0.6-1.4,1.4v0.1c0,0.8,0.6,1.4,1.4,1.4h0c0.8,0,1.4-0.6,1.4-1.4v-0.1C277.4,230.2,276.8,229.5,276,229.5z M281.8,241.2
		h-34.4c-0.8,0-1.4,0.6-1.4,1.4v0.2c0,0.8,0.6,1.4,1.4,1.4h34.4c0.8,0,1.4-0.6,1.4-1.4v-0.2C283.2,241.8,282.6,241.2,281.8,241.2z
		 M247.4,229.5h5.8c0.8,0,1.4,0.6,1.4,1.4v5.9c0,0.8-0.6,1.4-1.4,1.4h-8.7c-0.8,0-1.4,0.6-1.4,1.4v3.1c0,0.8-0.6,1.4-1.4,1.4h-0.1
		c-0.8,0-1.4-0.6-1.4-1.4v-8.9c0-0.8-0.6-1.4-1.4-1.4h-0.1c-0.8,0-1.4,0.6-1.4,1.4v8.9c0,0.8-0.6,1.4-1.4,1.4h-0.1
		c-0.8,0-1.4-0.6-1.4-1.4v-8.9c0-0.8-0.6-1.4-1.4-1.4h-0.1c-0.8,0-1.4,0.6-1.4,1.4v8.9c0,0.8-0.6,1.4-1.4,1.4h-0.1
		c-0.8,0-1.4-0.6-1.4-1.4v-11.8c0-0.8,0.6-1.4,1.4-1.4h11.5c0.8,0,1.4,0.6,1.4,1.4v3c0,0.8,0.6,1.4,1.4,1.4h5.8
		c0.8,0,1.4-0.6,1.4-1.4v-0.2c0-0.8-0.6-1.4-1.4-1.4h-3c-0.8,0-1.4-0.6-1.4-1.4v-0.1C246,230.2,246.6,229.5,247.4,229.5z"/>
	<path class="st2" d="M224.6,229.5L224.6,229.5c-0.8,0-1.5,0.6-1.5,1.4v3c0,0.8-0.6,1.4-1.4,1.4H216c-0.8,0-1.4-0.6-1.4-1.4v-3
		c0-0.8-0.6-1.4-1.4-1.4h-11.5c-0.8,0-1.4,0.6-1.4,1.4v5.9c0,0.8,0.6,1.4,1.4,1.4h5.8c0.8,0,1.4-0.6,1.4-1.4v-0.2
		c0-0.8-0.6-1.4-1.4-1.4h-2.9c-0.8,0-1.4-0.6-1.4-1.4v-0.2c0-0.8,0.6-1.4,1.4-1.4h5.8c0.8,0,1.4,0.6,1.4,1.4v3.1
		c0,0.8,0.6,1.4,1.4,1.4h11.5c0.8,0,1.4-0.6,1.4-1.4v-5.9C226,230.2,225.4,229.5,224.6,229.5z M218.9,229.5L218.9,229.5
		c-0.8,0-1.4,0.6-1.4,1.4v0.1c0,0.8,0.6,1.4,1.4,1.4h0c0.8,0,1.4-0.6,1.4-1.4v-0.1C220.2,230.2,219.6,229.5,218.9,229.5z
		 M224.6,241.2h-34.4c-0.8,0-1.4,0.6-1.4,1.4v0.2c0,0.8,0.6,1.4,1.4,1.4h34.4c0.8,0,1.4-0.6,1.4-1.4v-0.2
		C226,241.8,225.4,241.2,224.6,241.2z M190.2,229.5h5.8c0.8,0,1.4,0.6,1.4,1.4v5.9c0,0.8-0.6,1.4-1.4,1.4h-8.6
		c-0.8,0-1.4,0.6-1.4,1.4v3.1c0,0.8-0.6,1.4-1.4,1.4h-0.1c-0.8,0-1.4-0.6-1.4-1.4v-8.9c0-0.8-0.6-1.4-1.4-1.4h-0.1
		c-0.8,0-1.4,0.6-1.4,1.4v8.9c0,0.8-0.6,1.4-1.4,1.4h-0.1c-0.8,0-1.4-0.6-1.4-1.4v-8.9c0-0.8-0.6-1.4-1.4-1.4h-0.1
		c-0.8,0-1.4,0.6-1.4,1.4v8.9c0,0.8-0.6,1.4-1.4,1.4H173c-0.8,0-1.4-0.6-1.4-1.4v-11.8c0-0.8,0.6-1.4,1.4-1.4h11.5
		c0.8,0,1.4,0.6,1.4,1.4v3c0,0.8,0.6,1.4,1.4,1.4h5.8c0.8,0,1.4-0.6,1.4-1.4v-0.2c0-0.8-0.6-1.4-1.4-1.4h-3c-0.8,0-1.4-0.6-1.4-1.4
		v-0.1C188.8,230.2,189.4,229.5,190.2,229.5z"/>
	<path class="st2" d="M167.4,229.5L167.4,229.5c-0.8,0-1.5,0.6-1.5,1.4v3c0,0.8-0.6,1.4-1.4,1.4h-5.8c-0.8,0-1.4-0.6-1.4-1.4v-3
		c0-0.8-0.6-1.4-1.4-1.4h-11.5c-0.8,0-1.4,0.6-1.4,1.4v5.9c0,0.8,0.6,1.4,1.4,1.4h5.8c0.8,0,1.4-0.6,1.4-1.4v-0.2
		c0-0.8-0.6-1.4-1.4-1.4h-3c-0.8,0-1.4-0.6-1.4-1.4v-0.2c0-0.8,0.6-1.4,1.4-1.4h5.9c0.8,0,1.4,0.6,1.4,1.4v3.1
		c0,0.8,0.6,1.4,1.4,1.4h11.5c0.8,0,1.4-0.6,1.4-1.4v-5.9C168.8,230.2,168.2,229.5,167.4,229.5z M161.7,229.5h-0.1
		c-0.8,0-1.4,0.6-1.4,1.4v0.1c0,0.8,0.6,1.4,1.4,1.4h0.1c0.8,0,1.4-0.6,1.4-1.4v-0.1C163.1,230.2,162.5,229.5,161.7,229.5z
		 M167.4,241.2H133c-0.8,0-1.4,0.6-1.4,1.4v0.2c0,0.8,0.6,1.4,1.4,1.4h34.4c0.8,0,1.4-0.6,1.4-1.4v-0.2
		C168.8,241.8,168.2,241.2,167.4,241.2z M133,229.5h5.8c0.8,0,1.4,0.6,1.4,1.4v5.9c0,0.8-0.6,1.4-1.4,1.4h-8.6
		c-0.8,0-1.4,0.6-1.4,1.4v3.1c0,0.8-0.6,1.4-1.4,1.4h-0.1c-0.8,0-1.4-0.6-1.4-1.4v-8.9c0-0.8-0.6-1.4-1.4-1.4h-0.1
		c-0.8,0-1.4,0.6-1.4,1.4v8.9c0,0.8-0.6,1.4-1.4,1.4h-0.1c-0.8,0-1.4-0.6-1.4-1.4v-8.9c0-0.8-0.6-1.4-1.4-1.4h-0.1
		c-0.8,0-1.4,0.6-1.4,1.4v8.9c0,0.8-0.6,1.4-1.4,1.4h0c-0.8,0-1.4-0.6-1.4-1.4v-11.8c0-0.8,0.6-1.4,1.4-1.4h11.5
		c0.8,0,1.4,0.6,1.4,1.4v3c0,0.8,0.6,1.4,1.4,1.4h5.8c0.8,0,1.4-0.6,1.4-1.4v-0.2c0-0.8-0.6-1.4-1.4-1.4H133c-0.8,0-1.4-0.6-1.4-1.4
		v-0.1C131.6,230.2,132.2,229.5,133,229.5z"/>
	<path class="st2" d="M110.2,229.5L110.2,229.5c-0.8,0-1.4,0.6-1.4,1.4v3c0,0.8-0.6,1.4-1.4,1.4h-5.8c-0.8,0-1.4-0.6-1.4-1.4v-3
		c0-0.8-0.6-1.4-1.4-1.4H87.3c-0.8,0-1.4,0.6-1.4,1.4v5.9c0,0.8,0.6,1.4,1.4,1.4H93c0.8,0,1.4-0.6,1.4-1.4v-0.2
		c0-0.8-0.6-1.4-1.4-1.4h-2.9c-0.8,0-1.4-0.6-1.4-1.4v-0.2c0-0.8,0.6-1.4,1.4-1.4h5.8c0.8,0,1.4,0.6,1.4,1.4v3.1
		c0,0.8,0.6,1.4,1.4,1.4h11.5c0.8,0,1.4-0.6,1.4-1.4v-5.9C111.6,230.2,110.9,229.5,110.2,229.5z M104.5,229.5L104.5,229.5
		c-0.8,0-1.5,0.6-1.5,1.4v0.1c0,0.8,0.6,1.4,1.4,1.4h0.1c0.8,0,1.4-0.6,1.4-1.4v-0.1C105.9,230.2,105.2,229.5,104.5,229.5z
		 M110.2,241.2H75.7c-0.8,0-1.4,0.6-1.4,1.4v0.2c0,0.8,0.6,1.4,1.4,1.4h34.5c0.8,0,1.4-0.6,1.4-1.4v-0.2
		C111.6,241.8,110.9,241.2,110.2,241.2z M75.7,229.5h5.9c0.8,0,1.4,0.6,1.4,1.4v5.9c0,0.8-0.6,1.4-1.4,1.4h-8.6
		c-0.8,0-1.4,0.6-1.4,1.4v3.1c0,0.8-0.6,1.4-1.4,1.4H70c-0.8,0-1.4-0.6-1.4-1.4v-8.9c0-0.8-0.6-1.4-1.4-1.4h-0.1
		c-0.8,0-1.4,0.6-1.4,1.4v8.9c0,0.8-0.6,1.4-1.4,1.4h0c-0.8,0-1.4-0.6-1.4-1.4v-8.9c0-0.8-0.6-1.4-1.4-1.4h-0.1
		c-0.8,0-1.4,0.6-1.4,1.4v8.9c0,0.8-0.6,1.4-1.4,1.4h-0.1c-0.8,0-1.4-0.6-1.4-1.4v-11.8c0-0.8,0.6-1.4,1.4-1.4h11.5
		c0.8,0,1.4,0.6,1.4,1.4v3c0,0.8,0.6,1.4,1.4,1.4h5.8c0.8,0,1.4-0.6,1.4-1.4v-0.2c0-0.8-0.6-1.4-1.4-1.4h-3c-0.8,0-1.4-0.6-1.4-1.4
		v-0.1C74.3,230.2,75,229.5,75.7,229.5z"/>
	<path class="st2" d="M53,229.5L53,229.5c-0.8,0-1.5,0.6-1.5,1.4v3c0,0.8-0.6,1.4-1.4,1.4h-5.8c-0.8,0-1.4-0.6-1.4-1.4v-3
		c0-0.8-0.6-1.4-1.4-1.4H30c-0.8,0-1.4,0.6-1.4,1.4v5.9c0,0.8,0.6,1.4,1.4,1.4h5.8c0.8,0,1.4-0.6,1.4-1.4v-0.2
		c0-0.8-0.6-1.4-1.4-1.4h-2.9c-0.8,0-1.4-0.6-1.4-1.4v-0.2c0-0.8,0.6-1.4,1.4-1.4h5.9c0.8,0,1.4,0.6,1.4,1.4v3.1
		c0,0.8,0.6,1.4,1.4,1.4H53c0.8,0,1.4-0.6,1.4-1.4v-5.9C54.4,230.2,53.8,229.5,53,229.5z M47.3,229.5L47.3,229.5
		c-0.8,0-1.5,0.6-1.5,1.4v0.1c0,0.8,0.6,1.4,1.4,1.4h0.1c0.8,0,1.4-0.6,1.4-1.4v-0.1C48.7,230.2,48,229.5,47.3,229.5z M53,241.2
		H18.6c-0.8,0-1.4,0.6-1.4,1.4v0.2c0,0.8,0.6,1.4,1.4,1.4H53c0.8,0,1.4-0.6,1.4-1.4v-0.2C54.4,241.8,53.8,241.2,53,241.2z
		 M18.6,229.5h5.8c0.8,0,1.4,0.6,1.4,1.4v5.9c0,0.8-0.6,1.4-1.4,1.4h-8.7c-0.8,0-1.4,0.6-1.4,1.4v3.1c0,0.8-0.6,1.4-1.4,1.4h0
		c-0.8,0-1.4-0.6-1.4-1.4v-8.9c0-0.8-0.6-1.4-1.4-1.4H10c-0.8,0-1.4,0.6-1.4,1.4v8.9c0,0.8-0.6,1.4-1.4,1.4h0
		c-0.8,0-1.4-0.6-1.4-1.4v-8.9c0-0.8-0.6-1.4-1.4-1.4H4.3c-0.8,0-1.4,0.6-1.4,1.4v8.9c0,0.8-0.6,1.4-1.4,1.4H1.4
		c-0.8,0-1.4-0.6-1.4-1.4v-11.8c0-0.8,0.6-1.4,1.4-1.4h11.5c0.8,0,1.4,0.6,1.4,1.4v3c0,0.8,0.6,1.4,1.4,1.4h5.9
		c0.8,0,1.4-0.6,1.4-1.4v-0.2c0-0.8-0.6-1.4-1.4-1.4h-2.9c-0.8,0-1.4-0.6-1.4-1.4v-0.1C17.2,230.2,17.8,229.5,18.6,229.5z"/>
	<path class="st2" d="M510.6,220.7h-23c-0.8,0-1.4,0.6-1.4,1.4v3.1c0,0.8,0.6,1.4,1.4,1.4h23c0.8,0,1.4-0.6,1.4-1.4v-3.1
		C512,221.3,511.4,220.7,510.6,220.7z M482,220.7h-22.9c-0.8,0-1.4,0.6-1.4,1.4v3.1c0,0.8,0.6,1.4,1.4,1.4H482
		c0.8,0,1.4-0.6,1.4-1.4v-3.1C483.4,221.3,482.7,220.7,482,220.7z"/>
	<path class="st2" d="M453.4,220.7h-22.9c-0.8,0-1.4,0.6-1.4,1.4v3.1c0,0.8,0.6,1.4,1.4,1.4h22.9c0.8,0,1.4-0.6,1.4-1.4v-3.1
		C454.8,221.3,454.1,220.7,453.4,220.7z M424.8,220.7h-23c-0.8,0-1.4,0.6-1.4,1.4v3.1c0,0.8,0.6,1.4,1.4,1.4h23
		c0.8,0,1.4-0.6,1.4-1.4v-3.1C426.2,221.3,425.6,220.7,424.8,220.7z"/>
	<path class="st2" d="M396.2,220.7h-23c-0.8,0-1.4,0.6-1.4,1.4v3.1c0,0.8,0.6,1.4,1.4,1.4h23c0.8,0,1.4-0.6,1.4-1.4v-3.1
		C397.6,221.3,397,220.7,396.2,220.7z M367.6,220.7h-23c-0.8,0-1.4,0.6-1.4,1.4v3.1c0,0.8,0.6,1.4,1.4,1.4h23c0.8,0,1.4-0.6,1.4-1.4
		v-3.1C369,221.3,368.4,220.7,367.6,220.7z"/>
	<path class="st2" d="M339,220.7h-23c-0.8,0-1.4,0.6-1.4,1.4v3.1c0,0.8,0.6,1.4,1.4,1.4h23c0.8,0,1.4-0.6,1.4-1.4v-3.1
		C340.4,221.3,339.8,220.7,339,220.7z M310.4,220.7h-23c-0.8,0-1.4,0.6-1.4,1.4v3.1c0,0.8,0.6,1.4,1.4,1.4h23c0.8,0,1.4-0.6,1.4-1.4
		v-3.1C311.8,221.3,311.2,220.7,310.4,220.7z"/>
	<path class="st2" d="M281.8,220.7h-23c-0.8,0-1.4,0.6-1.4,1.4v3.1c0,0.8,0.6,1.4,1.4,1.4h23c0.8,0,1.4-0.6,1.4-1.4v-3.1
		C283.2,221.3,282.6,220.7,281.8,220.7z M253.2,220.7h-23c-0.8,0-1.4,0.6-1.4,1.4v3.1c0,0.8,0.6,1.4,1.4,1.4h23
		c0.8,0,1.4-0.6,1.4-1.4v-3.1C254.6,221.3,254,220.7,253.2,220.7z"/>
	<path class="st2" d="M224.6,220.7h-23c-0.8,0-1.4,0.6-1.4,1.4v3.1c0,0.8,0.6,1.4,1.4,1.4h23c0.8,0,1.4-0.6,1.4-1.4v-3.1
		C226,221.3,225.4,220.7,224.6,220.7z M196,220.7H173c-0.8,0-1.4,0.6-1.4,1.4v3.1c0,0.8,0.6,1.4,1.4,1.4H196c0.8,0,1.4-0.6,1.4-1.4
		v-3.1C197.4,221.3,196.7,220.7,196,220.7z"/>
	<path class="st2" d="M167.4,220.7h-23c-0.8,0-1.4,0.6-1.4,1.4v3.1c0,0.8,0.6,1.4,1.4,1.4h23c0.8,0,1.4-0.6,1.4-1.4v-3.1
		C168.8,221.3,168.2,220.7,167.4,220.7z M138.8,220.7h-22.9c-0.8,0-1.4,0.6-1.4,1.4v3.1c0,0.8,0.6,1.4,1.4,1.4h22.9
		c0.8,0,1.4-0.6,1.4-1.4v-3.1C140.2,221.3,139.5,220.7,138.8,220.7z"/>
	<path class="st2" d="M110.2,220.7H87.3c-0.8,0-1.4,0.6-1.4,1.4v3.1c0,0.8,0.6,1.4,1.4,1.4h22.9c0.8,0,1.4-0.6,1.4-1.4v-3.1
		C111.6,221.3,110.9,220.7,110.2,220.7z M81.6,220.7h-23c-0.8,0-1.4,0.6-1.4,1.4v3.1c0,0.8,0.6,1.4,1.4,1.4h23
		c0.8,0,1.4-0.6,1.4-1.4v-3.1C83,221.3,82.3,220.7,81.6,220.7z"/>
	<path class="st2" d="M53,220.7H30c-0.8,0-1.4,0.6-1.4,1.4v3.1c0,0.8,0.6,1.4,1.4,1.4h23c0.8,0,1.4-0.6,1.4-1.4v-3.1
		C54.4,221.3,53.8,220.7,53,220.7z M24.4,220.7h-23c-0.8,0-1.4,0.6-1.4,1.4v3.1c0,0.8,0.6,1.4,1.4,1.4h23c0.8,0,1.4-0.6,1.4-1.4
		v-3.1C25.8,221.3,25.2,220.7,24.4,220.7z"/>
</g>
<g>
	<path class="st1" d="M248.7,126c2.6,0.7,5.4-0.1,7.3-2c2.9,2.9,7.6,3,10.7,0.1c2-1.9,2.8-4.8,2.1-7.3c-2.5,4.1-7.9,5.4-12,2.9
		c-0.2-0.1-0.5-0.3-0.7-0.4c-3.9,2.9-9.4,2.1-12.3-1.7c-0.1-0.2-0.3-0.5-0.5-0.7C242.2,120.8,244.7,125,248.7,126z"/>
	<path class="st1" d="M265,207.6c9.4-5.2,17.2-13.3,21.5-24c7.3-18.3,2.7-39-11.3-52.4c-0.5-0.5-1.2,0.2-0.9,0.7
		c13.8,22.5,8.4,52.1-13,68.3l1-65.4c0-0.9-0.4-1.7-1.1-2.3l-3.5-2.8c-1.1-0.9-2.6-0.9-3.6,0l-3.4,2.8c-0.7,0.6-1.1,1.4-1.1,2.3
		l1,65.4c-21.4-16.2-26.8-45.8-13-68.3c0.3-0.6-0.4-1.2-0.9-0.7c-14,13.4-18.6,34.1-11.3,52.4c4.3,10.7,12.1,18.8,21.5,24
		c-6,2-12.3,3.1-18.6,3c-0.7,0-0.8,0.9-0.2,1.1c8.1,2.4,16.4,2.6,24.2,0.9l3.1,5.9c0.2,0.4,0.8,0.4,1,0l3.1-5.9
		c7.8,1.7,16.1,1.6,24.2-0.9c0.6-0.2,0.5-1.1-0.2-1.1C277.2,210.7,271,209.6,265,207.6z"/>
	<path class="st1" d="M303.2,146.8c-4.8-9-12.8-15.8-22.3-19.1c-0.6-0.2-1.1,0.6-0.6,1c21,17.3,25.2,48,9,70.3
		c-0.8,1.1-1.7,2.3-2.6,3.3C306.6,191.6,313.9,166.7,303.2,146.8z"/>
	<path class="st1" d="M222.8,199c-16.2-22.3-12-53,8.9-70.3c0.5-0.4,0-1.2-0.6-1c-9.5,3.3-17.4,10.1-22.2,19.1
		c-10.8,19.9-3.4,44.8,16.6,55.4C224.5,201.3,223.6,200.1,222.8,199z"/>
</g>
</svg>
