<?xml version="1.0" encoding="utf-8"?>
<!-- Generator: Adobe Illustrator 21.1.0, SVG Export Plug-In . SVG Version: 6.00 Build 0)  -->
<svg version="1.1" id="Layer_1" xmlns="http://www.w3.org/2000/svg" xmlns:xlink="http://www.w3.org/1999/xlink" x="0px" y="0px"
	 viewBox="0 0 512 335.4" style="enable-background:new 0 0 512 335.4;" xml:space="preserve">
<style type="text/css">
	.st0{fill:#41479B;}
	.st1{fill:#F5F5F5;}
</style>
<path class="st0" d="M503.2,335.4H8.8c-4.9,0-8.8-4-8.8-8.8V8.8C0,4,4,0,8.8,0h494.3c4.9,0,8.8,4,8.8,8.8v317.8
	C512,331.5,508,335.4,503.2,335.4z"/>
<rect y="61.8" class="st1" width="512" height="211.9"/>
<path class="st0" d="M301.9,167.7l22.9-39.7h-45.9L256,88.3L233.1,128h-45.9l22.9,39.7l-22.9,39.7h45.9l22.9,39.7l22.9-39.7h45.9
	L301.9,167.7z M302.3,141l-7.9,13.7l-7.9-13.7H302.3z M286.9,167.7l-15.4,26.7h-30.9l-15.4-26.7l15.4-26.7h30.9L286.9,167.7z
	 M256,114.3l7.9,13.7h-15.9L256,114.3z M209.7,141h15.9l-7.9,13.7L209.7,141z M209.7,194.5l7.9-13.7l7.9,13.7H209.7z M256,221.2
	l-7.9-13.7h15.9L256,221.2z M294.4,180.7l7.9,13.7h-15.9L294.4,180.7z"/>
</svg>
