<?xml version="1.0" encoding="utf-8"?>
<!-- Generator: Adobe Illustrator 21.1.0, SVG Export Plug-In . SVG Version: 6.00 Build 0)  -->
<svg version="1.1" id="Layer_1" xmlns="http://www.w3.org/2000/svg" xmlns:xlink="http://www.w3.org/1999/xlink" x="0px" y="0px"
	 viewBox="0 0 512 335.4" style="enable-background:new 0 0 512 335.4;" xml:space="preserve">
<style type="text/css">
	.st0{fill:#F5F5F5;}
	.st1{fill:#FF4B55;}
	.st2{fill:#41479B;}
	.st3{fill:#464655;}
</style>
<path class="st0" d="M503.2,335.4H8.8c-4.9,0-8.8-4-8.8-8.8V8.8C0,4,4,0,8.8,0h494.3c4.9,0,8.8,4,8.8,8.8v317.8
	C512,331.5,508,335.4,503.2,335.4z"/>
<path class="st1" d="M305,94.3c-40.6-27-95.4-16-122.4,24.5c-13.6,20.2-8,47.7,12.2,61.2c20.3,13.5,47.6,8,61.2-12.3
	c13.5-20.3,40.9-25.7,61.2-12.3c20.3,13.5,25.8,41,12.2,61.2C356.5,176.1,345.5,121.3,305,94.3"/>
<path class="st2" d="M182.6,118.8c-13.6,20.2-8,47.7,12.2,61.2c20.3,13.5,47.6,8,61.2-12.3c13.5-20.3,40.9-25.7,61.2-12.3
	c20.3,13.5,25.8,41,12.2,61.2c-27,40.6-81.8,51.5-122.3,24.5C166.6,214.1,155.6,159.3,182.6,118.8"/>
<g>
	<path class="st3" d="M349.9,60.9L366,85c1.3,2,0.8,4.8-1.2,6.1l-4.1,2.7c-2,1.4-4.8,0.8-6.1-1.2l-16.1-24.1c-1.4-2-0.8-4.8,1.2-6.1
		l4.1-2.7C345.8,58.3,348.6,58.9,349.9,60.9z"/>
	<path class="st3" d="M374.7,98.1l16.1,24.1c1.4,2,0.8,4.8-1.2,6.1l-4.1,2.7c-2,1.3-4.8,0.8-6.1-1.2l-16.1-24.1
		c-1.4-2-0.8-4.8,1.2-6.1l4.1-2.7C370.6,95.5,373.3,96,374.7,98.1z"/>
	<path class="st3" d="M367.1,49.5l40.8,61.3c1.4,2,0.8,4.8-1.2,6.1l-4.1,2.7c-2,1.4-4.8,0.8-6.1-1.2l-40.8-61.3
		c-1.4-2-0.8-4.8,1.2-6.1l4.1-2.7C363,46.9,365.7,47.4,367.1,49.5z"/>
	<path class="st3" d="M384.2,38l16.1,24.1c1.4,2,0.8,4.8-1.2,6.1L395,71c-2,1.3-4.8,0.8-6.1-1.2l-16.1-24.1c-1.4-2-0.8-4.8,1.2-6.1
		l4.1-2.7C380.1,35.4,382.9,36,384.2,38z"/>
	<path class="st3" d="M409,75.3l16,24.1c1.4,2,0.8,4.8-1.2,6.1l-4.1,2.7c-2,1.4-4.8,0.8-6.1-1.2l-16-24.1c-1.3-2-0.8-4.8,1.2-6.1
		l4.1-2.7C404.9,72.7,407.6,73.2,409,75.3z"/>
	<path class="st3" d="M132.7,205.7l40.8,61.2c1.4,2,0.8,4.8-1.2,6.1l-4.1,2.7c-2,1.4-4.8,0.8-6.1-1.2l-40.8-61.2
		c-1.4-2-0.8-4.8,1.2-6.1l4.1-2.7C128.6,203.1,131.4,203.7,132.7,205.7z"/>
	<path class="st3" d="M115.6,217.2l16,24c1.4,2,0.8,4.8-1.2,6.1l-4.1,2.7c-2,1.4-4.8,0.8-6.1-1.2l-16-24c-1.4-2-0.8-4.8,1.2-6.1
		l4.1-2.7C111.5,214.6,114.2,215.1,115.6,217.2z"/>
	<path class="st3" d="M140.4,254.3l16,24.1c1.4,2,0.8,4.8-1.2,6.1l-4.1,2.7c-2,1.4-4.8,0.8-6.1-1.2L128.9,262
		c-1.4-2-0.8-4.8,1.2-6.1l4.1-2.7C136.3,251.8,139,252.3,140.4,254.3z"/>
	<path class="st3" d="M98.4,228.6l40.8,61.2c1.4,2,0.8,4.8-1.2,6.1l-4.1,2.7c-2,1.4-4.8,0.8-6.1-1.2L87,236.2
		c-1.4-2-0.8-4.8,1.2-6.1l4.1-2.7C94.3,226,97.1,226.6,98.4,228.6z"/>
	<path class="st3" d="M121.3,122.2l40.8-61.3c1.4-2,4.1-2.6,6.1-1.2l4.1,2.7c2,1.4,2.6,4.1,1.2,6.1l-40.8,61.2
		c-1.4,2-4.1,2.6-6.1,1.2l-4.1-2.7C120.5,126.9,119.9,124.2,121.3,122.2z"/>
	<path class="st3" d="M104.1,110.7L145,49.5c1.4-2,4.1-2.6,6.1-1.2l4.1,2.7c2,1.4,2.6,4.1,1.2,6.1l-40.8,61.3
		c-1.4,2-4.1,2.6-6.1,1.2l-4.1-2.7C103.3,115.5,102.8,112.8,104.1,110.7z"/>
	<path class="st3" d="M87,99.4L127.8,38c1.4-2,4.1-2.6,6.1-1.2l4.1,2.7c2,1.4,2.6,4.1,1.2,6.1L98.4,107c-1.4,2-4.1,2.6-6.1,1.2
		l-4.1-2.7C86.2,104.1,85.6,101.4,87,99.4z"/>
	<path class="st3" d="M338.5,266.9l16-24c1.4-2,4.1-2.6,6.1-1.2l4.1,2.7c2,1.4,2.6,4.1,1.2,6.1l-16,24c-1.4,2-4.1,2.6-6.1,1.2
		l-4.1-2.7C337.7,271.7,337.1,268.9,338.5,266.9z"/>
	<path class="st3" d="M363.2,229.9l16.1-24.2c1.4-2,4.1-2.6,6.1-1.2l4.1,2.7c2,1.4,2.6,4.1,1.2,6.1l-16.1,24.1
		c-1.4,2-4.1,2.6-6.1,1.2l-4.1-2.7C362.4,234.6,361.9,231.9,363.2,229.9z"/>
	<path class="st3" d="M355.6,278.4l16.1-24.1c1.4-2,4.1-2.6,6.1-1.2l4.1,2.7c2,1.4,2.6,4.1,1.2,6.1l-16,24.1c-1.4,2-4.1,2.6-6.1,1.2
		l-4.1-2.7C354.8,283.2,354.3,280.5,355.6,278.4z"/>
	<path class="st3" d="M380.4,241.2l16.1-24c1.4-2,4.1-2.6,6.1-1.2l4.1,2.7c2,1.4,2.6,4.1,1.2,6.1l-16.1,24c-1.4,2-4.1,2.6-6.1,1.2
		l-4.1-2.7C379.6,246,379,243.2,380.4,241.2z"/>
	<path class="st3" d="M372.8,289.8l16.1-24.1c1.4-2,4.1-2.6,6.1-1.2l4.1,2.7c2,1.3,2.6,4.1,1.2,6.1l-16.1,24.1
		c-1.4,2-4.1,2.6-6.1,1.2l-4.1-2.7C372,294.6,371.4,291.8,372.8,289.8z"/>
	<path class="st3" d="M397.6,252.7l16-24.1c1.4-2,4.1-2.6,6.1-1.2l4.1,2.7c2,1.4,2.6,4.1,1.2,6.1l-16,24.1c-1.3,2-4.1,2.6-6.1,1.2
		l-4.1-2.7C396.8,257.5,396.2,254.7,397.6,252.7z"/>
</g>
</svg>
