<?xml version="1.0" encoding="iso-8859-1"?>
<!-- Generator: Adobe Illustrator 21.1.0, SVG Export Plug-In . SVG Version: 6.00 Build 0)  -->
<svg version="1.1" xmlns="http://www.w3.org/2000/svg" xmlns:xlink="http://www.w3.org/1999/xlink" x="0px" y="0px"
	 viewBox="0 0 297.137 255.416" style="enable-background:new 0 0 297.137 255.416;" xml:space="preserve">
<g id="_x31_6">
	<polygon style="fill-rule:evenodd;clip-rule:evenodd;fill:#FBC839;" points="147.118,0 154.806,6.156 163.131,0.991 170.466,8.608 
		180.135,4.34 185.938,12.311 195.417,9.505 200.488,18.726 210.889,17.099 214.521,26.344 224.284,26.06 226.902,36.296 
		237.398,37.452 238.411,47.239 247.986,49.503 247.822,60.069 257.68,63.89 256.123,73.559 264.826,78.252 261.925,88.394 
		270.415,94.644 266.43,103.7 273.599,110.374 268.151,119.43 274.778,127.661 268.623,135.35 273.764,143.77 266.171,151.104 
		270.415,160.773 262.467,166.552 265.274,175.962 256.029,181.127 257.68,191.527 248.529,195.064 248.718,204.923 
		238.483,207.446 237.398,217.941 227.634,219.026 225.275,228.625 214.78,228.436 210.889,238.224 201.22,236.762 196.526,245.37 
		186.361,242.47 180.135,250.982 171.173,247.092 164.381,254.237 155.349,248.719 147.118,255.416 139.429,249.167 
		131.009,254.308 123.675,246.715 114.1,250.982 108.227,243.105 98.793,245.913 93.723,236.667 83.228,238.224 79.714,229.073 
		69.856,229.356 67.309,219.143 56.814,217.941 55.729,208.178 46.153,205.913 46.318,195.348 36.555,191.527 37.993,181.764 
		29.409,177.142 32.31,167.023 23.795,160.773 27.781,151.718 20.635,144.948 26.06,135.893 19.456,127.661 25.611,120.067 
		20.47,111.648 28.041,104.313 23.795,94.644 31.673,88.842 28.866,79.432 38.182,74.29 36.555,63.89 45.682,60.258 45.422,50.494 
		55.634,47.947 56.814,37.452 66.577,36.367 68.865,26.792 79.431,26.98 83.228,17.099 93.015,18.631 97.614,9.953 107.85,12.854 
		114.1,4.34 123.061,8.325 129.83,1.18 138.886,6.603 	"/>
	<polygon style="fill-rule:evenodd;clip-rule:evenodd;fill:#F12737;" points="0,152.467 297.137,152.467 277.397,209.47 
		19.764,209.47 	"/>
	<polygon style="fill-rule:evenodd;clip-rule:evenodd;fill:#B51D29;" points="-1.463,152.613 27.404,152.613 27.781,151.718 
		20.635,144.948 	"/>
	<polygon style="fill-rule:evenodd;clip-rule:evenodd;fill:#B51D29;" points="273.764,143.77 295.674,152.613 266.83,152.613 
		266.171,151.104 	"/>
</g>
<g id="Layer_1">
	<g>
		<path style="fill:#666666;" d="M84.174,116.513h-21.6v-9.18h21.6V116.513z"/>
		<path style="fill:#666666;" d="M133.222,80.064h-26.009l-0.63,13.77c1.979-0.54,5.22-0.81,7.47-0.81
			c12.509,0,21.959,7.29,21.959,20.159c0,14.129-10.53,22.5-23.22,22.5c-10.619,0-18.179-5.4-21.509-13.95l9.81-3.6
			c1.8,5.04,6.3,8.37,11.97,8.37c6.39,0,11.88-4.41,11.88-12.149c0-9.81-7.29-12.689-14.22-12.689c-4.86,0-10.979,1.53-14.85,3.51
			l1.08-34.829h36.269V80.064z"/>
		<path style="fill:#666666;" d="M163.011,69.265c9.27,0,16.739,7.47,16.739,16.739s-7.47,16.739-16.739,16.739
			s-16.739-7.47-16.739-16.739S153.741,69.265,163.011,69.265z M163.011,77.904c-4.499,0-8.1,3.6-8.1,8.1c0,4.5,3.601,8.1,8.1,8.1
			c4.5,0,8.1-3.6,8.1-8.1C171.11,81.504,167.511,77.904,163.011,77.904z M199.46,67.465l7.47,3.42l-37.438,66.058l-7.47-3.42
			L199.46,67.465z M206.029,101.664c9.27,0,16.739,7.469,16.739,16.739c0,9.27-7.47,16.74-16.739,16.74s-16.739-7.47-16.739-16.74
			C189.29,109.133,196.76,101.664,206.029,101.664z M206.029,110.303c-4.5,0-8.1,3.6-8.1,8.1c0,4.5,3.6,8.1,8.1,8.1s8.1-3.6,8.1-8.1
			C214.129,113.903,210.529,110.303,206.029,110.303z"/>
	</g>
	<g>
		<path style="fill:#FFFFFF;" d="M82.174,114.513h-21.6v-9.18h21.6V114.513z"/>
		<path style="fill:#FFFFFF;" d="M131.222,78.064h-26.009l-0.63,13.77c1.979-0.54,5.22-0.81,7.47-0.81
			c12.509,0,21.959,7.29,21.959,20.159c0,14.129-10.53,22.5-23.22,22.5c-10.619,0-18.179-5.4-21.509-13.95l9.81-3.6
			c1.8,5.04,6.3,8.37,11.97,8.37c6.39,0,11.88-4.41,11.88-12.149c0-9.81-7.29-12.689-14.22-12.689c-4.86,0-10.979,1.53-14.85,3.51
			l1.08-34.829h36.269V78.064z"/>
		<path style="fill:#FFFFFF;" d="M161.011,67.265c9.27,0,16.739,7.47,16.739,16.739s-7.47,16.739-16.739,16.739
			s-16.739-7.47-16.739-16.739S151.741,67.265,161.011,67.265z M161.011,75.904c-4.499,0-8.1,3.6-8.1,8.1c0,4.5,3.601,8.1,8.1,8.1
			c4.5,0,8.1-3.6,8.1-8.1C169.11,79.504,165.511,75.904,161.011,75.904z M197.46,65.465l7.47,3.42l-37.438,66.058l-7.47-3.42
			L197.46,65.465z M204.029,99.664c9.27,0,16.739,7.469,16.739,16.739c0,9.27-7.47,16.74-16.739,16.74s-16.739-7.47-16.739-16.74
			C187.29,107.133,194.76,99.664,204.029,99.664z M204.029,108.303c-4.5,0-8.1,3.6-8.1,8.1c0,4.5,3.6,8.1,8.1,8.1s8.1-3.6,8.1-8.1
			C212.129,111.903,208.529,108.303,204.029,108.303z"/>
	</g>
	<g>
		<path style="fill:#4D4D4D;" d="M55.319,180.594c0,1.399-0.242,2.679-0.726,3.837c-0.483,1.159-1.154,2.15-2.013,2.976
			s-1.879,1.462-3.063,1.912s-2.467,0.675-3.85,0.675c-1.384,0-2.662-0.225-3.838-0.675c-1.175-0.45-2.191-1.087-3.05-1.912
			s-1.529-1.816-2.013-2.976c-0.483-1.158-0.725-2.438-0.725-3.837c0-1.417,0.241-2.696,0.725-3.838s1.154-2.112,2.013-2.912
			s1.875-1.417,3.05-1.851c1.176-0.433,2.454-0.649,3.838-0.649c1.383,0,2.666,0.217,3.85,0.649
			c1.184,0.434,2.204,1.051,3.063,1.851s1.529,1.771,2.013,2.912S55.319,179.177,55.319,180.594z M50.744,180.594
			c0-0.767-0.125-1.483-0.375-2.15c-0.25-0.666-0.597-1.237-1.038-1.712c-0.441-0.476-0.975-0.851-1.6-1.125
			c-0.625-0.275-1.313-0.413-2.063-0.413s-1.434,0.138-2.05,0.413c-0.617,0.274-1.15,0.649-1.601,1.125
			c-0.449,0.475-0.796,1.046-1.037,1.712c-0.242,0.667-0.362,1.384-0.362,2.15c0,0.8,0.125,1.537,0.375,2.212
			c0.25,0.676,0.596,1.255,1.037,1.738s0.971,0.862,1.588,1.137c0.616,0.275,1.3,0.413,2.05,0.413s1.434-0.138,2.05-0.413
			c0.616-0.274,1.15-0.653,1.601-1.137c0.449-0.483,0.8-1.063,1.05-1.738C50.619,182.131,50.744,181.394,50.744,180.594z"/>
		<path style="fill:#4D4D4D;" d="M66.619,189.519h-4.274l-6.7-17.7h4.8l4.101,12.55h0.1l4.075-12.55h4.725L66.619,189.519z"/>
		<path style="fill:#4D4D4D;" d="M74.895,189.519v-17.7h11.899v3.601H79.02v3.35h7.35v3.425h-7.35v3.675h8.225v3.65H74.895z"/>
		<path style="fill:#4D4D4D;" d="M99.544,189.519l-3.843-7.025h-1.457v7.025h-4.175v-17.7h6.75c0.85,0,1.679,0.088,2.487,0.263
			s1.533,0.471,2.175,0.888s1.154,0.967,1.538,1.649c0.383,0.684,0.574,1.534,0.574,2.551c0,1.199-0.324,2.208-0.975,3.024
			c-0.65,0.817-1.55,1.4-2.7,1.75l4.625,7.575H99.544z M99.369,177.243c0-0.416-0.088-0.754-0.264-1.012
			c-0.176-0.259-0.402-0.459-0.679-0.601s-0.586-0.237-0.93-0.287c-0.343-0.05-0.674-0.075-0.992-0.075h-2.286v4.125h2.035
			c0.352,0,0.712-0.029,1.08-0.088c0.369-0.058,0.703-0.162,1.005-0.313c0.302-0.149,0.549-0.366,0.741-0.649
			S99.369,177.693,99.369,177.243z"/>
		<path style="fill:#4D4D4D;" d="M118.145,189.519v-13l-3.3,2.55l-2.176-2.975l5.823-4.275h3.827v17.7H118.145z"/>
		<path style="fill:#4D4D4D;" d="M142.219,180.618c0,1.25-0.125,2.442-0.375,3.575c-0.25,1.134-0.65,2.13-1.2,2.987
			c-0.55,0.859-1.263,1.542-2.138,2.051c-0.875,0.508-1.938,0.762-3.188,0.762s-2.316-0.254-3.199-0.762
			c-0.884-0.509-1.604-1.191-2.163-2.051c-0.559-0.857-0.962-1.854-1.212-2.987c-0.25-1.133-0.375-2.325-0.375-3.575
			s0.125-2.438,0.375-3.563s0.653-2.107,1.212-2.949s1.279-1.513,2.163-2.013c0.883-0.5,1.949-0.75,3.199-0.75
			s2.313,0.25,3.188,0.75s1.588,1.171,2.138,2.013s0.95,1.824,1.2,2.949S142.219,179.368,142.219,180.618z M137.919,180.618
			c0-0.55-0.034-1.158-0.101-1.824c-0.066-0.667-0.191-1.288-0.375-1.863c-0.184-0.574-0.445-1.058-0.787-1.449
			s-0.787-0.588-1.338-0.588c-0.55,0-1,0.196-1.35,0.588s-0.621,0.875-0.813,1.449c-0.191,0.575-0.321,1.196-0.388,1.863
			c-0.066,0.666-0.1,1.274-0.1,1.824c0,0.567,0.033,1.188,0.1,1.863c0.066,0.675,0.196,1.3,0.388,1.875
			c0.191,0.574,0.463,1.059,0.813,1.449c0.35,0.393,0.8,0.588,1.35,0.588c0.551,0,0.996-0.195,1.338-0.588
			c0.342-0.391,0.604-0.875,0.787-1.449c0.184-0.575,0.309-1.2,0.375-1.875C137.885,181.806,137.919,181.186,137.919,180.618z"/>
		<path style="fill:#4D4D4D;" d="M155.994,189.519l-6.575-8.15h-0.05v8.15h-4.175v-17.7h4.175v7.2h0.075l6.325-7.2h5.35l-7.625,8.15
			l8.075,9.55H155.994z"/>
		<path style="fill:#4D4D4D;" d="M187.37,189.519h-4.226l-3.5-11.975h-0.074l-3.5,11.975h-4.25l-5.025-17.7h4.6l2.801,11.775h0.074
			l3.15-11.775h4.45l3.175,11.775h0.075l2.85-11.775h4.45L187.37,189.519z"/>
		<path style="fill:#4D4D4D;" d="M212.396,180.594c0,1.399-0.242,2.679-0.726,3.837c-0.483,1.159-1.154,2.15-2.013,2.976
			s-1.879,1.462-3.063,1.912s-2.467,0.675-3.85,0.675c-1.384,0-2.662-0.225-3.838-0.675c-1.175-0.45-2.191-1.087-3.05-1.912
			s-1.529-1.816-2.013-2.976c-0.483-1.158-0.725-2.438-0.725-3.837c0-1.417,0.241-2.696,0.725-3.838s1.154-2.112,2.013-2.912
			s1.875-1.417,3.05-1.851c1.176-0.433,2.454-0.649,3.838-0.649c1.383,0,2.666,0.217,3.85,0.649
			c1.184,0.434,2.204,1.051,3.063,1.851s1.529,1.771,2.013,2.912S212.396,179.177,212.396,180.594z M207.82,180.594
			c0-0.767-0.125-1.483-0.375-2.15c-0.25-0.666-0.597-1.237-1.038-1.712c-0.441-0.476-0.975-0.851-1.6-1.125
			c-0.625-0.275-1.313-0.413-2.063-0.413s-1.434,0.138-2.05,0.413c-0.617,0.274-1.15,0.649-1.601,1.125
			c-0.449,0.475-0.796,1.046-1.037,1.712c-0.242,0.667-0.362,1.384-0.362,2.15c0,0.8,0.125,1.537,0.375,2.212
			c0.25,0.676,0.596,1.255,1.037,1.738s0.971,0.862,1.588,1.137c0.616,0.275,1.3,0.413,2.05,0.413s1.434-0.138,2.05-0.413
			c0.616-0.274,1.15-0.653,1.601-1.137c0.449-0.483,0.8-1.063,1.05-1.738C207.695,182.131,207.82,181.394,207.82,180.594z"/>
		<path style="fill:#4D4D4D;" d="M224.695,189.519l-3.843-7.025h-1.457v7.025h-4.175v-17.7h6.75c0.85,0,1.679,0.088,2.487,0.263
			s1.533,0.471,2.175,0.888s1.154,0.967,1.538,1.649c0.383,0.684,0.574,1.534,0.574,2.551c0,1.199-0.324,2.208-0.975,3.024
			c-0.65,0.817-1.55,1.4-2.7,1.75l4.625,7.575H224.695z M224.521,177.243c0-0.416-0.088-0.754-0.264-1.012
			c-0.176-0.259-0.402-0.459-0.679-0.601s-0.586-0.237-0.93-0.287c-0.343-0.05-0.674-0.075-0.992-0.075h-2.286v4.125h2.035
			c0.352,0,0.712-0.029,1.08-0.088c0.369-0.058,0.703-0.162,1.005-0.313c0.302-0.149,0.549-0.366,0.741-0.649
			S224.521,177.693,224.521,177.243z"/>
		<path style="fill:#4D4D4D;" d="M248.32,180.618c0,1.551-0.287,2.888-0.862,4.013s-1.333,2.05-2.274,2.775
			c-0.942,0.725-2.005,1.259-3.188,1.6c-1.184,0.342-2.384,0.513-3.601,0.513h-6.6v-17.7h6.399c1.25,0,2.483,0.146,3.7,0.438
			c1.217,0.292,2.3,0.775,3.25,1.45s1.717,1.579,2.3,2.713C248.029,177.552,248.32,178.952,248.32,180.618z M243.871,180.618
			c0-1-0.163-1.828-0.488-2.487c-0.324-0.658-0.758-1.183-1.3-1.575c-0.542-0.391-1.158-0.67-1.85-0.837
			c-0.692-0.167-1.404-0.25-2.138-0.25h-2.125v10.35h2.025c0.766,0,1.504-0.087,2.212-0.263c0.708-0.175,1.333-0.462,1.875-0.862
			c0.542-0.399,0.976-0.933,1.3-1.6C243.708,182.427,243.871,181.603,243.871,180.618z"/>
		<path style="fill:#4D4D4D;" d="M260.495,176.419c-0.366-0.467-0.846-0.838-1.438-1.113c-0.592-0.274-1.162-0.412-1.712-0.412
			c-0.284,0-0.571,0.025-0.863,0.075c-0.291,0.05-0.554,0.146-0.787,0.287s-0.43,0.325-0.588,0.55
			c-0.158,0.226-0.237,0.513-0.237,0.863c0,0.3,0.063,0.55,0.188,0.75c0.125,0.199,0.309,0.375,0.55,0.524
			c0.242,0.15,0.529,0.288,0.863,0.413c0.333,0.125,0.708,0.254,1.125,0.387c0.6,0.2,1.225,0.422,1.875,0.663
			c0.649,0.241,1.241,0.563,1.774,0.962c0.533,0.4,0.976,0.896,1.325,1.488s0.525,1.329,0.525,2.212
			c0,1.017-0.188,1.896-0.563,2.638c-0.375,0.742-0.88,1.354-1.513,1.838c-0.634,0.483-1.358,0.842-2.175,1.074
			c-0.817,0.233-1.659,0.351-2.525,0.351c-1.267,0-2.492-0.222-3.675-0.663c-1.184-0.441-2.167-1.07-2.95-1.887l2.8-2.851
			c0.434,0.534,1.004,0.979,1.713,1.338c0.708,0.358,1.412,0.537,2.112,0.537c0.316,0,0.625-0.033,0.925-0.1
			s0.563-0.175,0.788-0.325c0.225-0.15,0.403-0.35,0.537-0.6c0.133-0.25,0.2-0.551,0.2-0.9c0-0.333-0.084-0.616-0.25-0.85
			c-0.167-0.233-0.404-0.446-0.713-0.638s-0.691-0.366-1.149-0.525c-0.459-0.158-0.979-0.329-1.562-0.513
			c-0.567-0.183-1.121-0.399-1.663-0.649s-1.024-0.571-1.45-0.963c-0.425-0.392-0.767-0.866-1.024-1.425
			c-0.259-0.559-0.388-1.237-0.388-2.037c0-0.983,0.2-1.825,0.6-2.525c0.4-0.7,0.926-1.275,1.575-1.725
			c0.65-0.45,1.384-0.779,2.2-0.988c0.816-0.208,1.642-0.313,2.475-0.313c1,0,2.021,0.184,3.063,0.551
			c1.042,0.366,1.954,0.908,2.738,1.625L260.495,176.419z"/>
	</g>
	<g>
		<path style="fill:#FFFFFF;" d="M54.319,179.594c0,1.399-0.242,2.679-0.726,3.837c-0.483,1.159-1.154,2.15-2.013,2.976
			s-1.879,1.462-3.063,1.912s-2.467,0.675-3.85,0.675c-1.384,0-2.662-0.225-3.838-0.675c-1.175-0.45-2.191-1.087-3.05-1.912
			s-1.529-1.816-2.013-2.976c-0.483-1.158-0.725-2.438-0.725-3.837c0-1.417,0.241-2.696,0.725-3.838s1.154-2.112,2.013-2.912
			s1.875-1.417,3.05-1.851c1.176-0.433,2.454-0.649,3.838-0.649c1.383,0,2.666,0.217,3.85,0.649
			c1.184,0.434,2.204,1.051,3.063,1.851s1.529,1.771,2.013,2.912S54.319,178.177,54.319,179.594z M49.744,179.594
			c0-0.767-0.125-1.483-0.375-2.15c-0.25-0.666-0.597-1.237-1.038-1.712c-0.441-0.476-0.975-0.851-1.6-1.125
			c-0.625-0.275-1.313-0.413-2.063-0.413s-1.434,0.138-2.05,0.413c-0.617,0.274-1.15,0.649-1.601,1.125
			c-0.449,0.475-0.796,1.046-1.037,1.712c-0.242,0.667-0.362,1.384-0.362,2.15c0,0.8,0.125,1.537,0.375,2.212
			c0.25,0.676,0.596,1.255,1.037,1.738s0.971,0.862,1.588,1.137c0.616,0.275,1.3,0.413,2.05,0.413s1.434-0.138,2.05-0.413
			c0.616-0.274,1.15-0.653,1.601-1.137c0.449-0.483,0.8-1.063,1.05-1.738C49.619,181.131,49.744,180.394,49.744,179.594z"/>
		<path style="fill:#FFFFFF;" d="M65.619,188.519h-4.274l-6.7-17.7h4.8l4.101,12.55h0.1l4.075-12.55h4.725L65.619,188.519z"/>
		<path style="fill:#FFFFFF;" d="M73.895,188.519v-17.7h11.899v3.601H78.02v3.35h7.35v3.425h-7.35v3.675h8.225v3.65H73.895z"/>
		<path style="fill:#FFFFFF;" d="M98.544,188.519l-3.843-7.025h-1.457v7.025h-4.175v-17.7h6.75c0.85,0,1.679,0.088,2.487,0.263
			s1.533,0.471,2.175,0.888s1.154,0.967,1.538,1.649c0.383,0.684,0.574,1.534,0.574,2.551c0,1.199-0.324,2.208-0.975,3.024
			c-0.65,0.817-1.55,1.4-2.7,1.75l4.625,7.575H98.544z M98.369,176.243c0-0.416-0.088-0.754-0.264-1.012
			c-0.176-0.259-0.402-0.459-0.679-0.601s-0.586-0.237-0.93-0.287c-0.343-0.05-0.674-0.075-0.992-0.075h-2.286v4.125h2.035
			c0.352,0,0.712-0.029,1.08-0.088c0.369-0.058,0.703-0.162,1.005-0.313c0.302-0.149,0.549-0.366,0.741-0.649
			S98.369,176.693,98.369,176.243z"/>
		<path style="fill:#FFFFFF;" d="M117.145,188.519v-13l-3.3,2.55l-2.176-2.975l5.823-4.275h3.827v17.7H117.145z"/>
		<path style="fill:#FFFFFF;" d="M141.219,179.618c0,1.25-0.125,2.442-0.375,3.575c-0.25,1.134-0.65,2.13-1.2,2.987
			c-0.55,0.859-1.263,1.542-2.138,2.051c-0.875,0.508-1.938,0.762-3.188,0.762s-2.316-0.254-3.199-0.762
			c-0.884-0.509-1.604-1.191-2.163-2.051c-0.559-0.857-0.962-1.854-1.212-2.987c-0.25-1.133-0.375-2.325-0.375-3.575
			s0.125-2.438,0.375-3.563s0.653-2.107,1.212-2.949s1.279-1.513,2.163-2.013c0.883-0.5,1.949-0.75,3.199-0.75
			s2.313,0.25,3.188,0.75s1.588,1.171,2.138,2.013s0.95,1.824,1.2,2.949S141.219,178.368,141.219,179.618z M136.919,179.618
			c0-0.55-0.034-1.158-0.101-1.824c-0.066-0.667-0.191-1.288-0.375-1.863c-0.184-0.574-0.445-1.058-0.787-1.449
			s-0.787-0.588-1.338-0.588c-0.55,0-1,0.196-1.35,0.588s-0.621,0.875-0.813,1.449c-0.191,0.575-0.321,1.196-0.388,1.863
			c-0.066,0.666-0.1,1.274-0.1,1.824c0,0.567,0.033,1.188,0.1,1.863c0.066,0.675,0.196,1.3,0.388,1.875
			c0.191,0.574,0.463,1.059,0.813,1.449c0.35,0.393,0.8,0.588,1.35,0.588c0.551,0,0.996-0.195,1.338-0.588
			c0.342-0.391,0.604-0.875,0.787-1.449c0.184-0.575,0.309-1.2,0.375-1.875C136.885,180.806,136.919,180.186,136.919,179.618z"/>
		<path style="fill:#FFFFFF;" d="M154.994,188.519l-6.575-8.15h-0.05v8.15h-4.175v-17.7h4.175v7.2h0.075l6.325-7.2h5.35l-7.625,8.15
			l8.075,9.55H154.994z"/>
		<path style="fill:#FFFFFF;" d="M186.37,188.519h-4.226l-3.5-11.975h-0.074l-3.5,11.975h-4.25l-5.025-17.7h4.6l2.801,11.775h0.074
			l3.15-11.775h4.45l3.175,11.775h0.075l2.85-11.775h4.45L186.37,188.519z"/>
		<path style="fill:#FFFFFF;" d="M211.396,179.594c0,1.399-0.242,2.679-0.726,3.837c-0.483,1.159-1.154,2.15-2.013,2.976
			s-1.879,1.462-3.063,1.912s-2.467,0.675-3.85,0.675c-1.384,0-2.662-0.225-3.838-0.675c-1.175-0.45-2.191-1.087-3.05-1.912
			s-1.529-1.816-2.013-2.976c-0.483-1.158-0.725-2.438-0.725-3.837c0-1.417,0.241-2.696,0.725-3.838s1.154-2.112,2.013-2.912
			s1.875-1.417,3.05-1.851c1.176-0.433,2.454-0.649,3.838-0.649c1.383,0,2.666,0.217,3.85,0.649
			c1.184,0.434,2.204,1.051,3.063,1.851s1.529,1.771,2.013,2.912S211.396,178.177,211.396,179.594z M206.82,179.594
			c0-0.767-0.125-1.483-0.375-2.15c-0.25-0.666-0.597-1.237-1.038-1.712c-0.441-0.476-0.975-0.851-1.6-1.125
			c-0.625-0.275-1.313-0.413-2.063-0.413s-1.434,0.138-2.05,0.413c-0.617,0.274-1.15,0.649-1.601,1.125
			c-0.449,0.475-0.796,1.046-1.037,1.712c-0.242,0.667-0.362,1.384-0.362,2.15c0,0.8,0.125,1.537,0.375,2.212
			c0.25,0.676,0.596,1.255,1.037,1.738s0.971,0.862,1.588,1.137c0.616,0.275,1.3,0.413,2.05,0.413s1.434-0.138,2.05-0.413
			c0.616-0.274,1.15-0.653,1.601-1.137c0.449-0.483,0.8-1.063,1.05-1.738C206.695,181.131,206.82,180.394,206.82,179.594z"/>
		<path style="fill:#FFFFFF;" d="M223.695,188.519l-3.843-7.025h-1.457v7.025h-4.175v-17.7h6.75c0.85,0,1.679,0.088,2.487,0.263
			s1.533,0.471,2.175,0.888s1.154,0.967,1.538,1.649c0.383,0.684,0.574,1.534,0.574,2.551c0,1.199-0.324,2.208-0.975,3.024
			c-0.65,0.817-1.55,1.4-2.7,1.75l4.625,7.575H223.695z M223.521,176.243c0-0.416-0.088-0.754-0.264-1.012
			c-0.176-0.259-0.402-0.459-0.679-0.601s-0.586-0.237-0.93-0.287c-0.343-0.05-0.674-0.075-0.992-0.075h-2.286v4.125h2.035
			c0.352,0,0.712-0.029,1.08-0.088c0.369-0.058,0.703-0.162,1.005-0.313c0.302-0.149,0.549-0.366,0.741-0.649
			S223.521,176.693,223.521,176.243z"/>
		<path style="fill:#FFFFFF;" d="M247.32,179.618c0,1.551-0.287,2.888-0.862,4.013s-1.333,2.05-2.274,2.775
			c-0.942,0.725-2.005,1.259-3.188,1.6c-1.184,0.342-2.384,0.513-3.601,0.513h-6.6v-17.7h6.399c1.25,0,2.483,0.146,3.7,0.438
			c1.217,0.292,2.3,0.775,3.25,1.45s1.717,1.579,2.3,2.713C247.029,176.552,247.32,177.952,247.32,179.618z M242.871,179.618
			c0-1-0.163-1.828-0.488-2.487c-0.324-0.658-0.758-1.183-1.3-1.575c-0.542-0.391-1.158-0.67-1.85-0.837
			c-0.692-0.167-1.404-0.25-2.138-0.25h-2.125v10.35h2.025c0.766,0,1.504-0.087,2.212-0.263c0.708-0.175,1.333-0.462,1.875-0.862
			c0.542-0.399,0.976-0.933,1.3-1.6C242.708,181.427,242.871,180.603,242.871,179.618z"/>
		<path style="fill:#FFFFFF;" d="M259.495,175.419c-0.366-0.467-0.846-0.838-1.438-1.113c-0.592-0.274-1.162-0.412-1.712-0.412
			c-0.284,0-0.571,0.025-0.863,0.075c-0.291,0.05-0.554,0.146-0.787,0.287s-0.43,0.325-0.588,0.55
			c-0.158,0.226-0.237,0.513-0.237,0.863c0,0.3,0.063,0.55,0.188,0.75c0.125,0.199,0.309,0.375,0.55,0.524
			c0.242,0.15,0.529,0.288,0.863,0.413c0.333,0.125,0.708,0.254,1.125,0.387c0.6,0.2,1.225,0.422,1.875,0.663
			c0.649,0.241,1.241,0.563,1.774,0.962c0.533,0.4,0.976,0.896,1.325,1.488s0.525,1.329,0.525,2.212
			c0,1.017-0.188,1.896-0.563,2.638c-0.375,0.742-0.88,1.354-1.513,1.838c-0.634,0.483-1.358,0.842-2.175,1.074
			c-0.817,0.233-1.659,0.351-2.525,0.351c-1.267,0-2.492-0.222-3.675-0.663c-1.184-0.441-2.167-1.07-2.95-1.887l2.8-2.851
			c0.434,0.534,1.004,0.979,1.713,1.338c0.708,0.358,1.412,0.537,2.112,0.537c0.316,0,0.625-0.033,0.925-0.1
			c0.3-0.066,0.563-0.175,0.788-0.325c0.225-0.15,0.403-0.35,0.537-0.6c0.133-0.25,0.2-0.551,0.2-0.9c0-0.333-0.084-0.616-0.25-0.85
			c-0.167-0.233-0.404-0.446-0.713-0.638s-0.691-0.366-1.149-0.525c-0.459-0.158-0.979-0.329-1.563-0.513
			c-0.567-0.183-1.121-0.399-1.663-0.649s-1.024-0.571-1.45-0.963c-0.425-0.392-0.767-0.866-1.024-1.425
			c-0.259-0.559-0.388-1.237-0.388-2.037c0-0.983,0.2-1.825,0.6-2.525c0.4-0.7,0.926-1.275,1.575-1.725
			c0.65-0.45,1.384-0.779,2.2-0.988c0.816-0.208,1.642-0.313,2.475-0.313c1,0,2.021,0.184,3.063,0.551
			c1.042,0.366,1.954,0.908,2.738,1.625L259.495,175.419z"/>
	</g>
</g>
</svg>
