<?xml version="1.0" encoding="utf-8"?>
<!-- Generator: Adobe Illustrator 19.2.1, SVG Export Plug-In . SVG Version: 6.00 Build 0)  -->
<svg version="1.1" id="Слой_1" xmlns="http://www.w3.org/2000/svg" xmlns:xlink="http://www.w3.org/1999/xlink" x="0px" y="0px"
	 width="281px" height="32px" viewBox="0 0 281 32" style="enable-background:new 0 0 281 32;" xml:space="preserve">
<g>
	<g>
		<path style="fill:#F6A720;" d="M53.3,20.9c-1.1,0.5-2.4,0.9-4.1,0.9c-3.5,0-6-2.4-6-5.8c0-3.5,2.6-5.7,6-5.7
			c1.7,0,3.3,0.6,4.2,1.4L51.9,13c-0.6-0.6-1.6-1.1-2.8-1.1c-2.3,0-3.8,1.8-3.8,4c0,2.3,1.5,4.1,3.9,4.1c0.8,0,1.6-0.1,2.2-0.4v-2.8
			h-2.3v-1.6h4.2V20.9z"/>
		<path style="fill:#F6A720;" d="M55.7,10.4h2v9.3h4.7v1.7h-6.6L55.7,10.4L55.7,10.4z"/>
		<path style="fill:#F6A720;" d="M69,10.2c3.4,0,5.9,2.2,5.9,5.7c0,3.4-2.5,5.8-5.9,5.8c-3.4,0-5.9-2.4-5.9-5.8
			C63.1,12.4,65.6,10.2,69,10.2z M69,20c2.3,0,3.8-1.7,3.8-4.1c0-2.3-1.5-4-3.8-4c-2.3,0-3.8,1.8-3.8,4C65.2,18.3,66.8,20,69,20z"/>
		<path style="fill:#F6A720;" d="M76.8,10.4h4.3c1.7,0,3.4,0.8,3.4,2.8c0,1.2-0.8,2.1-1.9,2.4v0c1.4,0.2,2.4,1.1,2.4,2.6
			c0,2.4-2.1,3.2-4.2,3.2h-4L76.8,10.4L76.8,10.4z M78.8,14.9h1.7c1.3,0,2-0.5,2-1.5c0-1-0.7-1.4-2.2-1.4h-1.6
			C78.8,12.1,78.8,14.9,78.8,14.9z M78.8,19.8h1.8c1,0,2.5-0.2,2.5-1.6c0-1.1-0.8-1.6-2.4-1.6h-1.8L78.8,19.8L78.8,19.8z"/>
		<path style="fill:#F6A720;" d="M90.3,10.4H92l4.7,11h-2.2l-1-2.5h-4.8l-1,2.5h-2.2L90.3,10.4z M92.8,17.2l-1.7-4.5l-1.7,4.5H92.8z
			"/>
		<path style="fill:#F6A720;" d="M97.8,10.4h2v9.3h4.7v1.7h-6.6C97.8,21.4,97.8,10.4,97.8,10.4z"/>
		<path style="fill:#F6A720;" d="M111.1,10.4h2v9.3h4.7v1.7h-6.6L111.1,10.4L111.1,10.4z"/>
		<path style="fill:#F6A720;" d="M122.5,10.4h1.7l4.7,11h-2.2l-1-2.5h-4.8l-1,2.5h-2.2L122.5,10.4z M124.9,17.2l-1.7-4.5l-1.7,4.5
			H124.9z"/>
		<path style="fill:#F6A720;" d="M130,10.4h2.6l5.1,8.2h0v-8.2h2v11h-2.5l-5.2-8.5h0v8.5h-2V10.4z"/>
		<path style="fill:#F6A720;" d="M151.7,20.9c-1.1,0.5-2.4,0.9-4.1,0.9c-3.5,0-6-2.4-6-5.8c0-3.5,2.6-5.7,6-5.7
			c1.7,0,3.3,0.6,4.2,1.4l-1.4,1.5c-0.6-0.6-1.6-1.1-2.8-1.1c-2.3,0-3.8,1.8-3.8,4c0,2.3,1.5,4.1,3.9,4.1c0.8,0,1.6-0.1,2.2-0.4
			v-2.8h-2.3v-1.6h4.2V20.9z"/>
		<path style="fill:#F6A720;" d="M162.9,17.4c0,2.7-1.9,4.3-4.4,4.3c-2.5,0-4.4-1.7-4.4-4.3v-7h2v6.9c0,1.3,0.6,2.6,2.5,2.6
			c1.9,0,2.5-1.4,2.5-2.6v-6.9h2V17.4z"/>
		<path style="fill:#F6A720;" d="M168.7,10.4h1.7l4.7,11h-2.2l-1-2.5h-4.8l-1,2.5h-2.2L168.7,10.4z M171.1,17.2l-1.7-4.5l-1.7,4.5
			H171.1z"/>
		<path style="fill:#F6A720;" d="M185.8,20.9c-1.1,0.5-2.4,0.9-4.1,0.9c-3.5,0-6-2.4-6-5.8c0-3.5,2.6-5.7,6-5.7
			c1.7,0,3.3,0.6,4.2,1.4l-1.3,1.5c-0.6-0.6-1.6-1.1-2.8-1.1c-2.3,0-3.8,1.8-3.8,4c0,2.3,1.5,4.1,3.9,4.1c0.8,0,1.6-0.1,2.2-0.4
			v-2.8h-2.3v-1.6h4.2C185.8,15.2,185.8,20.9,185.8,20.9z"/>
		<path style="fill:#F6A720;" d="M188.2,10.4h7.3v1.7h-5.3v2.8h5v1.6h-5v3.1h5.6v1.7h-7.6V10.4z"/>
		<path style="fill:#F6A720;" d="M209.1,12.9c-0.4-0.5-1.2-0.9-2-0.9c-0.9,0-1.9,0.4-1.9,1.5c0,1,0.9,1.3,2.1,1.7
			c1.4,0.4,3.2,1.1,3.2,3.2c0,2.4-1.8,3.5-4,3.5c-1.4,0-2.9-0.5-3.8-1.6L204,19c0.5,0.7,1.5,1.2,2.4,1.2c0.9,0,2-0.5,2-1.6
			c0-1.2-1.1-1.5-2.5-1.9c-1.3-0.4-2.8-1.1-2.8-3.1c0-2.2,2-3.2,4-3.2c1.1,0,2.4,0.4,3.2,1.2L209.1,12.9z"/>
		<path style="fill:#F6A720;" d="M217.7,10.3c3.4,0,5.9,2.2,5.9,5.7c0,3.4-2.5,5.8-5.9,5.8c-3.4,0-5.9-2.4-5.9-5.8
			C211.9,12.5,214.4,10.3,217.7,10.3z M217.8,20.1c2.3,0,3.8-1.7,3.8-4.1c0-2.3-1.5-4-3.8-4c-2.3,0-3.8,1.8-3.8,4
			C214,18.4,215.5,20.1,217.8,20.1z"/>
		<path style="fill:#F6A720;" d="M225.6,10.6h2v9.3h4.7v1.7h-6.6L225.6,10.6L225.6,10.6z"/>
		<path style="fill:#F6A720;" d="M242.3,17.5c0,2.7-1.9,4.3-4.4,4.3s-4.4-1.7-4.4-4.3v-7h2v6.9c0,1.3,0.6,2.6,2.5,2.6
			c1.9,0,2.5-1.4,2.5-2.6v-6.9h2V17.5z"/>
		<path style="fill:#F6A720;" d="M246.8,12.3h-3.4v-1.7h8.7v1.7h-3.4v9.3h-2L246.8,12.3L246.8,12.3z"/>
		<path style="fill:#F6A720;" d="M253.4,10.6h2v11h-2V10.6z"/>
		<path style="fill:#F6A720;" d="M263.2,10.3c3.4,0,5.9,2.2,5.9,5.7c0,3.4-2.5,5.8-5.9,5.8c-3.4,0-5.9-2.4-5.9-5.8
			C257.3,12.5,259.8,10.3,263.2,10.3z M263.2,20.1c2.3,0,3.8-1.7,3.8-4.1c0-2.3-1.5-4-3.8-4c-2.3,0-3.8,1.8-3.8,4
			C259.4,18.4,261,20.1,263.2,20.1z"/>
		<path style="fill:#F6A720;" d="M271,10.6h2.6l5.1,8.2h0v-8.2h2v11h-2.5l-5.2-8.5h0v8.5h-2C271,21.6,271,10.6,271,10.6z"/>
	</g>
</g>
<g>
	<g>
		<path style="fill:#F6A720;" d="M12.6,12.7C12.7,12.7,12.7,12.7,12.6,12.7C12.7,12.7,12.7,12.7,12.6,12.7c0.1-0.1,0.1-0.1,0.1,0
			c0-0.1,0.1-0.1,0.1-0.1C12.7,12.4,12.7,12.7,12.6,12.7z"/>
		<path style="fill:#F6A720;" d="M15.9,5.8C10.2,5.8,5.6,10.3,5.6,16c0,5.7,4.6,10.2,10.2,10.2c5.7,0,10.2-4.6,10.2-10.2
			C26.1,10.3,21.5,5.8,15.9,5.8z M22.9,14c0,0,0.2,0.2,0,0.2C22.9,14.3,22.9,14.1,22.9,14C22.9,14.1,22.9,14,22.9,14z M22.6,14.5
			C22.6,14.5,22.5,14.6,22.6,14.5C22.5,14.5,22.6,14.5,22.6,14.5z M22.5,14.6C22.5,14.6,22.5,14.6,22.5,14.6
			C22.5,14.6,22.5,14.6,22.5,14.6C22.5,14.6,22.5,14.6,22.5,14.6z M22.4,14.5C22.4,14.5,22.4,14.5,22.4,14.5
			C22.4,14.5,22.4,14.5,22.4,14.5C22.4,14.5,22.4,14.5,22.4,14.5C22.4,14.5,22.4,14.5,22.4,14.5z M21.2,13.6
			C21.2,13.6,21.2,13.6,21.2,13.6C21.2,13.7,21.2,13.7,21.2,13.6c0.1,0,0.2,0.1,0.2,0.1c0,0.1-0.1,0.1-0.1,0.1c0,0-0.1,0-0.1,0
			c0,0,0,0-0.1,0c0,0,0-0.1,0.1-0.1C21.2,13.8,21.2,13.7,21.2,13.6z M20.8,13.5C20.8,13.5,20.9,13.4,20.8,13.5
			c0.1-0.1,0.2,0,0.1,0.1c0.1,0,0.1,0,0.1,0.1c0,0,0,0,0,0c0,0,0,0.2-0.1,0.1c0,0-0.1,0-0.1,0c0,0,0,0,0,0c0,0,0,0,0,0c0,0,0,0,0,0
			c0,0,0.1-0.1,0.1-0.1C20.9,13.6,20.9,13.6,20.8,13.5C20.9,13.6,20.8,13.5,20.8,13.5C20.8,13.5,20.8,13.5,20.8,13.5z M21,14.1
			C21,14.1,21,14.1,21,14.1C20.9,14.1,20.9,14.1,21,14.1C21,14.1,21,14.1,21,14.1z M20.8,13.6C20.8,13.6,20.8,13.6,20.8,13.6
			C20.7,13.6,20.7,13.7,20.8,13.6C20.7,13.6,20.8,13.6,20.8,13.6z M20.7,13.4C20.7,13.4,20.7,13.4,20.7,13.4
			C20.7,13.4,20.7,13.4,20.7,13.4C20.7,13.4,20.7,13.4,20.7,13.4z M20.1,14.4C20.1,14.4,20.1,14.4,20.1,14.4
			C20.1,14.5,20.1,14.5,20.1,14.4C20.1,14.4,20.1,14.4,20.1,14.4z M20,14.5C20,14.5,20,14.6,20,14.5C20,14.5,20,14.5,20,14.5z
			 M19.6,14.3C19.6,14.3,19.6,14.3,19.6,14.3C19.7,14.4,19.6,14.4,19.6,14.3C19.6,14.4,19.6,14.4,19.6,14.3z M19.3,13.2
			c0,0,0.1,0,0.1,0C19.4,13.3,19.3,13.4,19.3,13.2C19.3,13.3,19.3,13.3,19.3,13.2z M19.2,13.2C19.2,13.2,19.3,13.3,19.2,13.2
			C19.2,13.3,19.2,13.3,19.2,13.2c0,0.1,0,0.1,0,0.1c0,0,0,0-0.1,0C19.1,13.3,19.2,13.3,19.2,13.2z M19.1,13
			C19.1,13,19.1,13,19.1,13C19.1,13,19.1,13,19.1,13C19.1,13,19.1,13,19.1,13z M19,13.2C19,13.2,19,13.2,19,13.2
			C19,13.1,19,13.2,19,13.2C19,13.1,19,13.1,19,13.2C19.1,13.2,19.1,13.2,19,13.2C19,13.1,19,13.1,19,13.2C19,13.1,19,13.2,19,13.2
			C19,13.2,19,13.2,19,13.2z M19,13.3C19,13.3,19,13.3,19,13.3C19,13.4,19,13.3,19,13.3z M19.1,13.2C19.1,13.2,19.1,13.2,19.1,13.2
			C19.1,13.2,19.1,13.1,19.1,13.2z M19,13.3C19.2,13.3,19,13.4,19,13.3L19,13.3z M19.1,13.4C19.1,13.4,19.1,13.4,19.1,13.4
			C19.1,13.4,19.1,13.4,19.1,13.4C19.1,13.4,19.1,13.4,19.1,13.4z M19.1,13C19.1,13,19.1,13,19.1,13C19.1,13,19.1,13.1,19.1,13
			C19.1,13,19,13,19.1,13z M19,13C19,13,19,13,19,13C19,13.1,18.9,13.1,19,13C19,13,19,13.1,19,13z M18.9,13.1
			C18.9,13.2,18.9,13.2,18.9,13.1C19,13.2,18.9,13.2,18.9,13.1C18.9,13.2,18.9,13.2,18.9,13.1z M18.8,13.3
			C18.9,13.3,18.8,13.3,18.8,13.3L18.8,13.3z M18.8,14.1C18.8,14,18.8,14,18.8,14.1C18.8,14,18.8,14,18.8,14.1
			c0.1-0.1,0.1-0.1,0.1-0.1c0,0,0.3,0,0.3-0.1c0,0,0,0,0,0c0-0.1,0.1,0,0.1,0c0.1,0,0.1,0,0.2-0.1c0,0,0,0,0.1,0c0,0,0,0.1,0,0.1
			c0,0.1-0.2,0-0.2,0.1c-0.1,0-0.1,0-0.2,0.1c0,0-0.1,0-0.1,0c0,0,0,0-0.1,0.1c0,0,0,0,0,0c0,0.1,0,0,0,0.1
			C18.9,14.2,18.9,14.2,18.8,14.1c0.1,0.2,0.1,0.2,0,0.1c0,0,0,0-0.1,0c0,0,0.1,0,0.1,0.1c-0.1,0.1-0.1,0.3,0,0.3c0,0,0,0-0.1,0
			c0,0.1,0,0,0,0c0,0,0,0,0,0c-0.1,0-0.1,0-0.2,0c0,0,0-0.1,0.1-0.1c0-0.1-0.1,0,0-0.1c0,0,0,0-0.1,0c0,0,0,0,0,0c0,0,0,0-0.1,0
			c0,0,0-0.1,0-0.1c0,0,0,0,0,0c0,0,0-0.1,0-0.1c0,0,0,0,0-0.1c0,0,0.1,0,0.1,0c0,0,0,0,0,0C18.7,14.2,18.7,14.1,18.8,14.1
			c-0.1,0-0.1,0.1-0.1,0C18.7,14.1,18.8,14.1,18.8,14.1C18.8,14.1,18.8,14.1,18.8,14.1z M19,14.8C19,14.8,19,14.7,19,14.8
			c-0.1,0-0.1,0-0.1,0c0,0,0-0.1,0-0.1C19,14.6,19,14.7,19,14.8z M18.6,13.3C18.6,13.3,18.7,13.3,18.6,13.3
			C18.7,13.3,18.7,13.3,18.6,13.3C18.7,13.3,18.7,13.3,18.6,13.3z M18.7,13.3C18.7,13.3,18.7,13.3,18.7,13.3
			C18.7,13.4,18.7,13.4,18.7,13.3C18.7,13.3,18.7,13.3,18.7,13.3z M18.7,13.2C18.7,13.2,18.7,13.2,18.7,13.2
			C18.7,13.2,18.7,13.2,18.7,13.2c0,0.1-0.1,0.1-0.2,0.1c0,0,0,0,0,0c0,0,0,0,0,0c0,0,0,0,0,0c0,0,0.1,0,0.1,0
			C18.6,13.2,18.7,13.2,18.7,13.2C18.7,13.2,18.7,13.2,18.7,13.2z M18.4,13.1c0,0,0.2,0,0.2,0.1C18.6,13.2,18.5,13.2,18.4,13.1
			C18.5,13.2,18.4,13.2,18.4,13.1C18.4,13.2,18.4,13.2,18.4,13.1c0,0-0.1,0-0.1,0C18.3,13.1,18.3,13.1,18.4,13.1z M18.4,14.7
			C18.4,14.7,18.4,14.7,18.4,14.7C18.3,14.7,18.3,14.7,18.4,14.7z M17.6,13.3C17.6,13.3,17.5,13.2,17.6,13.3
			C17.5,13.2,17.6,13.2,17.6,13.3z M17.1,12.9C17.1,12.8,17.1,12.9,17.1,12.9C17.1,12.9,17.2,12.9,17.1,12.9c0.1,0,0.1,0,0.1,0
			c0,0.1,0.1,0,0.1,0c0,0,0,0,0,0c0-0.1,0,0,0,0c0,0,0.1,0,0.1,0c0,0,0,0,0,0c0,0,0,0,0,0c0,0,0,0,0.1,0.1c0,0,0,0.1-0.1,0
			c0,0,0,0,0,0c0,0,0,0-0.1,0C17.4,13.2,17.1,13.1,17.1,12.9c0,0.1,0,0.1,0.1,0.1C17.2,13,17.1,13,17.1,12.9
			C17,13,17.1,12.9,17.1,12.9C17.1,12.9,17.1,12.9,17.1,12.9C17.1,12.9,17.1,12.9,17.1,12.9z M17.5,13.3
			C17.4,13.2,17.4,13.3,17.5,13.3C17.5,13.2,17.4,13.2,17.5,13.3z M17.1,13.4C17.1,13.4,17.1,13.3,17.1,13.4c-0.1,0-0.1-0.1-0.1-0.1
			c0.1,0,0.1,0.1,0.2,0.1C17.2,13.4,17.2,13.4,17.1,13.4z M17.2,14.2C17.1,14.2,17.1,14.2,17.2,14.2C17.1,14.1,17.1,14.2,17.2,14.2
			C17.1,14.1,17.1,14.2,17.2,14.2z M17,13.2C17,13.2,17.2,13.2,17,13.2C17.1,13.3,17.1,13.3,17,13.2z M16.7,13c0,0,0-0.1,0-0.1
			c0,0,0,0,0-0.1c0,0,0,0,0,0c0,0,0,0,0.1,0c0,0,0,0,0,0C16.8,12.9,16.8,12.9,16.7,13c0.1-0.1,0.1-0.1,0.1-0.1c0-0.1,0,0,0,0
			c0,0,0,0.1,0,0.1c0-0.1,0-0.1,0.1-0.1c0,0,0,0,0,0.1c0,0,0,0,0,0c0,0,0,0.1,0,0.1c0,0,0.1,0.1,0.1,0.1c-0.1,0-0.1,0-0.1,0.1
			c0,0-0.1,0.1-0.1,0.1c0,0,0,0,0,0.1c0,0,0,0,0,0c0,0,0,0,0-0.1c0,0-0.1,0-0.1-0.1c0,0,0,0,0.1,0c0,0,0-0.1,0-0.1c0,0-0.1,0-0.1,0
			c0-0.1,0.2,0.1,0.2,0c0,0,0,0-0.1,0c0,0.1,0,0,0,0c0,0,0,0,0,0C16.8,13.1,16.7,13.1,16.7,13C16.7,13,16.7,13,16.7,13z M16.9,14.1
			C16.9,14.1,16.9,14.1,16.9,14.1C17,14.1,16.9,14.1,16.9,14.1C16.9,14.1,16.9,14.1,16.9,14.1z M17,14.2C17,14.2,17,14.2,17,14.2
			C17,14.2,17,14.2,17,14.2C17,14.2,16.9,14.1,17,14.2z M16.8,14.2C16.7,14.2,16.7,14.2,16.8,14.2C16.7,14.2,16.7,14.2,16.8,14.2
			C16.7,14.1,16.7,14.2,16.8,14.2z M16.7,14.2C16.7,14.2,16.7,14.2,16.7,14.2C16.7,14.2,16.7,14.2,16.7,14.2
			C16.7,14.2,16.7,14.2,16.7,14.2z M16.7,12.9c0,0,0,0.1,0,0.1C16.6,13,16.7,13,16.7,12.9z M16.5,14.3
			C16.5,14.3,16.5,14.3,16.5,14.3C16.5,14.3,16.5,14.3,16.5,14.3C16.5,14.4,16.5,14.4,16.5,14.3C16.5,14.3,16.5,14.4,16.5,14.3
			C16.5,14.3,16.5,14.3,16.5,14.3z M16.4,14.3C16.4,14.3,16.4,14.4,16.4,14.3C16.4,14.3,16.4,14.3,16.4,14.3z M16.4,14.3
			C16.4,14.4,16.4,14.4,16.4,14.3C16.4,14.4,16.3,14.4,16.4,14.3C16.4,14.4,16.3,14.3,16.4,14.3z M13.9,11.2c0,0.1,0.1,0.1,0,0.2
			C13.9,11.3,13.8,11.3,13.9,11.2z M11.9,10.3C11.9,10.3,12,10.3,11.9,10.3C12,10.3,11.9,10.4,11.9,10.3
			C11.9,10.4,11.9,10.3,11.9,10.3z M12.2,11.4c-0.1,0.1-0.1,0-0.1,0c0,0,0,0,0,0c0,0,0,0,0,0c-0.1,0.1-0.1-0.1-0.1-0.1
			c0,0-0.1,0-0.1-0.1c-0.1,0-0.1,0-0.1,0c0.1,0,0.2-0.2,0.1-0.3c0,0,0,0,0,0c0-0.1,0-0.2,0-0.1c0,0,0.2,0.3,0.1,0.2c0,0,0,0,0,0
			c0,0,0,0,0,0c0,0,0,0,0,0c0,0,0,0,0,0c0,0,0.1,0,0,0.1c0,0,0,0,0,0c0,0,0.2,0.1,0.2,0.1C12.2,11.2,12.3,11.4,12.2,11.4z
			 M11.7,10.9C11.7,10.8,11.7,11,11.7,10.9c0,0.1,0,0.1-0.1,0.2c0,0,0,0,0,0C11.6,10.9,11.6,10.9,11.7,10.9z M11.6,10.9
			C11.6,10.8,11.6,10.9,11.6,10.9C11.6,10.9,11.6,10.9,11.6,10.9z M11.8,10.7c0,0,0.1,0,0.1,0c0,0,0,0,0,0
			C11.9,10.8,11.9,10.7,11.8,10.7z M11.9,10.9C11.9,10.9,11.9,10.9,11.9,10.9C12,10.9,11.9,10.9,11.9,10.9
			C11.9,10.9,11.9,10.9,11.9,10.9z M11.8,10.6C11.8,10.6,11.8,10.6,11.8,10.6C11.8,10.6,11.8,10.5,11.8,10.6
			C11.9,10.5,11.9,10.6,11.8,10.6C11.9,10.7,11.8,10.7,11.8,10.6C11.8,10.6,11.8,10.6,11.8,10.6z M11.6,10.3
			C11.6,10.3,11.6,10.3,11.6,10.3C11.6,10.3,11.6,10.3,11.6,10.3C11.7,10.2,11.6,10.3,11.6,10.3C11.7,10.2,11.7,10.3,11.6,10.3
			C11.7,10.3,11.7,10.3,11.6,10.3c0.1,0,0.1,0,0.1,0C11.7,10.3,11.7,10.3,11.6,10.3c0.2,0,0.2,0.2,0.1,0.3
			C11.7,10.5,11.7,10.4,11.6,10.3C11.7,10.4,11.6,10.4,11.6,10.3C11.6,10.4,11.6,10.4,11.6,10.3C11.6,10.3,11.6,10.4,11.6,10.3
			C11.6,10.3,11.6,10.3,11.6,10.3C11.6,10.3,11.6,10.3,11.6,10.3z M11.7,10.5C11.7,10.5,11.6,10.5,11.7,10.5
			C11.7,10.5,11.7,10.5,11.7,10.5z M11.6,10.7C11.6,10.6,11.6,10.6,11.6,10.7C11.6,10.7,11.6,10.7,11.6,10.7
			C11.6,10.7,11.6,10.7,11.6,10.7c0.1,0,0,0.2,0,0.2c0,0,0,0,0,0c0,0-0.1-0.1-0.1-0.1c0,0,0.1,0,0.1,0c0,0-0.1,0-0.1,0c0,0,0,0,0,0
			c0,0,0,0,0,0C11.5,10.7,11.5,10.6,11.6,10.7C11.6,10.7,11.5,10.7,11.6,10.7C11.5,10.7,11.6,10.7,11.6,10.7
			C11.6,10.7,11.6,10.7,11.6,10.7z M11.5,10.9C11.5,11,11.5,10.9,11.5,10.9C11.5,10.9,11.5,10.9,11.5,10.9z M11.3,11.1
			C11.4,11.1,11.4,11.1,11.3,11.1C11.4,11.1,11.4,11.1,11.3,11.1C11.4,11.1,11.4,11.1,11.3,11.1c0,0.1-0.1,0.2-0.2,0.1
			c0-0.1,0-0.1,0-0.2c0,0,0,0,0,0c0-0.1,0-0.1,0-0.1C11.2,11,11.2,11,11.3,11.1c0-0.1-0.1-0.2,0-0.2c0,0,0,0,0,0.1c0,0,0,0,0,0
			c0,0,0.1,0,0.1,0c0,0-0.1,0-0.1,0C11.5,11,11.4,11.1,11.3,11.1z M11.1,11.6C11,11.6,11.1,11.6,11.1,11.6c-0.1,0-0.1,0-0.1,0
			c0,0,0,0,0,0c0,0,0,0,0-0.1C11,11.5,11,11.5,11.1,11.6C11,11.5,11,11.5,11,11.5c0,0,0,0,0,0c0,0,0,0,0,0c0,0,0-0.1,0.1-0.1
			c0,0,0,0,0,0c0,0,0,0,0,0C11.1,11.4,11.1,11.5,11.1,11.6C11.1,11.5,11.1,11.6,11.1,11.6z M10.9,11.3
			C10.9,11.3,10.9,11.3,10.9,11.3C10.9,11.3,10.9,11.3,10.9,11.3C10.9,11.3,10.9,11.3,10.9,11.3c-0.1,0.1-0.1,0-0.1,0
			c0,0,0-0.1,0-0.1c0,0,0-0.1,0-0.1c0,0-0.1,0-0.2,0c0,0-0.1-0.1-0.2-0.1c0.1,0.1,0-0.2,0-0.1c0,0,0-0.1,0.1-0.1c0,0,0.1,0,0.1,0.1
			c0,0,0,0.1,0,0c0,0,0,0,0,0c0,0-0.1-0.1-0.2-0.2c0,0,0.1-0.1,0.1,0c0,0,0,0,0.1,0c0,0,0-0.1,0,0c0,0,0,0-0.1,0c0,0,0,0,0,0
			c0,0,0,0,0,0c0,0,0,0,0,0c0,0,0-0.1,0.1-0.1c0,0,0.1,0,0.1,0c0,0,0,0,0,0c0,0,0.1,0,0.1,0c0.1,0,0,0.1,0,0.1c0,0,0,0.1,0,0.1
			c0,0,0.1-0.1,0.1-0.1c0,0,0,0.1,0,0.1c0,0,0.1,0,0.1,0c0,0.1-0.1,0.1-0.1,0.1c0,0,0.1,0,0.1,0c0,0,0.1,0.1,0,0.1
			c0,0-0.1,0.2,0,0.2C11,11.3,11.1,11.3,10.9,11.3C11,11.3,11,11.3,10.9,11.3C11,11.3,10.9,11.3,10.9,11.3
			C10.9,11.3,11,11.3,10.9,11.3z M10.9,11.4C10.9,11.4,10.9,11.4,10.9,11.4C10.9,11.4,11,11.4,10.9,11.4z M10.8,11.3
			C10.8,11.3,10.7,11.3,10.8,11.3C10.7,11.3,10.7,11.3,10.8,11.3C10.7,11.3,10.8,11.3,10.8,11.3z M10.9,10.3c0,0,0.1,0,0.1,0
			C11,10.2,11,10.3,10.9,10.3C11,10.3,10.9,10.3,10.9,10.3z M11,10.9c0,0,0-0.1,0-0.1c0,0,0,0,0,0C11.1,10.8,11.1,10.9,11,10.9z
			 M11.1,11.2C11,11.3,11,11.3,11.1,11.2C11,11.2,11.1,11.2,11.1,11.2z M11.1,10.5c0,0-0.1,0-0.1,0C11,10.4,11.1,10.5,11.1,10.5
			C11.1,10.5,11.1,10.5,11.1,10.5C11.1,10.5,11.1,10.5,11.1,10.5c0-0.1,0-0.1,0-0.1c0,0,0,0,0,0c-0.1,0,0,0,0-0.1
			c0,0-0.1,0.1-0.1,0.1c0,0,0,0,0,0c0,0,0,0,0,0c0,0,0,0,0,0c0,0,0,0,0,0c0,0,0,0,0.1,0c0,0,0,0,0,0c0,0,0,0,0,0c0,0,0,0,0,0
			c0,0,0,0,0,0c0,0,0,0,0,0c0,0,0,0,0,0c0,0,0.1,0.2,0.1,0.2c0-0.1,0.1-0.1,0.1-0.2c0,0,0,0.1,0,0.1c0,0,0,0,0,0c0,0,0,0,0,0
			c0,0,0,0,0.1-0.1c0,0-0.1,0.1-0.1,0.1C11.3,10.6,11.2,10.5,11.1,10.5z M11.6,10.4C11.6,10.4,11.5,10.4,11.6,10.4
			C11.5,10.4,11.5,10.4,11.6,10.4z M11.5,10.6C11.5,10.6,11.5,10.6,11.5,10.6c0,0.1-0.1,0.1-0.1,0.1C11.4,10.7,11.5,10.7,11.5,10.6
			C11.4,10.6,11.4,10.6,11.5,10.6C11.4,10.6,11.4,10.5,11.5,10.6C11.5,10.6,11.5,10.6,11.5,10.6z M11.5,10.6
			C11.5,10.6,11.5,10.6,11.5,10.6C11.5,10.5,11.5,10.5,11.5,10.6C11.5,10.5,11.5,10.5,11.5,10.6z M11.4,10.2
			C11.4,10.2,11.5,10.1,11.4,10.2C11.5,10.1,11.5,10.3,11.4,10.2z M11.4,10.2C11.4,10.1,11.4,10.1,11.4,10.2
			C11.4,10.1,11.5,10.1,11.4,10.2z M11.3,10.1C11.3,10.1,11.3,10.1,11.3,10.1C11.3,10.1,11.3,10.1,11.3,10.1z M11.4,10.2
			C11.4,10.2,11.4,10.2,11.4,10.2C11.4,10.3,11.4,10.3,11.4,10.2C11.4,10.3,11.3,10.3,11.4,10.2C11.2,10.3,11.3,10.1,11.4,10.2z
			 M10.9,10.1c0.1-0.1,0.1,0,0.2-0.1c0,0,0.2,0,0.2,0c0.1,0,0,0.1,0,0.1c0,0,0,0,0,0c0,0-0.1,0.1-0.1,0.1c0,0,0,0,0.1-0.1
			c0,0-0.1,0-0.1,0c0,0,0,0,0,0C11,10.2,11,10.2,10.9,10.1C10.9,10.1,11,10.1,10.9,10.1C10.9,10.1,10.9,10.1,10.9,10.1
			C10.9,10.1,10.9,10.1,10.9,10.1z M10.7,10.2c0,0,0.1,0,0.1,0c0,0,0,0.1,0,0.1c0,0,0.1,0.1,0.1,0.1c0,0,0,0,0,0.1
			c0,0.1-0.1,0-0.1,0c0,0-0.1,0-0.1,0c-0.1,0-0.1,0.1-0.1,0c0,0-0.1,0-0.1,0C10.5,10.4,10.6,10.2,10.7,10.2z M9,9.8
			C9,9.8,9,9.8,9,9.8C9,9.8,9,9.9,9,9.8c0,0.1,0,0.1,0,0.1C9,9.9,9,9.8,9,9.8z M8.8,10.2C8.8,10.2,8.8,10.2,8.8,10.2
			C8.8,10.2,8.8,10.2,8.8,10.2C8.8,10.2,8.8,10.2,8.8,10.2z M8.4,10.7C8.4,10.7,8.4,10.7,8.4,10.7C8.4,10.8,8.4,10.8,8.4,10.7
			C8.4,10.7,8.4,10.7,8.4,10.7z M8.3,10.7C8.3,10.8,8.3,10.8,8.3,10.7C8.3,10.8,8.3,10.8,8.3,10.7z M8.1,10.5
			C8.1,10.5,8.1,10.5,8.1,10.5C8.1,10.5,8.1,10.5,8.1,10.5z M8.2,10.6C8.2,10.6,8.2,10.7,8.2,10.6C8.2,10.6,8.2,10.6,8.2,10.6z
			 M9.3,21.7C9.3,21.7,9.3,21.8,9.3,21.7C9.3,21.8,9.3,21.8,9.3,21.7C9.3,21.8,9.3,21.8,9.3,21.7C9.3,21.8,9.3,21.8,9.3,21.7
			C9.3,21.8,9.3,21.8,9.3,21.7C9.3,21.8,9.3,21.7,9.3,21.7z M9.7,22.2C9.7,22.2,9.6,22.2,9.7,22.2C9.6,22.2,9.6,22.2,9.7,22.2
			C9.6,22.2,9.6,22.2,9.7,22.2c-0.1,0-0.1-0.1-0.1-0.1C9.6,22.1,9.6,22.1,9.7,22.2C9.6,22.1,9.6,22.1,9.7,22.2
			C9.6,22.1,9.6,22.1,9.7,22.2c-0.1-0.1-0.1-0.1-0.2-0.1c0,0,0,0,0,0c0,0,0,0,0,0c0,0,0,0,0,0c0,0,0,0,0,0c0,0,0,0.1,0,0.1
			c0,0,0,0,0,0c0,0,0,0,0,0c0,0,0-0.1-0.1-0.1c0,0,0,0,0,0c0,0,0,0-0.1-0.1c0,0,0.1,0,0.1,0.1C9.7,22.1,9.7,22.2,9.7,22.2
			C9.7,22.2,9.7,22.2,9.7,22.2z M9.8,22.3C9.8,22.3,9.8,22.2,9.8,22.3C9.8,22.3,9.8,22.3,9.8,22.3C9.8,22.3,9.8,22.3,9.8,22.3z
			 M9.9,22.2C9.9,22.2,9.9,22.2,9.9,22.2C9.9,22.2,9.9,22.2,9.9,22.2C9.9,22.2,10,22.2,9.9,22.2C10,22.2,10,22.2,9.9,22.2
			C10,22.2,9.9,22.2,9.9,22.2z M10,22.3C10,22.2,10,22.2,10,22.3C10,22.2,10,22.2,10,22.3C10,22.2,10,22.2,10,22.3
			C10,22.2,10,22.2,10,22.3C10,22.2,10.1,22.3,10,22.3C10,22.2,10.1,22.3,10,22.3C10,22.2,10,22.2,10,22.3z M10.2,21.2
			C10.3,21.2,10.3,21.2,10.2,21.2C10.2,21.2,10.2,21.2,10.2,21.2z M11.4,14.9C11.4,14.9,11.4,14.9,11.4,14.9
			C11.3,14.9,11.4,14.9,11.4,14.9C11.4,14.9,11.4,14.9,11.4,14.9C11.3,14.8,11.4,14.9,11.4,14.9z M11.4,14.8c0,0-0.1,0.1-0.1,0.1
			C11.2,14.9,11.4,14.8,11.4,14.8C11.4,14.8,11.4,14.8,11.4,14.8C11.4,14.8,11.4,14.8,11.4,14.8z M11.3,14.4c0,0,0.1,0.1,0.1,0.1
			c0,0,0,0,0,0.1C11.3,14.5,11.3,14.4,11.3,14.4z M11.7,14.9C11.7,14.9,11.7,14.9,11.7,14.9C11.7,14.9,11.7,14.9,11.7,14.9z
			 M11.9,14.9C11.9,14.9,11.9,15,11.9,14.9C11.8,15,11.8,15,11.9,14.9C11.8,15,11.8,15,11.9,14.9C11.8,14.9,11.8,14.9,11.9,14.9
			c-0.1,0-0.1,0-0.1,0c0,0,0,0-0.1,0C11.7,14.9,11.7,14.9,11.9,14.9c-0.1-0.1-0.1-0.1-0.1-0.1c0,0-0.1-0.1-0.2-0.1c0,0,0,0,0,0
			c0,0,0.1,0,0.1,0c0,0,0,0,0,0c0,0,0,0,0,0c0,0,0,0,0,0c0,0,0,0,0,0c0,0,0,0,0,0c0-0.1,0.1-0.2,0.2-0.2c0,0-0.1,0.1-0.1,0.1
			c0,0,0.1,0,0,0c0,0,0,0,0,0.1c0,0,0,0,0.1,0c0,0,0,0,0,0c0,0,0,0,0.1,0c0,0,0,0.1,0,0C11.8,14.8,11.8,14.8,11.9,14.9
			C11.9,14.8,11.9,14.8,11.9,14.9C11.9,14.9,11.8,14.9,11.9,14.9C11.9,14.9,11.9,14.9,11.9,14.9C11.9,14.9,11.9,14.9,11.9,14.9z
			 M11.9,14.3c0.1,0.1-0.2,0.1-0.2,0.1c-0.1,0-0.1,0.1-0.2,0c0,0-0.1,0-0.2-0.1c0,0-0.2-0.1-0.3,0c0,0-0.1,0-0.1,0c0,0,0,0,0,0
			c0,0-0.1,0-0.1,0.1c0.1-0.1,0.4-0.2,0.4,0c0,0,0,0,0,0c0,0,0,0,0,0.1c0,0,0,0,0,0c0,0.1-0.1,0-0.1,0c0,0,0,0,0,0c0,0,0,0,0,0
			c0,0,0,0,0.1,0c0,0,0,0.1,0,0.1c0,0,0,0,0,0c0,0,0,0,0,0c0,0-0.1,0.1,0,0.1c0,0,0,0,0,0c0,0,0,0,0,0c0,0,0,0.1,0.1,0
			c0,0,0,0.1,0,0.1c0,0-0.2,0-0.2,0c0,0,0,0,0,0c0,0-0.1,0-0.1,0.1c0,0,0,0,0,0c0,0,0,0,0,0c-0.1-0.1,0.1-0.2,0.1-0.1c0,0,0,0,0.1,0
			c0,0-0.1,0-0.1,0c0,0,0,0,0,0c0,0,0,0,0,0c0,0-0.1,0-0.1,0.1c0,0,0,0,0,0c0,0-0.1,0,0,0c0,0,0,0-0.1,0c0,0.1,0,0-0.1,0.1
			c0,0,0,0,0,0c0,0,0,0,0,0c0,0,0,0,0,0c0,0.1-0.1,0-0.1,0c-0.1,0-0.1,0.1-0.1,0.2c0,0,0,0,0,0c0,0,0,0,0,0c0,0,0,0,0,0
			c-0.1,0-0.1,0-0.2,0c0,0-0.1,0.2-0.1,0.1c0,0.1,0,0.1-0.1,0.1c-0.1,0,0-0.1,0-0.2c0,0,0,0-0.1,0c0,0-0.1,0.1-0.1,0.1
			c0,0,0,0.1,0,0.1c-0.1-0.1,0,0.1,0,0.1c0,0,0,0-0.1,0c0,0,0,0,0,0c0,0,0,0,0,0c0,0,0,0,0,0c0,0,0,0,0,0c0,0,0,0,0,0
			c0,0.1-0.1,0.1-0.1,0.1c0,0-0.3,0.1-0.2,0.2c0,0.1,0,0.2,0,0.2c0,0.1,0,0.1-0.1,0.2c-0.1,0,0-0.3,0-0.3c0,0,0,0,0,0
			c0.1-0.1,0-0.1,0-0.2c-0.1,0-0.1-0.1-0.1-0.2c0,0,0,0,0,0c0,0,0,0,0-0.1c0,0-0.1,0-0.1,0c0,0,0,0.1,0,0.1c0,0,0-0.1,0-0.1
			c0,0,0,0,0,0c0,0,0,0,0-0.1c0,0-0.1,0,0-0.1c0,0-0.1,0-0.1-0.1c0,0-0.1,0-0.1,0c0,0-0.4,0-0.4,0c0,0-0.5,0-0.5,0c0,0,0,0,0,0
			c0-0.1,0.2,0.4,0.2,0.4c0,0.1,0.1,0.2,0.2,0.3c0,0.1,0.1,0.2,0.1,0.2c0.1,0,0.2,0,0.2,0.1c0,0,0.2-0.1,0.1-0.1C9,16,9,16,9.1,16
			c0.1,0-0.1,0.2-0.1,0.3c0,0,0,0,0-0.1c0,0,0,0.1,0,0.1c0,0-0.1,0.1-0.1,0.1c0.1,0,0.3,0.2,0.2,0.3c0,0-0.1,0.2-0.1,0.3
			c0,0.1,0,0.2,0.1,0.2c0,0,0.1,0.1,0.1,0c0.1,0.1,0.1,0.2,0.1,0.3c0,0,0-0.1,0.1-0.1c0,0,0-0.1,0.1-0.1c0.1-0.1,0.3,0,0.1,0
			c0,0,0,0.1,0,0.1c0,0,0.1,0.1,0,0c0,0,0-0.1,0-0.1c0,0,0.1,0,0.1,0c0,0,0-0.1,0-0.1c0.1,0.2,0.2,0.3,0.4,0.4c0,0,0,0,0,0
			c0,0.1,0,0.1,0.1,0.1c0,0,0,0,0,0c0,0.1,0,0-0.1,0c0.1,0,0.1,0,0.2,0.1c0,0,0,0,0,0.1c0,0.1,0,0,0,0.1c0,0,0,0,0,0c0,0,0,0,0-0.1
			c0,0,0.1,0.1,0.1,0.1c0,0,0.1,0,0.1,0c0.1,0.1,0.2,0.4,0.2,0.5c0,0,0,0,0,0c0,0,0,0,0,0c0,0,0,0,0,0c0,0,0,0,0,0.1
			c-0.1,0,0,0,0-0.1c0,0-0.1,0-0.1,0.1c0,0-0.1,0.1,0,0.1c0-0.1,0.1-0.1,0.1,0c0-0.1,0.1-0.1,0.1-0.1c0.1,0.1,0,0.1-0.1,0.1
			c0,0,0,0,0.1,0.1c0,0,0,0,0,0c0,0,0,0,0,0c0.1,0,0.2,0.1,0.2,0.1c0,0,0,0,0,0c0,0,0,0.1,0,0.1c0,0,0,0,0,0c0,0,0,0.1,0.1,0.1
			c0,0,0,0,0,0c0.1,0,0.3,0.2,0.3,0.3c0.2,0,0.1,0.3,0.1,0.3c0,0.1-0.2,0.1-0.2,0.2c0,0,0,0,0,0c0,0,0,0.1-0.1,0.1
			c0.1,0,0,0.2,0,0.2c0,0-0.2,0.2-0.2,0.3c0,0-0.1,0-0.1,0c0,0-0.1,0-0.1,0c0,0,0,0,0,0c-0.1,0,0,0-0.1,0c0,0-0.1,0-0.1,0
			c0,0,0,0.2,0,0.2c0,0-0.1,0.1-0.1,0.1c0,0,0.1,0,0-0.1c0,0-0.1,0.1-0.1,0.2c0,0-0.1,0-0.1,0c-0.1,0-0.1-0.1-0.1-0.2
			c0,0.1,0,0.1,0,0.2c0.1,0.1,0,0.1,0,0.2c0,0,0,0,0,0c0,0-0.2-0.1-0.2-0.1c0,0,0,0,0,0c0,0.1,0,0.1,0,0.1c0,0,0,0,0,0c0,0,0,0,0,0
			c0,0,0-0.1-0.1-0.1c0,0,0,0,0,0c0,0,0,0,0,0c0,0,0,0.1,0.1,0.1c0,0,0,0,0,0c0,0,0,0-0.1,0c0,0,0,0,0,0c0,0,0,0,0,0.1c0,0,0,0,0,0
			c-0.2-0.1,0,0.2,0,0.2c0,0,0,0,0,0c0,0-0.1,0-0.1,0c0,0,0,0,0,0c0,0,0,0-0.1,0c0,0,0,0,0,0c0,0,0,0,0,0c0,0,0,0,0,0c0,0,0,0.1,0,0
			c0,0-0.7,0-0.7,0.1c0,0-0.7,0-0.7,0c0,0,0,0,0,0c0,0,0.7,0,0.6,0c0,0,0.3,0,0.4,0.1c0,0,0.1,0,0.1-0.1c0,0,0.1,0,0.1,0
			c0,0,0,0,0,0c0,0,0,0,0,0c0,0-0.1-0.1-0.1-0.1c0,0,0,0,0,0c0,0,0-0.1,0-0.1c0,0,0,0,0,0c0,0,0,0-0.1,0c0,0,0,0,0,0.1c0,0,0,0,0,0
			c0,0,0,0,0,0c0,0,0-0.1-0.1-0.1c0,0,0,0,0.1,0c0,0,0,0,0,0c0,0,0,0,0,0c0,0,0,0,0,0c0,0,0,0,0,0c0,0,0,0,0,0c0,0,0-0.1,0,0
			c0,0-0.1-0.1,0-0.1c0,0,0,0,0,0c0,0,0,0,0,0c0,0,0,0,0,0c0,0,0,0,0,0c0,0,0,0,0,0c0,0,0,0,0,0c0,0,0,0,0,0c0,0,0,0,0,0
			c0-0.1,0-0.1,0-0.2c0,0,0,0,0,0c0,0,0,0.1,0.1,0.1c0,0,0-0.1,0-0.1c0,0,0,0,0,0c0-0.1-0.1-0.1-0.1-0.2c0,0,0,0,0,0c0,0,0,0,0,0
			c0,0,0,0,0,0c0,0,0,0,0,0c0,0,0,0,0,0c0,0,0,0,0,0c0,0,0,0,0,0c0,0,0,0,0,0c0,0,0,0,0.1,0c0,0,0-0.1,0-0.1c0,0,0,0,0,0
			c0,0,0,0,0-0.1c0,0,0-0.1,0-0.1c0-0.1,0-0.1,0-0.2c0-0.1,0-0.2,0-0.3c0-0.1,0-0.3,0-0.4c0-0.1,0.1-0.3,0.1-0.5
			c0-0.2,0-0.2-0.1-0.4c-0.1,0-0.2-0.2-0.1-0.3c0,0,0-0.3-0.1-0.3c0-0.1,0-0.3-0.1-0.4C8.9,18.4,9,18.2,9,18.2c0,0,0,0,0,0
			c0,0,0,0,0-0.1c0,0,0-0.1,0.1-0.1c0-0.1,0-0.1,0-0.1c0,0,0,0,0.1,0c0-0.1,0,0,0.1-0.1c0,0,0-0.1,0-0.1c0-0.1,0-0.1,0-0.1
			c0,0-0.1-0.2,0-0.1c0,0,0-0.1-0.1-0.1c0,0-0.1,0-0.1,0c0,0,0,0,0,0.1c0,0,0,0,0,0c0,0-0.1-0.2-0.1-0.2c0,0,0,0,0,0c0,0,0,0,0,0
			c0,0,0-0.1,0-0.2c0,0.1,0,0,0,0c0-0.1,0-0.3-0.1-0.3c-0.1-0.1-0.1-0.3-0.2-0.5c0,0-0.1-0.1-0.1,0c-0.1-0.1-0.2-0.3-0.2-0.4
			c-0.1-0.2,0-0.3,0-0.5c0-0.4,0-0.7,0-1c0,0,0,0,0,0c0,0,0,0,0-0.1c-0.1,0.1,0,0.3-0.1,0.5c0,0,0,0.4-0.1,0.4c0,0,0-0.2,0-0.3
			c0-0.1,0-0.2,0-0.3c0.1,0.1,0.1-0.2,0.1-0.2c0-0.1,0-0.2,0.1-0.3c0,0,0-0.2,0-0.2c0,0,0-0.2,0.1-0.2c0,0,0-0.1,0-0.1c0,0,0,0,0,0
			c0,0,0-0.1,0,0c-0.1-0.1,0.1-0.4,0.2-0.5c0.1-0.2,0.2-0.3,0.3-0.5c0,0.1,0,0.1,0,0.1c0,0,0,0,0,0c0,0,0,0,0,0c0,0,0,0,0,0
			c0,0,0,0,0,0.1c0.1-0.1,0-0.2,0.1-0.2c0,0,0-0.1,0-0.1c-0.1,0,0-0.1-0.1-0.1c0,0.1,0,0.1,0,0.2c0,0,0,0.2,0,0.2
			c-0.1-0.1,0-0.2-0.1-0.2c0-0.1,0-0.1,0-0.2c0,0,0,0,0,0c0,0,0.1-0.1,0.1-0.2c0,0,0,0,0-0.1c0,0,0,0,0,0c0,0,0,0,0-0.1c0,0,0,0,0,0
			c0,0,0,0,0,0C9,12,9,11.9,9,11.8c0,0,0.1-0.1,0.1-0.1c0,0,0,0,0,0c0,0,0,0,0-0.1c0,0,0,0,0,0c0,0,0,0,0,0c0,0,0,0,0,0
			c0,0,0-0.1,0.1-0.1c0,0.1,0-0.1,0,0c0,0,0.1-0.3,0.1-0.3c0,0,0,0,0,0.1c0,0,0,0,0,0c0,0,0,0.2,0,0.1c0,0,0,0.1,0,0.1c0,0,0,0,0,0
			c0,0,0,0.1-0.1,0.1c0,0,0-0.1,0-0.1c0,0,0,0,0,0c0-0.1,0-0.1,0.1-0.1c0,0,0,0,0,0c0,0,0.1-0.3,0.1-0.3c0,0,0,0,0,0
			c0,0,0-0.1,0-0.1c-0.1-0.1,0-0.2-0.1-0.2c0,0,0-0.1,0-0.1c0,0,0,0,0,0c0,0,0,0,0,0c0,0,0,0,0,0c0,0,0,0.1-0.1,0.1c0,0,0,0,0-0.1
			c0,0,0,0,0,0c0,0,0,0,0,0c0,0,0,0-0.1,0c0,0,0,0,0,0c0,0,0,0,0,0c0.1,0,0.1-0.1,0.2-0.1c0,0,0,0,0,0c0,0,0,0,0,0c0,0,0,0,0,0
			c0,0,0,0,0,0c0,0-0.1,0-0.1,0.1c0,0,0,0,0,0c0,0-0.2,0.1-0.2,0.1c-0.1,0.1-0.1,0-0.2,0.1c0,0,0,0,0,0c0,0-0.1,0-0.1,0c0,0,0,0,0,0
			c0,0,0,0,0,0c0,0,0,0-0.1,0.1c0,0,0,0,0,0c0,0,0,0,0.1,0c0,0,0,0,0,0.1c0-0.1,0.1,0,0.1-0.1c0,0,0.1-0.1,0.1-0.1c0,0,0,0,0,0
			c0,0,0,0,0,0c0,0,0,0,0,0c0,0,0-0.1,0-0.1c0,0,0,0-0.1,0c0,0,0.1-0.1,0.1-0.2c0,0,0,0,0,0c0,0,0-0.1,0-0.1c0,0,0,0,0,0
			c0-0.1,0-0.1,0.1-0.2c0,0,0,0,0,0C9,10.1,9,10,9,10c0,0,0,0.1,0,0.1c0.1,0,0.1,0,0.2-0.1c0,0,0,0,0,0c0,0,0,0,0-0.1c0,0,0,0,0,0
			c0,0,0-0.1,0-0.1c0,0,0,0,0-0.1c0,0,0,0,0.1,0c0,0,0,0,0,0c0,0,0,0,0.1,0c0,0.1-0.1,0.1,0,0.2c0,0,0,0,0-0.1c0,0,0,0,0,0
			c0,0,0,0,0,0c0,0,0-0.1,0-0.1c0,0,0,0,0,0c0,0,0.1-0.2,0.1-0.2c0,0.1,0.1,0,0.1,0.1c0.1-0.1,0.2,0,0.2-0.1c0,0,0,0,0,0
			c0,0,0,0.1,0.1,0c0,0,0,0,0,0.1c0,0,0,0,0,0c0,0,0,0,0,0c0,0,0,0,0,0c0,0,0,0.1,0,0.1c0,0,0.1,0.2,0.1,0.2c0,0,0,0,0,0
			c0,0,0,0.2,0,0.2c0,0,0,0.2,0,0.2c0,0,0,0,0-0.1c0,0,0,0.1,0,0c0,0,0,0,0,0c0,0,0,0,0,0c0,0,0,0,0,0.1c0,0,0.1,0,0.1,0
			c0,0,0,0,0.1,0c0,0.1,0,0,0,0.1c0,0,0.1,0,0.2-0.1c0,0.1-0.1,0.2-0.1,0.3c0,0,0.1,0,0.1-0.1c0,0,0,0.1-0.1,0.1c0,0,0,0,0.1,0
			c0.1,0.1,0,0.3,0.1,0.3c0,0,0,0,0,0c0,0,0,0.1,0,0.1c0,0-0.1,0-0.1,0c0,0,0,0,0,0c0,0,0.1,0,0.1,0c0,0,0,0.1,0,0.1c0,0,0,0,0,0
			c0,0,0,0,0,0.1c0,0,0.1-0.1,0.1-0.1c0,0,0.1,0,0.1,0c0,0,0,0,0,0c0,0-0.1,0-0.1,0c0,0,0,0,0,0c0,0,0,0,0,0c0,0,0.1-0.1,0.1,0
			c0-0.1,0,0.1,0,0.1c0,0,0,0,0,0c0,0,0,0,0,0c0,0,0,0,0,0c0,0,0,0.1,0,0.1c0.1,0,0.1,0,0.1,0.1c0,0,0-0.1,0.1-0.1c0,0,0,0,0,0.1
			c0,0,0,0,0,0c0,0,0,0,0,0c0,0,0,0,0,0c0,0.1,0,0.1-0.1,0.2c0,0,0,0,0,0c0,0,0-0.1,0.1-0.1c0,0,0.1,0,0.1,0c0,0,0,0,0,0
			c0,0,0,0,0.1-0.1c0,0,0,0,0,0c0,0,0,0,0,0c0,0-0.1,0-0.1-0.1c0,0,0,0,0,0c0,0,0,0,0,0c0.1,0,0-0.1,0.1-0.1c0,0,0.1,0,0.1-0.1
			c0,0,0,0,0,0c0.1-0.1,0.1-0.2,0.2-0.3c0,0,0,0,0,0c0,0,0,0,0.1,0c0,0,0,0,0,0c0,0,0,0.1,0,0.1c0,0,0,0,0.1,0.1
			c0,0-0.1,0.1-0.1,0.1c-0.1,0-0.1-0.1-0.1,0c0,0-0.1,0-0.1,0c0,0,0,0.2,0,0.2c0,0,0,0,0,0c0,0,0,0,0,0c0,0,0,0,0,0c0,0,0,0,0,0
			c0,0-0.1,0-0.1,0c0,0,0,0.1,0,0.1c0,0,0,0.1,0,0.2c0,0,0.1-0.1,0.2-0.1c0,0,0,0.2-0.1,0.1c0,0.1,0,0.1,0,0.2c0,0,0,0,0,0
			c0.1-0.1,0.3-0.1,0.3-0.3c0.1,0,0.1,0.1,0.1,0.1c0,0,0,0,0,0c0,0,0,0-0.1,0.1c0,0,0,0,0,0c0,0-0.1,0-0.1,0.1c0,0,0,0,0,0.1
			c0,0-0.2,0-0.2,0c0,0,0,0,0-0.1c0,0,0,0,0,0c0,0,0,0.1,0,0.1c0,0,0-0.1-0.1-0.1c0,0,0,0.1-0.1,0.1c0,0-0.1-0.1-0.1-0.1
			c0,0,0,0,0,0c0,0,0,0,0,0c0,0,0.1,0.1,0.1,0.1c0,0-0.1,0-0.1,0.1c0,0,0-0.1,0-0.1c0,0-0.1,0-0.1,0.1c0,0,0,0,0,0c0,0,0,0.1-0.1,0
			c0,0,0,0,0,0c0,0,0,0,0,0c0,0-0.2,0.1-0.2,0.1c0,0,0,0-0.1,0.1c0,0,0,0.1,0,0.1c0.1,0,0,0.2,0,0.2c0.2,0,0.1,0.3,0.1,0.3
			c0,0.1,0.2,0.2,0.1,0.3c0,0-0.1,0.2-0.1,0.2c0,0.1,0.1,0.1,0.2,0c0,0,0.1-0.2,0.1-0.2c0.1,0,0.2-0.1,0.2-0.1c0,0,0,0,0,0
			c0,0,0,0,0,0c0-0.1,0.1-0.2,0.1-0.3c0-0.1,0.1-0.1,0.1-0.1c0,0,0-0.1,0-0.1c0,0,0-0.1,0.1-0.1c0-0.1,0,0.8,0.1,0.8
			c0.1,0.1,0.2,1,0.1,1c0,0,0,0,0,0c0,0,0-0.8,0.1-0.8c0,0,0-0.4,0-0.4c0,0,0-0.2,0-0.2c0,0-0.1,0-0.1,0c0,0,0.1,0,0,0.1
			c0,0,0,0,0,0c0,0,0,0,0,0c0,0,0.1,0,0.1,0c0,0,0.1-0.2,0.2-0.1c-0.1,0.1,0,0.2,0,0.2c0,0,0,0,0,0c0,0,0,0.1,0,0.1c0,0,0,0.1,0,0.1
			c0,0,0,0-0.1,0c0,0,0,0,0,0c0,0,0,0,0,0c0,0.1,0.1,0.2,0,0.2c0,0,0,0,0,0c0,0,0,0,0,0c0,0.1,0.1,0,0,0.1c0,0-0.1,0-0.2,0
			C11.7,14.3,11.9,14.1,11.9,14.3C11.9,14.3,11.9,14.3,11.9,14.3C11.9,14.3,11.9,14.3,11.9,14.3z M11.2,14.6c0,0.1,0,0.1,0.1,0.1
			c0,0,0,0,0,0c0,0,0,0,0,0c0,0,0,0,0,0C11.2,14.7,11.1,14.7,11.2,14.6z M10.6,14.9c0,0-0.1,0-0.1,0C10.5,14.9,10.5,14.9,10.6,14.9z
			 M9.5,17.5C9.5,17.5,9.5,17.5,9.5,17.5C9.5,17.5,9.5,17.5,9.5,17.5z M10.2,17.9C10.2,17.8,10.1,18,10.2,17.9
			C10.2,17.8,10.3,17.9,10.2,17.9z M10.2,17.1C10.1,17.1,10.1,17.1,10.2,17.1C10.1,17,10.1,17,10.2,17.1
			C10.2,17.1,10.2,17,10.2,17.1z M9.6,16.5c0.1-0.1-0.1-0.2-0.1-0.3c0-0.1-0.2-0.1-0.2-0.1c0.1,0,0.1-0.1,0.2,0c0,0,0,0,0,0
			c0.1,0.1,0.1,0.2,0.2,0.3c0,0,0,0.1,0.1,0.1C9.8,16.7,9.6,16.5,9.6,16.5z M9.6,16.7C9.6,16.7,9.6,16.7,9.6,16.7
			c-0.1-0.1-0.1-0.1-0.1-0.1C9.5,16.6,9.6,16.7,9.6,16.7z M9.4,16.2C9.4,16.2,9.4,16.2,9.4,16.2C9.4,16.2,9.4,16.2,9.4,16.2
			C9.4,16.2,9.4,16.2,9.4,16.2z M9.7,16.1C9.7,16.1,9.7,16.1,9.7,16.1C9.7,16.1,9.7,16.1,9.7,16.1z M9.8,16.8c0,0,0-0.1,0-0.1
			c0.1,0,0.2,0.2,0.2,0.3C10,16.9,9.9,16.9,9.8,16.8C9.9,16.9,9.9,16.9,9.8,16.8C9.8,16.9,9.8,16.8,9.8,16.8
			C9.7,16.8,9.7,16.8,9.8,16.8C9.8,16.8,9.8,16.8,9.8,16.8z M9.3,21.3C9.3,21.3,9.3,21.3,9.3,21.3C9.3,21.3,9.3,21.3,9.3,21.3
			C9.2,21.3,9.2,21.2,9.3,21.3C9.2,21.2,9.3,21.2,9.3,21.3C9.3,21.2,9.3,21.2,9.3,21.3C9.2,21.2,9.3,21.2,9.3,21.3z M8.7,10.9
			C8.7,10.8,8.7,10.8,8.7,10.9C8.8,10.8,8.8,10.8,8.7,10.9C8.7,10.8,8.8,10.8,8.7,10.9C8.8,10.8,8.8,10.8,8.7,10.9
			C8.8,10.8,8.8,10.8,8.7,10.9C8.8,10.8,8.8,10.9,8.7,10.9C8.8,10.9,8.7,10.9,8.7,10.9z M8.8,10.8C8.8,10.8,8.8,10.8,8.8,10.8
			C8.9,10.8,8.9,10.8,8.8,10.8C8.8,10.8,8.8,10.8,8.8,10.8C8.8,10.8,8.8,10.8,8.8,10.8z M8.8,12c0,0,0-0.1,0-0.1c0,0,0-0.1,0-0.1
			c0,0,0,0,0,0C8.9,11.9,8.9,11.9,8.8,12C8.9,11.9,8.9,12,8.8,12z M9.1,11.6c0,0-0.1,0.2-0.1,0.2c0,0,0,0,0,0
			C9,11.7,9,11.7,9.1,11.6C9,11.6,9,11.6,9.1,11.6C9.1,11.6,9.1,11.6,9.1,11.6C9.1,11.6,9.1,11.6,9.1,11.6z M9.1,11.4
			C9.1,11.5,9.1,11.5,9.1,11.4C9.1,11.4,9.1,11.4,9.1,11.4C9.2,11.4,9.1,11.4,9.1,11.4z M11.5,11.7C11.5,11.7,11.5,11.7,11.5,11.7
			C11.5,11.8,11.5,11.8,11.5,11.7C11.5,11.7,11.5,11.7,11.5,11.7z M11.4,12.7C11.4,12.7,11.4,12.7,11.4,12.7
			C11.4,12.7,11.4,12.7,11.4,12.7z M11.1,12.5C11.1,12.4,11.1,12.4,11.1,12.5C11.1,12.4,11.1,12.4,11.1,12.5c0-0.1,0-0.1,0.1-0.1
			c0,0,0-0.1,0.1-0.1c0,0,0,0,0,0c0,0,0,0,0,0c0.1,0,0.1,0.1,0,0.2c0,0,0.1,0,0,0c0,0,0,0,0,0c0,0,0,0,0-0.1c0,0,0,0,0-0.1
			C11.1,12.4,11.1,12.5,11.1,12.5z M11.2,12.6c0,0-0.1,0-0.1,0C11.1,12.5,11.1,12.6,11.2,12.6z M11.2,12.2
			C11.3,12.2,11.2,12.2,11.2,12.2C11.3,12.2,11.3,12.2,11.2,12.2z M11.3,12.7C11.3,12.7,11.3,12.8,11.3,12.7
			C11.2,12.7,11.3,12.7,11.3,12.7z M10.9,13.3C11,13.3,10.9,13.3,10.9,13.3C10.9,13.3,10.9,13.3,10.9,13.3z M10.7,13.6
			C10.7,13.6,10.6,13.6,10.7,13.6C10.7,13.5,10.7,13.6,10.7,13.6z M12,13.1C12,13.1,12.1,13.1,12,13.1C12,13.1,12,13.1,12,13.1z
			 M12.4,12.8C12.4,12.8,12.4,12.8,12.4,12.8C12.3,12.8,12.4,12.8,12.4,12.8c-0.1,0-0.1,0-0.1,0.1c0,0,0,0,0,0c0,0,0,0,0,0.1
			c0,0,0,0,0,0c0,0,0,0.1-0.1,0.1c0,0,0,0,0,0c0,0,0,0,0,0c0,0,0,0,0,0c0,0,0,0,0,0c0,0,0,0,0,0c0,0,0,0,0,0c0,0-0.1,0,0-0.1
			c0,0,0,0,0,0c0,0,0,0,0,0c0,0,0,0,0,0c0,0,0,0,0,0.1c0,0,0,0,0,0c0,0,0,0.2,0,0.2c0,0,0,0,0,0c0,0,0,0,0,0c0,0,0,0,0,0.1
			c0,0,0,0,0,0c0,0,0,0,0,0c0,0,0,0.1,0,0c0,0,0,0.1,0,0.1c0,0,0-0.2-0.1-0.1c0,0,0,0,0-0.1c0,0,0,0-0.1,0c-0.1,0.1,0.1,0.2,0.1,0.3
			c-0.1,0,0-0.1-0.1-0.1c-0.1,0-0.1,0-0.2-0.1c0,0,0,0,0.1,0c0,0,0,0,0,0c0,0,0,0,0,0c0,0,0,0,0,0c0-0.1,0-0.1,0-0.1c0,0,0,0,0,0
			c0,0,0,0,0,0c0,0,0,0,0,0c0,0,0,0,0,0c0,0,0,0,0-0.1c0,0-0.1,0.1-0.1,0c-0.1,0-0.1,0-0.1,0c0,0,0-0.1,0.1-0.1c0,0,0.1,0.1,0.1,0.1
			c0,0,0,0,0,0c0,0,0.1,0,0.1,0.1c0-0.1,0-0.1,0-0.2c0,0,0.1,0,0.1,0c0-0.1,0-0.1,0-0.1c0,0,0,0,0,0c0,0,0-0.2,0.1-0.2
			c0,0-0.1,0-0.1,0c0,0,0,0,0-0.1c0,0,0,0,0,0c0,0,0-0.1,0-0.1c0,0,0,0,0,0c0,0,0,0,0,0c0,0,0,0,0,0c0,0,0,0,0,0c0,0,0,0,0,0
			c0,0,0,0,0-0.1c0,0,0,0,0,0c0,0,0,0,0,0c0,0,0,0-0.1,0c0,0,0,0,0,0c0,0.1-0.1,0-0.1-0.1c0,0,0,0.1,0,0.1c0,0,0-0.1,0-0.2
			c0,0,0,0.1,0,0.1c0,0-0.1-0.1-0.1-0.2c0,0,0,0,0,0c0,0,0-0.1,0-0.1c0,0,0,0,0,0c0,0,0-0.1,0-0.1c0-0.1,0-0.3,0.1-0.2
			c0,0,0.1-0.1,0.1-0.1c0.1,0,0.2,0.1,0.2,0.1c0,0,0.1,0,0.1,0.1c0,0,0,0,0,0c0.1,0,0.2,0,0.2,0c0,0,0,0.1,0,0.1
			c-0.1,0.1-0.2,0-0.2-0.1c0,0-0.1,0.1-0.1,0.1c0.1,0.1,0,0,0,0c0,0,0,0,0.1,0c0,0,0,0,0,0c0,0,0,0,0,0c0,0,0,0.1,0,0.1
			c0,0,0,0,0.1-0.1c0,0,0,0,0,0.1c0,0,0,0,0-0.1c0,0,0.1,0,0.1,0c0,0.1,0.1,0.1,0.1,0.1c0,0,0,0,0,0.1c0,0,0,0,0,0c0,0.1,0,0-0.1,0
			c0,0,0,0,0,0.1c0,0,0,0,0,0c0,0,0,0,0,0.1c0,0,0,0,0,0c0,0,0,0,0,0c0,0,0,0,0-0.1c0,0,0,0,0,0c0,0,0,0,0,0.1c0,0,0,0,0,0
			c0,0,0,0,0,0c0,0,0,0-0.1,0c0,0,0,0,0.1,0c0,0,0,0,0,0c0,0,0.1,0,0.1,0.1c0,0,0,0-0.1,0c0,0,0,0,0,0c0,0,0,0,0,0
			c0,0.1,0,0.1-0.1,0.1c0,0,0,0,0,0c0,0,0,0,0,0.1c0,0,0,0-0.1,0c0,0,0,0,0,0.1c-0.1,0,0,0,0,0.1c0,0,0,0,0,0c0,0,0,0,0,0
			c0,0,0,0,0,0c0,0,0,0,0,0c0,0,0,0,0,0c0,0,0,0,0,0c0,0,0,0,0,0c0,0,0,0,0,0c0,0,0,0,0,0c0,0,0,0,0,0.1c0,0,0,0,0,0c0,0,0,0,0,0.1
			c0,0,0,0,0,0C12.3,12.7,12.3,12.7,12.4,12.8C12.3,12.7,12.3,12.7,12.4,12.8c-0.1-0.1-0.1-0.1-0.1,0C12.3,12.8,12.3,12.7,12.4,12.8
			C12.4,12.7,12.4,12.7,12.4,12.8C12.4,12.8,12.4,12.8,12.4,12.8z M11.7,12.1C11.7,12,11.7,12.1,11.7,12.1
			C11.7,12.1,11.7,12.1,11.7,12.1z M11.8,12.3C11.8,12.3,11.8,12.3,11.8,12.3C11.7,12.2,11.8,12.3,11.8,12.3z M11.8,12
			C11.8,12,11.8,12,11.8,12C11.8,12,11.8,11.9,11.8,12C11.8,12,11.8,12,11.8,12z M11.9,12.3C11.9,12.3,11.9,12.3,11.9,12.3
			C11.9,12.3,11.9,12.3,11.9,12.3z M11.9,12.1C11.9,12.1,11.9,12.1,11.9,12.1C11.9,12.1,11.9,12.1,11.9,12.1z M12.3,11.3
			C12.3,11.3,12.3,11.3,12.3,11.3C12.3,11.3,12.3,11.3,12.3,11.3z M12.6,11.2C12.6,11.2,12.6,11.2,12.6,11.2c-0.1,0-0.1,0-0.2,0
			c0,0.1,0.1,0.1,0,0.1c0,0,0,0,0,0c0,0-0.1,0-0.1,0c0-0.1,0,0,0-0.1c0,0,0,0,0-0.1c0,0,0,0-0.1,0c0,0,0,0-0.1,0c0,0,0,0,0,0
			c0,0,0,0,0,0c0,0,0,0,0,0c0,0,0,0,0,0c0,0,0-0.1-0.1-0.1c0,0,0,0,0,0c-0.1,0,0,0-0.1,0c0,0,0,0,0,0c0,0,0,0,0-0.1c0,0,0.1,0,0.1,0
			c0,0,0,0,0.1,0c0,0,0-0.1,0-0.1c0.1,0.1,0.1,0.1,0.1,0.2c0,0,0,0,0.1,0c0,0,0,0,0,0c0,0,0,0,0,0c0,0,0,0,0,0c0,0,0,0,0-0.1
			c0,0,0,0,0.1,0c0,0-0.1,0-0.2,0c0,0,0,0,0.1-0.1c0,0,0,0,0.1,0c0,0,0,0,0,0c0,0,0.1,0.1,0.1,0.1c0,0,0,0,0,0c0,0,0-0.1-0.1-0.1
			c0,0,0.1,0,0.1,0c0,0,0,0,0,0c0,0,0-0.1,0-0.1c0,0,0,0.1-0.1,0.1c0,0-0.1,0-0.1,0c0,0,0,0,0,0c0,0-0.1,0,0,0c0,0-0.1,0-0.1,0
			c0,0,0,0,0-0.1c0,0,0,0-0.1,0c0,0,0.1-0.1,0.1-0.1c0,0-0.1-0.1-0.1-0.1c0,0,0,0,0,0c0,0,0,0,0.1,0c0,0,0-0.1,0-0.1c0,0,0,0,0,0
			c0,0,0,0.1,0.1,0.1c0,0-0.1-0.1,0-0.1c0,0,0.1,0,0.1,0c0,0,0,0,0,0c0,0,0,0,0,0c0,0,0,0,0-0.1c0.1,0.1,0.1,0,0,0c0,0,0,0,0,0
			c0,0,0.1,0.1,0.1,0.2c0,0,0,0.2,0.1,0.1c0,0,0,0,0,0c0,0,0,0,0,0.1c0,0,0.1,0,0.1-0.1c0,0,0.1,0,0.1,0.1c0,0,0,0,0,0.1
			c0,0.1,0,0.1,0,0.1c-0.1,0-0.1-0.1,0-0.1c0,0,0.1,0.1,0.2,0.1c0,0-0.1,0-0.1,0c0,0,0.1,0,0.1,0c0,0,0,0,0,0c0,0,0,0,0.1,0
			c-0.1-0.1-0.2-0.1-0.3-0.2c0,0,0,0,0,0c0,0,0,0-0.1,0c0,0,0,0-0.1,0c0,0,0,0,0,0c0,0-0.1-0.1-0.2-0.1c0,0,0.1,0,0.1,0
			c0,0,0,0-0.1,0c0,0,0,0,0,0c0,0,0.1,0,0.1,0c0,0-0.1,0-0.1-0.1c0,0,0,0,0,0c-0.1-0.1,0.2,0,0.1,0c0,0,0,0.1,0,0.1c0,0,0,0,0,0
			c0,0,0,0,0,0c0,0,0,0,0,0c0-0.1,0-0.1,0-0.1c0,0,0,0,0,0c0,0,0,0,0.1,0.1c0,0,0,0,0,0c0,0,0.1,0.1,0.1,0.1c0,0,0,0.1,0,0.1
			c0,0,0,0,0,0.1c0,0,0-0.1,0-0.1c0,0,0.1,0.1,0,0.1c0,0,0,0,0,0c0,0,0,0,0-0.1c0,0,0,0.1,0,0c0,0,0.1,0.1,0,0.1c0,0,0,0,0-0.1
			c0.1,0,0.2,0,0.2,0.1c0.1-0.1,0.2,0.1,0.3,0.1c-0.1,0-0.1,0-0.2,0c0.1,0,0.2,0,0.2,0c0.1,0,0,0.1,0.1,0.2c0,0.1-0.2,0-0.2,0
			c0,0,0,0,0,0c0,0-0.1,0-0.1,0c0,0,0.1,0,0.1,0c0,0-0.1,0-0.1,0c0,0-0.2,0-0.2,0c0,0,0,0,0,0c0,0,0,0-0.1,0c0,0,0,0,0,0
			c0,0,0,0,0,0c0,0-0.1,0-0.1,0c0,0,0,0-0.1,0c0,0,0,0,0,0c0,0,0,0,0,0c0,0,0,0,0,0c0,0,0,0,0,0c0,0,0,0,0,0c0,0,0,0,0,0
			c0,0,0,0,0,0c0,0,0,0,0,0c0.1,0.1,0.1,0.1,0.1,0.1c0,0,0,0,0-0.1c0,0,0,0,0,0c0,0,0-0.1,0-0.1C12.7,11.1,12.7,11,12.6,11.2
			c0.1-0.1,0-0.2,0-0.2c0,0,0,0,0,0C12.6,11,12.6,11,12.6,11.2C12.6,11.1,12.6,11.1,12.6,11.2c0.1-0.1,0.1,0,0.1,0
			C12.7,11.2,12.7,11.2,12.6,11.2C12.6,11.2,12.7,11.2,12.6,11.2C12.6,11.2,12.6,11.2,12.6,11.2z M12,10.8C12,10.8,12,10.8,12,10.8
			C12,10.8,12,10.8,12,10.8C12.1,10.8,12,10.9,12,10.8z M12.7,11.3C12.7,11.3,12.7,11.4,12.7,11.3C12.7,11.3,12.7,11.3,12.7,11.3z
			 M12.8,13.9C12.8,13.9,12.9,13.9,12.8,13.9C12.8,13.9,12.8,13.9,12.8,13.9C12.8,13.9,12.8,13.9,12.8,13.9
			C12.8,13.9,12.8,13.8,12.8,13.9C12.8,13.8,12.8,13.8,12.8,13.9c0-0.1,0-0.1,0-0.1c0,0-0.1,0-0.1,0c0,0,0,0,0,0c0,0,0-0.1,0-0.1
			c0,0,0,0,0,0c0,0,0,0,0,0c0,0,0,0,0,0c0,0,0,0,0,0c0,0,0,0-0.1,0c0.1-0.1,0,0,0,0c0,0,0,0,0-0.1c0,0,0,0,0,0c0,0,0,0,0,0
			c0,0,0,0,0,0c0,0,0,0,0-0.1c0,0,0,0,0,0c0,0,0,0,0,0c0,0,0.1,0,0.1,0c0,0,0,0.1,0,0c0,0-0.1,0-0.1,0c0,0,0-0.1,0-0.1c0,0,0,0,0,0
			c0,0,0,0,0,0c0,0,0,0,0.1,0c0,0,0,0,0,0c0,0,0,0,0,0c0,0,0,0,0,0c0,0,0,0,0,0c0,0,0,0,0,0c0,0,0,0,0,0c0,0,0,0,0-0.1
			c0,0,0.1,0,0.1,0c0,0-0.1,0-0.1,0c0,0,0.1,0,0.1,0c0,0,0,0,0-0.1c0,0,0,0,0.1,0.1c0,0,0,0,0,0c0,0-0.1,0-0.1-0.1c0,0,0.1,0,0.1,0
			c0.1,0,0-0.1,0.1-0.1c0,0,0,0,0,0c0,0,0,0,0-0.1c0,0,0,0,0,0c0,0,0,0,0.1-0.1c-0.1,0-0.1-0.1-0.1-0.1c0,0.1,0.1,0.1,0,0.2
			c0,0-0.1,0-0.1-0.1c0,0,0,0,0.1,0c0,0,0,0-0.1,0c0,0,0.1-0.1,0.1-0.1c0,0,0,0,0,0c0,0,0,0,0,0c-0.1,0,0-0.1,0.1,0
			c0,0,0,0.1,0.1,0.1c0,0,0,0,0,0c0,0,0,0,0,0c0,0,0,0,0,0c0,0-0.1-0.1,0,0c0,0,0,0,0-0.1c0,0,0,0,0.1,0c0,0,0,0-0.1,0c0,0,0,0,0,0
			c0,0,0,0,0,0l0,0c0,0.1-0.1,0,0,0c0,0,0,0,0,0c0,0,0,0,0.1,0c0,0,0,0,0,0c0.1,0.1,0.1-0.1,0.1-0.2c0,0,0,0,0,0c0,0,0.1,0,0.1,0
			c0-0.1-0.1-0.4-0.2-0.3c0,0,0,0,0,0c0,0-0.1,0-0.1,0c0,0,0,0,0,0c0-0.1,0-0.1-0.1-0.1c0,0,0,0,0,0c0,0,0,0,0,0.1
			c-0.1,0-0.1-0.1,0-0.1c0,0,0-0.1,0-0.1c0,0,0,0,0,0c0,0,0.2,0,0.2,0.1c0,0,0,0,0,0c0,0-0.1,0-0.1-0.1c0,0,0,0,0,0c0,0-0.1,0-0.1,0
			c0,0,0,0,0-0.1c0-0.1,0-0.1,0.1-0.1c0.1,0,0.2,0,0.2,0.1c0,0,0.1-0.1,0.2-0.1c-0.1,0-0.1,0-0.1-0.1c0-0.1,0.1-0.1,0.2,0
			c0,0,0.1,0,0.1,0c0,0,0,0,0.1,0c0,0,0,0,0,0c0,0,0.1-0.1,0.1-0.1c0,0,0,0.1,0,0.1c0,0,0,0,0-0.1c0,0,0.1,0,0.1,0
			c0,0,0.1,0.1,0.1,0.1c0,0,0,0,0,0c0.1-0.1,0.1,0,0,0.1c0,0,0.1,0,0.1,0c0,0,0.1,0.1,0.1,0.1c0,0,0-0.1,0.1-0.1c0,0,0,0,0-0.1
			c0.1,0.1,0,0.2,0.1,0.3c0,0,0.1,0,0.1,0c0,0-0.1-0.2,0-0.2c0.1,0,0.1,0,0.1,0.1c0,0,0,0,0-0.1c0.1,0,0.1,0,0.1-0.1
			c0,0.1,0,0,0.1,0c0,0,0,0.1,0,0.1c0,0,0,0,0,0c0,0,0,0,0,0c0,0,0-0.1,0.1,0c0-0.1,0,0,0.1,0c0,0,0,0,0,0c0,0,0.4,0.2,0.5,0.2
			c0,0-0.1,0-0.1,0c0,0,0.1,0,0.1,0c0,0.1,0,0.1-0.1,0.1c0,0,0.1,0,0.1,0c0,0,0.1,0.1,0.1,0.1c-0.1,0-0.2,0-0.3-0.1
			c-0.2,0-0.2-0.1-0.3,0c0,0,0.1,0,0.1,0c0.1,0,0.2,0.1,0.2,0.1c0,0,0,0,0,0c0.1,0,0.1,0,0.2,0c0,0-0.1,0.1-0.1,0.1c0,0,0,0,0,0
			c0,0,0,0,0,0c0,0,0.2,0,0.2,0c0,0,0,0,0,0c0,0,0,0,0.1,0c0-0.1,0.3,0.1,0.3,0.1c-0.1,0-0.1,0-0.1,0c-0.1,0-0.1,0-0.2,0
			c0.1,0,0.1,0,0.2,0.1c-0.1,0.1-0.2,0-0.2,0c0,0,0,0,0,0c0,0,0,0,0,0c0,0,0,0,0,0c0,0,0.1,0,0.1,0c0,0.1-0.1,0.1-0.1,0
			c0,0,0,0,0,0.1c0,0-0.1,0.1-0.1,0.1c0,0,0-0.1-0.1,0c0,0,0.1,0,0.1,0.1c0,0,0,0-0.1,0c-0.1,0.1,0.1,0,0,0.2c0,0-0.1,0-0.1-0.1
			c0,0,0,0.1-0.1,0c0,0,0,0,0,0c0,0,0,0,0,0c0,0,0,0,0,0.1c0,0,0,0.1,0,0.1c0,0-0.1,0-0.1-0.1c0,0,0,0.1,0,0.1c0,0,0,0,0,0
			c0,0,0,0,0,0c0,0,0,0,0,0c0.2,0.1,0,0.1-0.1,0c0,0-0.1,0.1,0,0.1c0,0,0,0,0.1,0c0,0.1-0.1,0-0.1,0c0,0-0.2,0-0.1-0.1
			c0,0-0.1,0-0.1,0c0,0,0,0,0.1,0c0,0,0,0,0,0c0,0,0.1,0,0.1,0.1c0.1,0,0,0,0,0c0,0,0,0,0,0c0,0,0,0,0,0c0,0,0,0,0,0c0,0,0,0,0,0.1
			c0,0,0,0,0,0c0,0,0,0,0,0c-0.1,0,0-0.2-0.1-0.2c0,0,0,0,0,0c0,0,0,0.9-0.1,0.9c0,0,0,0.8,0,0.8c0,0,0,0,0,0c0,0,0-0.8,0-0.8
			c0,0,0.2-0.4,0-0.4c0,0,0.1-0.1,0.1-0.1c0,0,0-0.1,0-0.1c0,0,0-0.1,0-0.1c0,0,0,0.1,0,0.1c0,0-0.1-0.1-0.1-0.2c0,0,0-0.1,0-0.1
			c0,0-0.1-0.1-0.1-0.1c0,0.1,0.1,0.1,0.1,0.2c0,0-0.1,0-0.1-0.1c0,0,0,0-0.1,0c0,0,0,0,0,0c0-0.1,0.1,0,0.2,0c0,0.1,0,0-0.1,0
			c0,0,0,0,0,0c0.1,0,0.1,0,0.1,0c0,0,0,0,0.1,0.1c0,0-0.1,0-0.1,0c0,0,0,0,0,0c0,0,0,0,0,0c0,0-0.1,0-0.2,0c0,0-0.1,0-0.1,0
			c0,0-0.1-0.1-0.1,0c0,0-0.1,0-0.1,0c0,0,0-0.1,0-0.1c-0.1,0.1,0,0.1-0.1,0.1c-0.1,0-0.2,0-0.2,0.1c0,0,0-0.1-0.1,0
			c0-0.1-0.1-0.1-0.1-0.1c0,0,0,0-0.1,0c0,0.1,0,0.1-0.1,0.1c0,0,0,0,0,0c0,0,0,0,0,0.1c0,0,0,0,0,0c0,0,0,0,0,0.1c0,0,0,0,0,0
			c0,0,0,0,0,0c0,0-0.1,0.1-0.1,0.1C13,13.9,13,13.9,12.8,13.9c0.1,0,0.1,0.1,0.1,0.1c0,0,0,0-0.1,0C12.9,14,12.9,14,12.8,13.9
			C12.9,13.9,12.9,14,12.8,13.9C12.8,14,12.8,13.9,12.8,13.9C12.8,13.9,12.8,13.9,12.8,13.9C12.9,13.9,12.8,13.9,12.8,13.9z
			 M15.2,15C15.2,15,15.2,14.9,15.2,15C15.2,15,15.2,15,15.2,15C15.2,14.9,15.2,15,15.2,15z M15,15.9c0,0.1-0.2-0.1-0.2,0
			c0,0-0.1,0-0.1,0c0-0.1-0.1,0-0.1,0c0,0,0,0,0,0c0,0,0.1,0,0.1-0.1c0,0,0.1,0,0.1,0c0.1,0,0-0.1,0,0c0,0,0,0-0.1,0c0,0,0,0,0,0
			c0,0,0,0-0.1,0c0-0.1,0.1,0,0.1-0.1c0,0,0,0,0,0c0.1,0,0,0,0-0.1c0,0,0.1,0,0,0c0,0,0.1,0,0.1,0c0,0,0,0,0,0c-0.1,0,0,0,0-0.1
			c0,0-0.1,0-0.1,0c0-0.1,0-0.1,0-0.2c0,0,0,0-0.1,0c0,0,0,0,0,0c0,0,0,0,0,0c0,0,0,0,0,0c0,0,0,0,0,0c0,0,0-0.1,0-0.2
			c0,0,0.1,0,0.1-0.1c0,0,0,0,0,0c0,0,0,0,0,0c0,0,0,0,0,0.1c0,0-0.1,0-0.1,0.1c0.1,0,0.1,0,0.1,0c0,0.1-0.1,0.1-0.1,0.2
			c0,0,0,0,0,0c0,0,0.1,0.3,0.1,0.3c0,0,0,0,0,0c0,0,0,0.1,0,0.1C15.2,15.8,14.9,15.9,15,15.9z M14.4,15.7
			C14.4,15.7,14.4,15.6,14.4,15.7C14.4,15.6,14.4,15.6,14.4,15.7c0.1-0.1,0.1-0.1,0.1-0.2c0,0,0,0-0.1,0c0,0,0.1,0,0.1,0
			c0,0,0,0,0-0.1c0,0,0,0,0.1,0c0,0,0,0,0.1,0c-0.1,0,0.1-0.1,0,0c0,0,0,0,0,0c0,0,0,0,0,0.1c0.1,0,0.1,0,0.1,0.1c0,0,0,0-0.1,0
			c0,0.1-0.1,0.1-0.1,0.2C14.6,15.7,14.4,15.7,14.4,15.7C14.4,15.7,14.4,15.7,14.4,15.7C14.4,15.7,14.4,15.7,14.4,15.7
			C14.4,15.7,14.4,15.7,14.4,15.7z M14.3,14.2c0,0-0.1-0.1-0.1-0.1C14.2,14.1,14.2,14.1,14.3,14.2c-0.1-0.1-0.2-0.2-0.2-0.2
			c0,0,0.1,0,0.1,0c0,0,0,0,0,0c0,0,0,0,0,0c0,0,0,0,0,0c0,0-0.1,0-0.1,0c0,0,0,0,0-0.1c0,0,0,0,0,0c0,0,0,0,0,0.1c0,0,0-0.1,0-0.1
			c0.1,0,0,0.1,0,0.1c0,0,0,0,0,0c0-0.1,0,0,0,0c0.1-0.1,0,0,0.1-0.1c0,0,0,0.1,0,0.1c0-0.1,0,0,0.1,0c0,0,0,0,0,0.1c0,0,0,0,0-0.1
			c0,0,0.1,0,0.1,0c0.1-0.1,0,0,0.1,0c0,0-0.1,0-0.1,0.1c0.1,0,0.1,0.1,0,0.1c0,0,0,0,0,0c0,0.1-0.1,0-0.2,0.1c0,0,0,0,0,0
			c0,0,0,0-0.1,0C14.4,14.2,14.4,14.2,14.3,14.2C14.4,14.2,14.4,14.2,14.3,14.2C14.3,14.2,14.3,14.2,14.3,14.2
			C14.3,14.2,14.3,14.2,14.3,14.2z M14.2,13.9C14.2,13.9,14.2,13.9,14.2,13.9C14.2,13.9,14.2,13.9,14.2,13.9
			C14.2,13.9,14.2,13.9,14.2,13.9z M14.3,13.8C14.3,13.8,14.4,13.8,14.3,13.8C14.3,13.8,14.3,13.8,14.3,13.8z M14.8,15.3
			C14.8,15.3,14.8,15.3,14.8,15.3C14.7,15.3,14.7,15.3,14.8,15.3C14.8,15.3,14.7,15.2,14.8,15.3z M14.8,15.2
			C14.8,15.2,14.8,15.1,14.8,15.2C14.8,15.2,14.8,15.2,14.8,15.2C14.8,15.2,14.8,15.2,14.8,15.2z M14.8,15.1
			C14.8,15.1,14.8,15.1,14.8,15.1C14.8,15,14.8,15,14.8,15.1C14.8,15.1,14.8,15.1,14.8,15.1z M15,12.8C15,12.9,15,12.9,15,12.8
			C15,12.9,15.1,12.8,15,12.8C15,12.9,14.9,12.8,15,12.8z M13.3,12.7C13.3,12.7,13.3,12.7,13.3,12.7C13.3,12.8,13.3,12.7,13.3,12.7z
			 M14.9,12.9C14.9,12.9,14.9,12.9,14.9,12.9C14.9,12.9,14.9,12.9,14.9,12.9C14.9,12.9,14.9,12.9,14.9,12.9z M14.8,13
			C14.8,13,14.8,12.9,14.8,13C14.8,12.9,14.8,12.9,14.8,13z M13.3,17.7C13.3,17.7,13.3,17.7,13.3,17.7
			C13.3,17.7,13.3,17.7,13.3,17.7z M13.3,17.7C13.2,17.7,13.2,17.7,13.3,17.7C13.2,17.6,13.2,17.7,13.3,17.7z M12.9,14
			C12.9,14,12.9,14,12.9,14C12.9,14,12.9,14,12.9,14z M16.6,22.3C16.5,22.3,16.5,22.2,16.6,22.3C16.5,22.2,16.5,22.3,16.6,22.3
			c-0.1,0.1-0.2,0.3-0.2,0.3c0,0.1-0.1,0.1-0.1,0.2c0,0.1-0.2,0.1-0.2,0.1c-0.1,0-0.1-0.1-0.1-0.1c0,0,0-0.2,0-0.1
			c0,0,0.2-0.2,0.1-0.2c0-0.2,0.3-0.1,0.3-0.2c0,0,0,0,0,0c0,0,0.1-0.1,0-0.1c0,0,0,0,0.1,0c0,0,0-0.1,0.1-0.1c0,0,0.1,0.1,0,0.1
			C16.6,22.2,16.6,22.2,16.6,22.3C16.6,22.2,16.6,22.2,16.6,22.3z M16.1,21.5C16.1,21.5,16.1,21.5,16.1,21.5
			C16.1,21.5,16.1,21.5,16.1,21.5z M19.1,21c-0.2,0.1-0.1-0.3,0-0.3C19.1,20.8,19.2,20.9,19.1,21z M21.2,24c0,0-0.1,0.1-0.2,0.1
			c0,0,0-0.1,0-0.1C21.1,23.9,21.2,23.9,21.2,24C21.2,23.9,21.2,23.9,21.2,24z M21.3,23.9C21.3,23.9,21.3,23.9,21.3,23.9
			C21.3,23.8,21.3,23.9,21.3,23.9C21.3,23.9,21.3,23.9,21.3,23.9z M22.2,22.7C22.2,22.7,22.2,22.7,22.2,22.7
			C22.2,22.7,22.2,22.7,22.2,22.7c0,0.1,0,0.2,0,0.2c0,0,0,0,0,0c0,0,0,0.1,0,0.1c0,0-0.1,0.1-0.1,0.2c0,0-0.1,0.1-0.1,0.1
			c0,0.1-0.1,0.1-0.2,0.1c-0.1,0-0.2,0.2-0.3,0.2c0,0-0.1,0.1-0.1,0.1c0,0-0.2,0.1-0.2,0.1c0,0,0,0,0,0c0,0,0,0,0,0c0,0,0,0,0,0
			c0,0,0,0,0,0c-0.1,0-0.1,0.1-0.2,0.1c0,0,0,0,0,0c0,0,0,0,0,0c0,0,0,0-0.1,0c0,0,0,0,0,0c0,0,0-0.1,0.1-0.1c0,0,0,0-0.1,0
			c0,0,0-0.1,0.1-0.1c0,0-0.1,0-0.1,0c0,0,0,0,0,0c0,0,0.1-0.1,0.1-0.1c-0.1,0-0.1,0.1-0.2,0.1c0,0,0,0,0,0c0,0,0,0,0-0.1
			c0,0,0,0,0,0c0,0,0,0,0,0c0,0-0.1-0.1-0.2,0c0,0-0.3,0-0.3,0.1c0,0-0.1,0.1-0.2,0.1c-0.1,0-0.2,0-0.2,0.1c0,0,0,0,0,0
			c-0.1,0.1-0.1,0-0.2,0c0,0,0,0,0,0c0.1-0.1,0.1-0.2,0.2-0.3c0,0,0,0,0,0c0,0,0-0.1,0-0.1c0,0,0,0,0,0c0,0,0,0,0,0c0,0,0,0,0,0
			c0-0.1,0.1-0.2,0.1-0.2c0.1,0,0.3-0.1,0.4-0.2c0.1,0,0.2-0.1,0.2-0.1c0,0,0.1-0.1,0.1-0.1c0,0,0,0,0,0.1c0,0,0-0.1,0.1-0.1
			c0,0,0,0,0,0c0,0,0.1-0.1,0.1-0.1c0-0.1,0.1,0,0.1-0.1c0,0,0.1,0,0,0.1c0.1,0,0.2-0.1,0.2-0.2c0,0,0.1,0,0,0c0.1,0,0.1,0,0.1-0.1
			c0,0,0,0,0,0c0,0,0,0,0,0c0,0,0,0,0,0c0,0,0,0,0,0c0,0,0,0,0,0c0,0,0.1,0,0.2,0c0,0-0.1,0.1-0.1,0.1c0,0-0.1,0.1-0.1,0.1
			c0.1,0,0.1,0.1,0.1,0.1c0.2,0,0.2-0.4,0.4-0.5c0,0.1,0,0.1,0,0.2c0,0,0,0,0.1,0c0,0,0,0,0,0c0,0.1,0,0.1,0,0.1
			C22.2,22.5,22.1,22.7,22.2,22.7z M20,21.1c0,0,0.1,0.1,0.1,0.1c0.1,0.1,0,0.1,0.1,0.2c0,0,0,0,0,0c0,0.1,0,0.1,0.1,0.1
			c0,0,0,0,0,0c0.1,0,0,0.1,0,0.1c0,0,0,0,0,0c0,0,0,0,0,0c0,0,0,0.1,0,0.1c0,0,0,0,0,0.1c0,0-0.1,0.1-0.1,0.1c0,0,0,0-0.1,0
			c0,0,0,0,0,0c-0.1,0-0.1-0.2-0.1-0.2c0,0,0-0.2,0-0.2c0,0,0-0.1,0-0.1c0,0,0-0.1,0-0.2C20,21.3,19.8,21,20,21.1z M20.5,22
			c0.1,0,0.2,0,0.2,0c0,0,0,0,0.1,0c0,0-0.1,0-0.1,0c0.1,0,0.1,0,0.1,0.1c0,0-0.1,0-0.2,0c0,0-0.2-0.1-0.2-0.1c0,0,0,0,0,0
			c0,0,0,0-0.1,0C20.3,21.9,20.4,21.9,20.5,22z M20.6,21.5c0,0,0.1-0.1,0.1-0.1c0,0,0,0,0.1,0c0,0,0-0.1,0.1-0.1
			c0.1,0,0.1,0,0.2-0.1c0,0,0.2-0.1,0.1-0.1c0.1,0,0.1-0.1,0.1-0.1c0,0,0,0,0,0c0,0,0,0,0,0.1c0,0,0,0,0,0c0,0,0,0,0.1,0
			c0,0-0.1,0-0.1,0c0,0.1-0.1,0.1-0.1,0.1c0,0-0.1,0.2,0,0.2c-0.1,0-0.1,0.1-0.2,0.2c0,0-0.1,0.1-0.2,0.2c0,0-0.1,0-0.1,0
			c0,0-0.1,0-0.1,0C20.6,21.7,20.7,21.7,20.6,21.5c0,0.1,0,0.1,0,0.1C20.6,21.6,20.6,21.6,20.6,21.5C20.6,21.6,20.6,21.5,20.6,21.5z
			 M21.2,20c0,0-0.1,0.2-0.1,0.2c0,0,0,0,0,0C21,20,21.2,20,21.2,20z M21.7,20.5C21.6,20.5,21.7,20.4,21.7,20.5
			C21.7,20.4,21.7,20.4,21.7,20.5C21.7,20.4,21.7,20.4,21.7,20.5c0-0.1,0-0.1,0-0.2c0,0,0,0,0,0c0-0.1,0-0.2,0.2-0.2c0,0,0,0,0,0.1
			c0,0,0,0.2-0.1,0.2c0,0.1-0.1,0.1,0.1,0.1c0,0,0,0,0,0c0,0,0,0,0,0c0,0,0,0.1,0,0.1C21.8,20.5,21.8,20.5,21.7,20.5
			C21.8,20.5,21.8,20.5,21.7,20.5c0-0.1,0,0.1,0,0.1C21.7,20.6,21.7,20.6,21.7,20.5C21.6,20.6,21.6,20.5,21.7,20.5
			C21.7,20.5,21.6,20.5,21.7,20.5z M21.9,21.5C21.9,21.5,21.9,21.5,21.9,21.5C21.9,21.5,21.9,21.5,21.9,21.5
			C21.9,21.5,21.9,21.5,21.9,21.5z M21.8,21.3C21.8,21.3,21.8,21.3,21.8,21.3C21.8,21.3,21.8,21.3,21.8,21.3
			C21.8,21.3,21.9,21.3,21.8,21.3z M21.9,19.7C21.9,19.7,21.9,19.8,21.9,19.7c-0.1,0,0-0.2,0.1-0.2C22,19.6,21.9,19.6,21.9,19.7z
			 M21.9,20.5c0,0,0,0.1,0,0.1c0,0,0,0,0,0C21.9,20.6,21.8,20.6,21.9,20.5z M21.9,20.7C21.9,20.7,21.8,20.7,21.9,20.7
			C21.8,20.7,21.8,20.7,21.9,20.7C21.8,20.7,21.8,20.7,21.9,20.7C21.9,20.7,21.9,20.7,21.9,20.7z M21.7,20.8
			C21.7,20.8,21.7,20.7,21.7,20.8C21.7,20.8,21.7,20.8,21.7,20.8C21.7,20.8,21.7,20.8,21.7,20.8z M21.6,20.7
			C21.7,20.7,21.7,20.6,21.6,20.7C21.7,20.7,21.7,20.7,21.6,20.7C21.7,20.7,21.7,20.7,21.6,20.7C21.7,20.7,21.7,20.7,21.6,20.7z
			 M21.7,20.7C21.8,20.7,21.8,20.7,21.7,20.7C21.8,20.7,21.8,20.8,21.7,20.7C21.7,20.8,21.7,20.8,21.7,20.7z M21.8,20.6
			C21.8,20.6,21.8,20.6,21.8,20.6C21.8,20.6,21.8,20.6,21.8,20.6z M21.8,20.8C21.8,20.8,21.7,20.8,21.8,20.8
			C21.8,20.8,21.8,20.7,21.8,20.8z M21.6,20.9c0,0,0.2-0.1,0.2-0.1c0,0.1,0,0.2-0.1,0.2c0,0,0,0,0,0c0,0,0,0,0,0c0,0,0,0.1-0.1,0.1
			c0,0,0,0,0,0c0,0,0,0,0,0C21.6,21.1,21.7,21,21.6,20.9C21.7,21,21.7,21,21.6,20.9C21.6,21,21.6,21,21.6,20.9
			C21.6,21,21.6,21,21.6,20.9C21.6,21,21.6,20.9,21.6,20.9z M21.7,21.7C21.7,21.7,21.7,21.7,21.7,21.7
			C21.7,21.7,21.7,21.7,21.7,21.7C21.8,21.7,21.7,21.7,21.7,21.7z M21.8,21.4C21.8,21.4,21.8,21.4,21.8,21.4
			C21.8,21.4,21.8,21.5,21.8,21.4c0,0-0.1,0.2-0.1,0.1c0,0,0,0,0,0C21.7,21.5,21.7,21.4,21.8,21.4C21.8,21.4,21.8,21.3,21.8,21.4
			C21.8,21.4,21.8,21.4,21.8,21.4C21.8,21.4,21.8,21.4,21.8,21.4z M21.6,20.6C21.6,20.6,21.6,20.6,21.6,20.6
			C21.6,20.6,21.6,20.6,21.6,20.6z M21.6,21.4C21.6,21.4,21.6,21.4,21.6,21.4c0,0.1-0.2,0.1-0.2,0.1c-0.1,0-0.1,0.1-0.1,0.1
			c0,0,0.1,0,0.1,0c0,0,0,0,0,0c0,0,0,0,0,0c0,0,0,0-0.1,0c0,0,0,0,0,0c0,0-0.1,0.1-0.1,0.1c0,0,0,0.1,0.1,0.1c0,0,0,0.1-0.1,0.1
			c0,0,0-0.1,0-0.1c-0.1,0,0,0.2-0.2,0.2c0-0.1,0-0.1,0.1-0.1c-0.1,0,0-0.1,0.1-0.2c0,0,0.1-0.1,0.1-0.2
			C21.3,21.4,21.5,21.5,21.6,21.4z M21.6,21.8C21.6,21.8,21.5,21.7,21.6,21.8C21.5,21.7,21.6,21.7,21.6,21.8
			C21.6,21.7,21.6,21.7,21.6,21.8z M20.9,22.1C21,22.1,20.9,22.1,20.9,22.1C21,22.1,21,22.2,20.9,22.1
			C20.9,22.2,20.9,22.2,20.9,22.1C20.9,22.1,20.9,22.2,20.9,22.1z M20.8,22.2C20.8,22.1,20.8,22.1,20.8,22.2
			C20.8,22.1,20.8,22.1,20.8,22.2C20.8,22.1,20.9,22.1,20.8,22.2C20.9,22.1,20.8,22.1,20.8,22.2z M20.9,22.2
			C21.1,22.2,20.9,22.3,20.9,22.2L20.9,22.2z M21,22.2c0-0.1,0.2,0,0.2,0c0,0,0,0,0,0C21.2,22.2,21,22.1,21,22.2z M21.4,22.1
			c-0.1,0.1-0.3,0.2-0.3,0.2C21.1,22.2,21.4,22.1,21.4,22.1z M21.3,21.9C21.3,21.8,21.3,21.9,21.3,21.9
			C21.3,21.9,21.3,21.8,21.3,21.9C21.3,21.9,21.3,21.9,21.3,21.9z M21.3,20.9c0-0.1,0.1-0.1,0.2-0.2c0,0,0-0.1,0.1-0.1
			C21.5,20.7,21.4,20.9,21.3,20.9z M20.8,22.1C20.8,22.1,20.8,22.1,20.8,22.1C20.8,22.1,20.8,22.1,20.8,22.1
			C20.8,22.1,20.8,22.1,20.8,22.1z M20.4,21.8C20.4,21.8,20.4,21.7,20.4,21.8c0-0.1,0-0.1,0-0.1C20.4,21.7,20.4,21.7,20.4,21.8
			C20.4,21.7,20.5,21.8,20.4,21.8z M20,21.7C20,21.6,20,21.6,20,21.7C20,21.6,20.1,21.7,20,21.7z M20,21.4C20,21.4,20,21.4,20,21.4
			C20,21.4,20,21.4,20,21.4C20,21.4,20,21.4,20,21.4z M21.9,21.9C21.9,21.9,21.9,22,21.9,21.9C21.9,22,21.9,21.9,21.9,21.9
			C21.9,21.9,21.9,21.9,21.9,21.9C21.9,21.9,21.9,21.9,21.9,21.9z M22.6,21.9C22.6,22,22.6,21.9,22.6,21.9
			C22.6,22,22.6,22,22.6,21.9C22.6,22,22.6,22,22.6,21.9c0,0.1,0,0.1,0,0.1c0,0-0.1,0-0.1,0c0,0,0,0,0,0c0,0-0.1-0.1-0.1-0.1
			c0,0-0.4,0.2-0.3,0.1c-0.1,0-0.1,0-0.1,0c0,0,0,0,0.1,0c0,0,0-0.2,0-0.2c0,0,0,0,0,0c0-0.1-0.1,0-0.1-0.1c0,0,0,0,0,0c0,0,0,0,0,0
			c0,0,0,0-0.1,0c0,0,0,0,0,0c0,0,0,0,0,0c0,0,0,0,0,0c0,0,0,0,0,0c0,0,0.1,0,0.1-0.1c0,0,0,0-0.1,0c0,0,0,0,0,0c0,0,0,0,0,0
			c0-0.1,0.1-0.1,0.2-0.1c0,0,0,0.1,0,0.1c0,0,0,0,0,0c0,0.1,0,0,0,0.1c0.1,0,0.1-0.1,0.2-0.1c0,0,0.1,0.1,0.2,0.1
			c0,0,0.1,0.1,0.1,0.1c0,0,0,0.1,0.1,0.1C22.6,21.8,22.6,21.9,22.6,21.9C22.6,21.9,22.5,21.9,22.6,21.9z M22.4,19.3
			C22.4,19.4,22.3,19.4,22.4,19.3C22.3,19.3,22.3,19.4,22.4,19.3z M22.3,18.8C22.3,18.8,22.4,18.8,22.3,18.8
			C22.4,18.8,22.4,18.8,22.3,18.8z M22.5,18.8C22.5,18.8,22.5,18.8,22.5,18.8C22.6,18.7,22.6,18.8,22.5,18.8c0-0.1,0.1-0.1,0.1-0.1
			c0,0,0,0,0,0.1C22.6,18.8,22.6,18.9,22.5,18.8c0.1,0.1,0,0.2,0,0.2c0,0,0,0,0-0.1c0,0,0,0-0.1,0C22.5,18.9,22.6,18.8,22.5,18.8
			C22.5,18.9,22.5,18.8,22.5,18.8z M22.9,21.6L22.9,21.6C22.9,21.6,22.9,21.6,22.9,21.6c-0.1,0.1-0.1,0.2-0.2,0.2c0,0,0,0,0,0
			c0,0,0.1,0,0.1-0.1C22.8,21.7,22.9,21.7,22.9,21.6C22.9,21.6,22.9,21.6,22.9,21.6C22.9,21.6,22.9,21.6,22.9,21.6
			C22.9,21.6,22.9,21.6,22.9,21.6C22.9,21.5,22.9,21.5,22.9,21.6C22.9,21.6,22.9,21.6,22.9,21.6C22.9,21.6,22.9,21.6,22.9,21.6z
			 M23,21.7C23,21.7,23,21.7,23,21.7C23,21.7,23,21.7,23,21.7C23,21.6,23,21.7,23,21.7C23,21.8,23,21.8,23,21.7z M23,21.9
			C23,21.8,23,21.8,23,21.9C23,21.8,23,21.8,23,21.9z M23.1,21.9C23.1,21.9,23.1,21.9,23.1,21.9C23.1,21.9,23.1,21.9,23.1,21.9z
			 M23.1,21.8C23.1,21.8,23.1,21.8,23.1,21.8C23.1,21.8,23.1,21.8,23.1,21.8C23.1,21.8,23.1,21.8,23.1,21.8z M23.1,21.9
			C23.1,21.9,23.1,21.9,23.1,21.9C23.2,21.9,23.2,21.9,23.1,21.9C23.2,22,23.2,21.9,23.1,21.9z M23.1,18.6
			C23.1,18.6,23.1,18.5,23.1,18.6C23.1,18.6,23.1,18.6,23.1,18.6C23,18.6,23,18.6,23.1,18.6c-0.1,0-0.1,0-0.2,0.1c0,0,0,0,0,0
			c0,0,0,0-0.1,0c0,0-0.1,0.1-0.1,0.1c0,0,0-0.1,0-0.1c0,0,0,0,0,0c0,0,0,0.1,0,0.1c0,0.1-0.1,0-0.1,0.1c-0.1-0.1,0-0.1,0.1-0.2
			c-0.1,0-0.1,0-0.2,0c0,0,0.1-0.1,0.1-0.1c0,0,0,0,0,0c0,0,0,0,0,0c0,0,0.1,0,0.1,0c0,0,0,0,0,0c0,0,0-0.1,0.1-0.2c0,0,0,0,0,0.1
			c0.2,0,0.2-0.4,0.2-0.5c0,0,0,0,0,0c0,0,0,0,0,0c0,0,0,0.1,0,0.1C23.2,18.1,23.2,18.5,23.1,18.6z M23.4,17.8c0,0-0.1,0.1-0.1,0.1
			c-0.1,0-0.1-0.1-0.1,0c0,0,0,0-0.1,0c0.1,0,0,0,0,0c0,0,0,0-0.1,0c0-0.1,0-0.1,0-0.2c0,0,0,0,0.1,0c0,0,0-0.3,0-0.2
			C23.4,17.6,23.3,17.7,23.4,17.8C23.4,17.7,23.4,17.7,23.4,17.8C23.5,17.7,23.5,17.7,23.4,17.8C23.5,17.7,23.5,17.7,23.4,17.8
			C23.5,17.7,23.5,17.7,23.4,17.8C23.5,17.8,23.5,17.8,23.4,17.8z M23.5,17.2c-0.1-0.2-0.1,0.3-0.1,0.3c0,0,0-0.1-0.1-0.1
			c0,0,0,0.1,0,0.1c0,0,0-0.1,0-0.1c0-0.1,0-0.3,0-0.4c0,0,0-0.3,0-0.3c0,0.1,0,0.2,0,0.3c0,0,0,0.1,0,0.1
			C23.4,17.1,23.5,17.1,23.5,17.2z M23.7,17.5C23.6,17.6,23.6,17.6,23.7,17.5C23.6,17.6,23.6,17.5,23.7,17.5
			C23.7,17.5,23.7,17.5,23.7,17.5z M23.7,17.5C23.7,17.5,23.7,17.4,23.7,17.5C23.7,17.4,23.7,17.5,23.7,17.5z M24,16.9
			C24,16.9,24,16.9,24,16.9C24,16.9,24,16.9,24,16.9z M24.7,14.3C24.7,14.2,24.7,14.2,24.7,14.3C24.8,14.3,24.7,14.3,24.7,14.3
			C24.7,14.3,24.7,14.3,24.7,14.3z M24.4,14.5C24.3,14.5,24.3,14.5,24.4,14.5C24.3,14.5,24.3,14.5,24.4,14.5
			C24.3,14.5,24.3,14.5,24.4,14.5z M23.6,14.6C23.6,14.5,23.6,14.6,23.6,14.6C23.6,14.6,23.6,14.6,23.6,14.6
			C23.6,14.6,23.6,14.6,23.6,14.6z M23.5,14.6C23.5,14.6,23.5,14.5,23.5,14.6c0,0,0,0,0,0.1C23.5,14.7,23.5,14.7,23.5,14.6
			C23.5,14.6,23.5,14.6,23.5,14.6C23.6,14.6,23.6,14.6,23.5,14.6C23.6,14.6,23.6,14.6,23.5,14.6c0,0.1,0,0.1,0,0.1
			c0.1,0,0.2-0.1,0.3-0.1c0.1,0,0.1,0.1,0.2,0.1c0,0,0,0,0,0c0,0,0,0,0,0.1c0-0.2,0.2-0.1,0.2-0.2c0,0,0.1,0,0.1,0
			c0,0,0,0.1,0.1,0.1c0.1-0.1,0-0.1,0-0.2c0.1,0,0.1,0,0.2,0c0,0,0.1,0.1,0.1,0c0,0,0.1,0.1,0.2,0.1c0.1,0,0.1,0.1,0.2,0.2
			c0,0,0-0.1,0-0.1c0,0,0,0,0,0c0,0,0,0.1,0.1,0.1c0,0,0,0,0,0.1c0,0,0,0-0.1,0c0,0,0,0,0,0.1c0,0,0,0,0,0.1c0,0,0,0,0,0
			c0,0,0,0,0,0c0,0,0,0,0,0c0,0,0,0-0.1,0c0,0,0-0.1-0.1-0.1c0,0.2-0.1,0-0.1-0.1c-0.1,0,0,0.1,0,0.2c0,0.1-0.1,0.1-0.1,0.1
			c0,0,0,0,0,0c0,0.1,0.1,0.2,0,0.2c0-0.1-0.1,0.1-0.2,0.1c0,0,0,0,0,0c0,0.1,0,0,0,0c0,0,0,0,0,0c0,0,0,0.1,0,0.2
			c-0.1,0,0-0.1-0.1-0.1c0,0,0,0.1-0.1,0.1c0,0,0-0.1,0-0.1c0,0,0,0.1-0.1,0.1c0-0.1,0,0-0.1,0c0,0,0,0.2,0,0.2c0,0,0.1,0,0,0.1
			c0,0,0,0.1,0,0.1c0,0,0,0,0,0c0,0.1,0,0,0,0c0,0,0,0.1,0,0.1c0,0,0,0,0,0.1c0,0,0,0-0.1,0c0,0,0,0.2-0.1,0.2c0,0.1,0,0.2-0.1,0.2
			c0-0.1-0.1-0.6,0-0.6c0-0.2,0.1-0.2,0.2-0.4c0,0,0-0.1,0-0.1c0.1,0,0-0.2,0.1-0.2c-0.1,0,0,0-0.1,0c0,0,0,0.2,0,0.1
			c0,0-0.1,0.1-0.1,0.2c0,0,0,0,0-0.1c0,0,0,0,0,0c0,0,0-0.1,0-0.1c0,0-0.1,0.1-0.2,0.1c0,0.1-0.1,0.2-0.1,0.3c0,0,0,0,0,0
			c0,0-0.1,0.1-0.1,0.1c0-0.1,0,0,0-0.1c0,0,0,0-0.1,0c0,0-0.1,0-0.1,0.1c-0.1,0-0.1,0-0.1,0c0,0,0,0-0.1-0.1c0,0-0.1,0-0.1,0
			c0,0,0,0,0,0c-0.1,0-0.1,0.3-0.2,0.4c0,0.1-0.6,0.2-0.6,0.3c0,0-0.3,0-0.3,0c0,0,0,0.1,0,0.1c0,0,0.4,0,0.4,0c0,0,0.2,0,0.2,0
			c0,0,0.1,0,0.1,0c0,0,0.1,0,0.1,0c0,0,0,0,0,0c0-0.1,0.1,0,0.2,0c0,0-0.1,0.2-0.1,0.3c0,0-0.1,0.3-0.1,0.3c0,0-0.1,0.3-0.1,0.3
			c-0.1,0-0.1,0.2-0.2,0.2c0,0,0,0,0-0.1c0,0,0,0,0,0c0,0,0,0,0,0c-0.1,0-0.1,0.1-0.2,0.2c0,0-0.1,0.3-0.2,0.3c0,0,0,0,0.1,0
			c0,0,0,0.2,0,0.2c0,0.1-0.1,0.1-0.2,0.2c0-0.1,0-0.1,0.1-0.2c0,0,0-0.1,0-0.1c0.1,0,0-0.1,0-0.1c0,0-0.1,0-0.1,0c0,0,0,0,0,0
			c0,0,0-0.1,0-0.1c-0.1,0,0-0.1,0-0.1c0,0-0.1,0-0.1,0c0,0-0.1,0-0.1,0.1c0,0,0,0,0,0c0,0,0,0,0,0c-0.1,0,0-0.1,0-0.1
			c-0.1,0-0.1,0-0.2,0.1c-0.1,0.1-0.1,0-0.1,0.1c0,0,0,0.1,0.1,0.1c0,0,0,0,0.1,0c0.1,0,0.1,0,0.2,0c0,0-0.1,0.1-0.2,0.1
			c0,0-0.1,0.1-0.1,0.1c0,0.1,0,0.1,0,0.2c0,0,0,0,0,0c0,0.1,0,0.1,0,0.2c0,0,0,0-0.1,0c0,0,0.1,0,0.1,0c0,0.1,0,0.1,0,0.1
			c0.1,0,0,0,0.1,0c0,0-0.1,0.2-0.1,0.2c0,0.1-0.1,0.2-0.1,0.2c0,0.1,0,0.1-0.1,0.1c0,0.1-0.2,0.2-0.3,0.2c0,0,0,0,0,0
			c0,0.1-0.2,0.1-0.2,0.1c0,0-0.1,0.1-0.1,0.1c-0.1,0-0.1,0,0-0.1c0,0-0.1,0-0.1,0c0,0-0.1,0.1-0.1,0.1c0,0-0.1,0.1-0.1,0.1
			c-0.1,0.2,0,0.1,0,0.3c0.1,0,0.1,0.3,0.1,0.3c-0.1,0.2-0.2,0.2-0.3,0.2c0,0,0,0,0,0.1c0,0,0,0,0,0c0,0,0,0.1,0,0.1
			c0,0-0.1,0-0.1,0c0-0.1,0-0.1,0-0.2c0,0,0,0,0,0c0,0,0,0,0,0c0-0.1,0-0.1-0.1-0.2c0,0,0,0,0,0c0,0,0,0,0-0.1
			c-0.1,0-0.2,0.3-0.2,0.4c0,0,0.1,0.2,0.1,0.2c0,0.1,0,0.2,0,0.2c0,0-0.1,0-0.1,0c0,0-0.1-0.2-0.1-0.2c0-0.1,0-0.1,0-0.2
			c0-0.1,0-0.1,0-0.2c0-0.1,0.1-0.6,0-0.6c0,0.1-0.1,0.1-0.1,0.1c0-0.1,0.1-0.2,0-0.4c0,0,0,0-0.1,0c0-0.1,0-0.1,0-0.2
			c0,0-0.1-0.1-0.1-0.1c0,0.1,0,0.1-0.1,0.1c0,0.1-0.2,0-0.2,0.1c0,0-0.1,0.1-0.1,0.1c-0.1,0-0.1,0.1-0.2,0.1
			c-0.1,0-0.1,0.1-0.1,0.1c-0.1,0.1,0,0-0.1,0.1c0,0-0.1,0.2-0.1,0.2c0,0.1-0.1,0.3-0.3,0.3c0,0,0-0.2,0-0.2c-0.1,0,0-0.3,0-0.3
			c0-0.1-0.1-0.4,0.1-0.5c0,0,0-0.1,0-0.1c0,0-0.1,0.2-0.2,0.1c-0.1-0.2,0,0,0.1-0.2c0,0-0.2,0-0.1-0.1c0,0-0.1-0.1-0.1-0.1
			c0,0,0-0.1,0-0.1c-0.1,0,0,0-0.1,0c-0.1,0-0.4,0-0.4-0.1c0-0.2-0.2,0-0.2-0.1c-0.1,0-0.1-0.3-0.1-0.4c0,0-0.1-0.1-0.1-0.1
			c0,0,0,0,0,0.1c0,0,0,0,0,0c0,0,0,0.2,0,0.2c0,0,0,0.2,0,0.2c0,0,0-0.1,0.1-0.1c0,0,0,0.1,0,0.1c0,0.1,0.1,0,0.2,0.1
			c0,0,0.2-0.1,0.2-0.1c0,0,0,0.1,0,0.1c0,0,0,0.1,0,0.1c0.1,0,0.1,0.1,0.1,0.1c0,0-0.1,0.1-0.1,0.1c0,0-0.1,0.2-0.1,0.2
			c0,0-0.2,0.1-0.2,0.1c0,0-0.2,0-0.2,0.1c-0.1,0.1-0.4,0.1-0.5,0.1c0,0-0.3,0.1-0.2-0.1c0,0,0-0.1,0-0.1c0-0.1,0-0.1,0-0.2
			c0,0,0-0.2,0-0.2c0,0,0-0.1-0.1-0.1c0,0,0-0.2,0-0.2c0.1-0.1,0-0.2,0-0.4c0,0-0.1-0.3-0.1-0.3c-0.1,0.1-0.1-0.1-0.1-0.1
			c0,0.1,0.1,0.4,0.1,0.5c-0.1,0,0,0.2,0,0.2c0,0-0.1,0.2,0,0.2c0,0,0.1,0.1,0.1,0.1c0,0,0,0.1,0,0.2c0,0.1,0.3,0.3,0.1,0.4
			c0.1,0.1,0.1,0.1,0.2,0.1c0,0,0.3,0,0.3,0c-0.1,0.1-0.2,0.4-0.4,0.5c-0.1,0.1-0.2,0.1-0.3,0.2c-0.1,0-0.2,0-0.2,0.1
			c-0.1,0-0.1,0.1-0.2,0.1c-0.1,0-0.2,0.1-0.2,0.2c0,0,0,0.1,0,0.1c0,0.1-0.1,0.1,0,0.2c0,0,0,0.3-0.1,0.3c-0.1,0.1-0.2,0.1-0.4,0.1
			c0,0-0.2,0.1-0.1,0.2c0,0,0,0.1,0,0.2c0,0,0,0.1-0.1,0.1c0,0-0.2,0-0.2,0c0,0,0,0,0,0c0,0,0,0.1-0.1,0.1c0,0.1-0.4,0.2-0.4,0.2
			c-0.2,0-0.4-0.1-0.5-0.1c0-0.1,0.1-0.4,0-0.4c0-0.1,0-0.1,0-0.2c0-0.1,0-0.1,0-0.2c0-0.1-0.1-0.1-0.1-0.2c0-0.1-0.1-0.1,0-0.2
			c0,0,0-0.1,0.1-0.1c0,0,0.1-0.2,0.2-0.2c0-0.1,0-0.2,0.1-0.2c0,0,0-0.3,0-0.3c0,0-0.1-0.2-0.1-0.3c0,0,0,0,0,0c-0.1,0,0-0.1,0-0.1
			c0,0,0,0,0,0c0.1,0,0.1-0.2,0.1-0.3c0,0-0.1,0,0,0c0,0,0,0-0.1,0c0,0.1-0.1,0-0.1,0c0,0,0-0.1,0-0.1c-0.1,0-0.1-0.1-0.3-0.1
			c0,0,0,0,0,0c0,0,0,0,0,0c0,0,0,0-0.1,0c0,0,0,0,0,0.1c-0.1,0-0.2,0-0.2,0c0-0.1-0.3-0.1-0.3-0.1c-0.1-0.1-0.2-0.3-0.2-0.4
			c0,0,0,0,0,0c0,0,0-0.1,0-0.1c0,0,0,0,0,0c0-0.1-0.1-0.2-0.1-0.3c0,0,0-0.1,0-0.1c0,0,0-0.1,0-0.2c0.1,0,0.2-0.5,0.2-0.5
			c0-0.1,0.1-0.1,0.2-0.2c0.1-0.1,0.1-0.1,0.2-0.2c0,0,0.2,0,0.3-0.1c0.1-0.1,0-0.2,0.2-0.3c0.1,0,0.1-0.1,0.2-0.1
			c0.1-0.2,0.1,0,0.3,0c0,0,0,0,0,0c0.1,0,0.2,0,0.3-0.1c0.1,0,0.4,0.1,0.4,0.1c0.1,0.1,0.1,0,0.2,0c0,0,0,0,0.1,0
			c0,0-0.1,0.1-0.1,0.1c0,0.1,0,0.1-0.1,0.1c0,0,0,0.1,0,0.1c0,0.1,0.2,0.1,0.2,0.2c0,0.1,0.1,0.2,0.2,0.2c0.1,0,0.1-0.1,0.1-0.1
			c0,0,0.1,0,0.1-0.1c0,0,0.2,0.2,0.3,0.2c0.1,0,0.1,0.1,0.2,0.1c0,0,0.2,0,0.2,0c0,0,0,0,0,0c0.1,0,0.1,0.1,0.2,0
			c0.1-0.1,0.1-0.1,0.1-0.2c0,0,0-0.2,0-0.2c0,0,0,0-0.1,0c0,0-0.2,0-0.2,0c0,0,0-0.1-0.1-0.1c-0.1,0.1-0.2-0.1-0.2-0.1
			c0,0,0-0.1,0-0.1c0,0,0,0,0,0c0,0,0,0,0,0c0,0,0-0.1,0-0.1c-0.1,0,0-0.1,0.1-0.1c0,0,0.1,0,0.1,0c0,0-0.1,0,0.1,0
			c0,0.1,0.1,0,0.1,0c0.1,0,0.1,0,0.2,0c0,0.1,0.3,0.2,0.4,0.1c0-0.1-0.1,0.4-0.2,0.3c0,0,0,0.6,0,0.6c0,0,0,0,0,0c0,0,0-0.7,0-0.7
			c0,0,0-0.3,0-0.3c0.1,0,0.1-0.2,0-0.3c0,0,0.1-0.1,0.1-0.1c-0.1,0-0.2,0-0.4,0c0,0.1,0,0,0,0.1c0,0,0.1,0,0.1,0c0,0,0,0,0,0
			c-0.1,0-0.1,0-0.2,0c0-0.1,0-0.1,0-0.1c0,0,0.1,0,0.1-0.1c0,0-0.1,0-0.1-0.1c0,0,0,0,0,0c0,0,0,0,0,0c0,0-0.1,0.1-0.1,0.1
			c0,0-0.1,0.1-0.1,0.1c0,0-0.1,0.1-0.1,0.1c0,0.1,0,0.1,0,0.2c-0.1,0-0.1,0-0.2,0c0-0.1-0.1-0.1-0.1-0.1c0,0,0,0,0,0.1c0,0,0,0,0,0
			c0,0,0,0,0,0c0,0,0,0,0,0c0,0,0,0,0,0c0,0,0,0,0-0.1c0,0.1,0,0.1,0,0.1c0,0,0,0,0,0c0,0.1,0,0,0,0.1c0,0,0.1,0.1,0.1,0.1
			c0,0,0,0-0.1,0c0,0,0,0,0,0c0,0,0,0-0.1,0c0,0,0,0,0,0c0,0,0,0,0,0c0,0.1-0.1,0-0.1,0c0,0,0-0.1,0-0.1c0,0,0,0,0,0
			c0,0-0.1,0,0-0.1c0,0,0,0,0,0c0,0,0-0.1,0-0.1c0,0,0,0,0,0c0,0,0-0.1,0-0.2c0,0,0-0.2-0.1-0.2c0,0-0.1-0.1-0.1-0.1
			c0,0,0-0.2,0-0.2c0,0-0.1,0.1-0.1,0.1c0-0.1,0-0.1,0-0.1c0,0-0.1,0-0.1,0c0,0-0.1,0.1,0,0.2c0,0,0,0.1,0,0.1c0,0,0,0.1,0.1,0.2
			c0,0,0,0,0,0c0.1,0,0.1,0.1,0.1,0.2c0,0,0-0.1-0.1-0.1c-0.1,0.1,0,0.1,0,0.1c0,0-0.1,0.1-0.1,0.1c0.2-0.3-0.2-0.4-0.2-0.7
			c0-0.1-0.2-0.1-0.2,0c0,0-0.3-0.2-0.2,0.1c-0.1,0-0.2,0.1-0.2,0.1c-0.1,0,0,0.1,0,0.1c0,0-0.1,0-0.1,0.1c-0.1,0.1-0.2,0-0.3,0
			c-0.1,0-0.1,0-0.1-0.1c0,0-0.1,0-0.1-0.1c0-0.1,0-0.1,0.1-0.2c0,0,0,0,0,0c0,0,0.2-0.3,0.1-0.3c0,0,0-0.1,0-0.1c0,0,0.1,0,0.1,0
			c0,0,0.1,0,0.1,0c0,0,0.3,0.2,0.3,0.1c0,0,0.1-0.2,0.1-0.2c0-0.1-0.1-0.1,0-0.1c0,0,0,0,0,0c0,0,0,0,0,0c0,0,0,0,0,0
			c0,0,0,0,0-0.1c0,0,0,0,0,0c0,0,0,0,0,0c0-0.1,0,0,0,0c0,0,0.1,0.6,0.2,0.7c0,0,0,0.5,0,0.5c0,0,0,0,0,0c0,0,0.2-0.6,0.2-0.6
			c0,0,0-0.4,0.1-0.4c0,0,0.1-0.2,0.1-0.2c0,0,0-0.1,0-0.1c0,0,0,0,0,0c0,0,0,0,0,0c0-0.1,0.2-0.2,0.2-0.1c0-0.1,0.1,0,0.1,0
			c0,0,0-0.1,0-0.1c0,0-0.1-0.3,0.1-0.2c0-0.1,0,0,0-0.1c0,0,0,0,0,0c0,0,0,0,0,0c0,0,0,0,0,0c0-0.1,0.1,0,0.2-0.1
			c0,0.1,0,0.1-0.1,0.1c0,0,0,0,0,0c0,0.1,0,0.9,0,0.9c0,0-0.1,0.9-0.1,0.9c0,0,0,0,0,0c0,0,0-0.8,0-0.7c0,0,0-0.5,0-0.5
			c0,0,0-0.2,0-0.1c0,0,0-0.1,0-0.1c0,0,0,0,0,0.1c0,0,0,0,0.1,0c0,0,0.1,0,0.1-0.1c0,0.1,0.3,0.1,0.4,0.1c0,0,0,0,0,0
			c0,0,0,0,0.1,0c0,0,0,0,0,0c0,0,0,0,0-0.1c-0.1,0,0,0,0-0.1c0,0,0,0,0,0c0.1-0.1,0.1-0.2,0.2-0.3c0,0,0,0,0,0.1
			c0.1,0.1,0.1-0.1,0.1-0.1c0,0,0,0,0,0c0-0.1,0-0.1,0-0.1c0.1,0,0.3,0,0.3,0c0,0,0.1,0,0.1,0c0,0-0.1-0.1-0.1-0.1c0,0,0,0,0,0
			c-0.1,0-0.2,0.1-0.2,0c-0.1,0,0,0-0.1-0.1c0,0,0,0,0,0c0,0,0-0.2,0-0.2c0,0,0-0.1,0-0.1c0,0,0.1,0,0.1,0c0,0,0.1-0.1,0.1-0.1
			c0,0,0-0.1,0-0.1c0,0-0.1,0-0.1-0.1c0,0,0,0.1-0.1,0c0,0.1-0.1,0.1-0.1,0.2c-0.1,0-0.1,0-0.1,0c0,0,0,0.1-0.1,0
			c0,0.1,0,0.1-0.1,0.3c0,0,0,0,0,0c0,0,0,0,0,0c0,0,0,0.1,0,0.1c0,0,0,0-0.1,0c0.1,0-0.1,0.1-0.1,0.1c0,0-0.1,0.2-0.1,0.2
			c0,0,0,0,0,0c0,0,0,0,0,0.1c0,0,0,0,0,0c-0.1,0-0.1,0.1-0.2,0c0-0.1,0-0.1,0-0.2c0,0,0-0.2,0-0.2c0,0-0.1,0.1-0.2,0
			c-0.1,0-0.1,0-0.1-0.2c0,0,0,0-0.1,0c0,0,0,0,0,0c0,0,0.1,0,0.1-0.1c0,0,0,0-0.1,0c0,0,0,0,0,0c-0.1,0,0,0,0,0c0,0,0,0,0,0
			c0,0,0.1,0.1,0.1,0c0,0-0.1,0-0.1,0c0,0,0,0,0,0c0,0,0,0,0,0c0,0,0,0,0.1,0c0,0-0.1,0,0-0.1c0,0,0.1,0,0.1,0c0,0,0,0,0,0
			c0,0,0,0,0,0c0,0,0,0,0,0c0,0,0,0,0-0.1c0,0,0.1,0,0.1,0c0,0,0,0,0,0c0,0,0,0,0,0c0,0,0,0,0.1,0c0,0,0,0,0,0c0,0,0,0,0,0
			c0,0,0,0,0,0c0,0,0,0,0,0c0,0,0.1,0,0.1-0.1c0,0-0.1,0-0.1,0c0,0,0,0,0,0c0,0,0.1-0.1,0.1-0.1c0.1,0,0,0,0.1,0
			c0.1,0,0.1-0.1,0.1-0.1c0.1,0,0.1-0.1,0.2-0.1c0,0,0,0,0,0c0,0,0,0,0,0c0,0,0,0,0,0c0,0,0,0,0,0c0,0,0,0,0,0c0,0,0.1,0,0.1,0
			c0,0,0,0-0.1,0c0,0,0.2-0.1,0.1-0.1c0,0,0-0.1,0.1-0.1c0,0,0,0,0,0.1c0,0,0,0,0,0c0,0,0,0,0,0c0,0-0.4,0-0.4,0
			c0,0-0.4-0.1-0.4-0.1c0,0,0,0,0,0c0,0,0.5,0,0.5,0c0,0,0.2,0,0.3,0c0,0,0.1,0,0.1,0c0,0,0.1,0,0.1,0c0,0,0,0,0-0.1c0,0,0,0,0,0
			c0,0,0,0,0,0c0,0,0.2,0.1,0.2,0c0,0,0,0.1,0,0c0,0,0,0,0,0c0,0,0,0,0,0c0,0-0.1,0.1-0.1,0.1c0,0,0.1-0.1,0.1-0.1c0,0,0,0.1,0,0.1
			c0.1,0,0.1-0.1,0.1-0.1c0,0,0,0,0,0c0,0,0,0,0,0c0,0,0,0,0,0c0,0,0,0,0,0c0,0,0-0.1,0-0.1c0,0,0,0,0,0.1c0,0,0,0,0,0c0,0,0,0,0,0
			c0.1,0-0.7,0-0.7,0c-0.1,0-0.8,0-0.8,0c0,0,0,0,0,0c0,0,0.8,0,0.8,0c0,0,0.4,0.1,0.4,0c0,0,0.2,0,0.2,0c0,0,0.1,0,0.1,0
			c0,0,0.2,0.1,0.2,0.1c0,0,0.2,0.1,0.2,0.2c0,0.1,0.1,0.2,0,0.2c0,0-0.2,0-0.2,0c0,0-0.1-0.1-0.1-0.1c-0.1,0-0.1-0.1-0.1-0.1
			c0,0,0,0.1,0,0.1c0,0,0,0,0,0c0,0,0,0,0,0c0,0,0,0,0,0c0,0,0,0,0,0c0,0,0,0,0,0c0.2,0,0.1,0.1,0.1,0.3c0,0,0.1,0.1,0.1,0.1
			c0,0,0.1,0,0-0.1c0-0.1,0,0,0-0.1c0,0,0.1,0.1,0,0.1c0.1,0,0.1,0,0.1,0.1c0,0-0.1-0.2,0.1-0.2c0-0.1,0.1,0,0.1,0.1
			c0.1,0,0.1-0.3,0.1-0.3c0.1,0.1,0.1,0.1,0.2,0.2c-0.1,0-0.1,0-0.1,0.1c0,0,0.1,0,0.1,0c0-0.1,0.1,0,0.1-0.1c0.1,0,0.1-0.1,0.2,0
			c0,0,0,0,0.1,0c0,0,0,0,0,0.1c0,0,0,0,0,0c0,0,0,0,0.1,0c0,0,0,0,0.1,0c0-0.1,0.1-0.1,0.1,0c0,0,0,0,0.1,0c0,0,0,0.1,0,0.1
			c0-0.1,0.1-0.1,0.1-0.2c0,0,0,0,0,0c0.1,0.1,0.2,0,0.2,0.1c0,0,0,0,0,0c0.1,0,0.1,0.1,0.1,0.2c0,0,0.1-0.1,0.1-0.1c0,0,0,0,0,0
			c0,0,0-0.1,0-0.1c0,0,0,0-0.1,0c0-0.1,0-0.1,0-0.2c0,0,0-0.1,0-0.1c0-0.1,0.1-0.1,0.1-0.2c0,0,0.1,0,0.1,0c0,0,0,0.2,0,0.2
			c0,0.1,0,0.2,0,0.3c0,0,0,0.1,0,0.1c0,0,0,0.1,0,0.1c0,0-0.1,0.2-0.1,0.2c-0.1,0-0.1,0-0.2,0c0,0,0,0.1,0,0.1
			c0.1,0,0.1,0.1,0.1,0.1c0-0.1,0-0.1,0-0.1c0.2,0.1,0.1-0.2,0.2-0.3c0,0,0.1-0.1,0.1,0c0.1,0,0,0.2,0,0.2c0-0.1,0.1,0,0.1,0
			c0,0,0,0,0,0c0,0,0,0-0.1,0c0-0.1,0-0.1,0-0.1c0-0.1-0.1-0.1-0.2-0.1c0-0.1,0-0.1,0-0.2c0-0.1,0-0.1,0.1-0.3c0.1,0,0,0.3,0.1,0.3
			c0,0,0,0,0.1,0c0,0,0,0,0,0c-0.1,0-0.1-0.1-0.1-0.1c0.1,0,0.1,0.1,0.1,0c0,0,0,0,0,0c0-0.1,0.2,0.1,0.3,0.1c0,0.1-0.1,0.2-0.1,0.2
			c0,0,0,0,0.1,0c0.1,0,0,0.1,0.1,0.1c-0.1-0.1,0.1-0.3-0.1-0.3c0,0,0,0,0,0c0-0.1,0-0.1,0-0.1c0,0,0.1-0.1,0.2,0c0,0,0.1,0,0.1,0
			c0.1,0-0.1-0.1,0-0.1c0,0,0,0,0,0c0,0,0,0,0,0c0,0,0,0,0,0c0,0,0-0.1,0-0.1c0,0,0,0,0,0c0.1,0,0.2-0.1,0.3,0c0,0,0,0,0,0
			c0.1,0,0.1,0,0.1,0.1c0,0,0,0,0,0c0,0,0,0,0,0c0,0,0.1-0.1,0.1,0c0,0,0,0,0-0.1c0,0,0,0,0,0c0,0,0.1,0,0.1,0
			c-0.1-0.1,0-0.1,0.1-0.2c0.1,0,0.1,0,0.1,0.1c0.1,0,0.1,0,0.1,0.1c0,0,0.2-0.1,0.2-0.1c0,0,0.2,0.2,0.1,0.2c0,0,0.1,0.1,0,0.1
			c0,0-0.1,0-0.1,0c-0.1,0-0.1,0-0.2,0.1c0,0,0,0.1-0.1,0.1c0,0-0.2,0.1-0.2,0.1c0.1,0,0.2-0.1,0.2-0.1c0,0,0,0,0,0c0,0,0-0.1,0-0.1
			c0,0,0,0,0,0c0,0.1,0.1,0.1,0.1,0c0,0,0,0.1,0,0.1c0-0.1,0.2-0.1,0.2,0c0,0,0.2,0.1,0.2,0.1c0,0,0.1,0.7,0.1,0.7c0,0,0,0.7,0,0.7
			c0,0,0,0,0,0c0,0,0-0.8,0-0.8c0,0,0-0.3,0-0.3c0,0-0.1-0.3,0-0.3c0,0.1,0.1-0.1,0.1,0c0,0-0.1,0-0.1,0c0,0,0,0,0,0c0,0,0,0,0,0
			c0,0,0,0,0,0c0,0,0,0,0,0c0,0,0,0,0,0c0,0,0,0,0.1,0.1c0,0,0-0.1,0-0.1c0,0,0.1,0.1,0.1,0.1c0,0,0,0,0,0c0,0,0,0.1,0,0.1
			c0,0,0,0,0,0c0,0.1,0.1,0.1,0.1,0.1c0,0,0,0.1,0,0.1c0,0,0-0.2,0-0.2c0,0,0,0,0,0.1c0,0,0.1,0,0.1-0.1c0,0,0.1,0,0.1,0
			c0.1,0,0.1,0.1,0.1,0c0,0.1,0,0,0-0.1c0-0.1,0-0.1,0-0.1c0,0,0,0,0,0c0.1,0,0.2,0,0.2,0c0,0,0,0,0,0c0,0,0,0,0,0.1
			c0,0,0.1,0,0.1,0c0,0,0,0,0,0.1c0,0,0,0,0,0c0,0,0,0.1,0,0.1c0.1,0,0-0.1,0.1-0.1C23.5,14.5,23.6,14.5,23.5,14.6z M24.3,15.9
			C24.3,15.9,24.3,15.9,24.3,15.9c0,0.1,0,0.1,0,0.1C24.3,15.9,24.3,15.9,24.3,15.9z M23.1,16.7C23.1,16.7,23.1,16.6,23.1,16.7
			C23.1,16.6,23.1,16.6,23.1,16.7z M14.8,17.1C14.8,17.2,14.8,17.1,14.8,17.1C14.8,17.1,14.8,17.1,14.8,17.1
			C14.8,17.1,14.8,17.1,14.8,17.1z M15.2,17.1c0,0.1,0,0.2-0.1,0.2C15.1,17.3,15.1,17.2,15.2,17.1C15.1,17.1,15.2,17.1,15.2,17.1z
			 M15.2,17c0,0,0-0.1,0.1-0.1C15.3,17,15.3,17,15.2,17C15.2,17.1,15.2,17,15.2,17z M15.3,17.5c0-0.1,0.1,0,0.2,0c0,0,0,0.1-0.1,0.1
			c0,0,0,0,0,0C15.4,17.6,15.3,17.5,15.3,17.5z M15.8,17.6C15.9,17.6,15.9,17.6,15.8,17.6C15.9,17.6,15.9,17.6,15.8,17.6z M16,17.9
			C16,17.9,16,17.9,16,17.9c0.1,0,0.2,0,0.2,0.1C16.1,18,16,18,16,17.9z M16.5,18.1C16.5,18.1,16.6,18.1,16.5,18.1
			c0.1,0,0.1,0,0.2,0C16.7,18.1,16.6,18.2,16.5,18.1z M16.2,17.6C16.3,17.6,16.2,17.6,16.2,17.6C16.3,17.6,16.3,17.6,16.2,17.6
			C16.3,17.6,16.2,17.6,16.2,17.6z M15.8,15.8C15.8,15.8,15.8,15.8,15.8,15.8C15.8,15.8,15.8,15.8,15.8,15.8
			C15.8,15.7,15.8,15.8,15.8,15.8C15.8,15.7,15.8,15.7,15.8,15.8C15.8,15.7,15.8,15.7,15.8,15.8C15.8,15.7,15.8,15.7,15.8,15.8
			C15.8,15.7,15.8,15.7,15.8,15.8c0-0.1,0-0.1,0-0.1C15.8,15.7,15.9,15.7,15.8,15.8C15.8,15.7,15.8,15.8,15.8,15.8z M15.8,15.8
			c0,0-0.1,0-0.1,0C15.7,15.8,15.7,15.8,15.8,15.8C15.8,15.8,15.8,15.8,15.8,15.8z M16,15.8C16,15.8,16,15.8,16,15.8
			C16,15.8,16,15.9,16,15.8C16,15.8,16,15.8,16,15.8z M16.2,15.7C16.2,15.7,16.3,15.6,16.2,15.7C16.3,15.6,16.3,15.7,16.2,15.7
			C16.3,15.7,16.3,15.7,16.2,15.7z M16.4,15.4C16.4,15.4,16.4,15.3,16.4,15.4C16.5,15.3,16.5,15.3,16.4,15.4
			C16.4,15.4,16.4,15.4,16.4,15.4z M16.5,15.6c0,0,0.1,0,0.1,0C16.6,15.6,16.5,15.7,16.5,15.6C16.5,15.6,16.5,15.6,16.5,15.6
			C16.5,15.6,16.5,15.6,16.5,15.6z M16.5,15.5C16.5,15.5,16.6,15.5,16.5,15.5C16.6,15.5,16.6,15.5,16.5,15.5
			C16.6,15.5,16.6,15.5,16.5,15.5C16.6,15.5,16.5,15.5,16.5,15.5z M16.6,15.4C16.6,15.4,16.6,15.4,16.6,15.4
			C16.6,15.4,16.6,15.4,16.6,15.4C16.6,15.4,16.6,15.4,16.6,15.4C16.6,15.4,16.6,15.4,16.6,15.4z M21.7,14.4
			C21.7,14.4,21.8,14.4,21.7,14.4C21.8,14.3,21.8,14.4,21.7,14.4z M23.5,14.1C23.5,14.1,23.4,14.1,23.5,14.1c-0.1,0-0.2-0.1-0.1-0.1
			C23.4,14,23.5,14,23.5,14.1z M23.1,14.4C23.1,14.4,23.1,14.4,23.1,14.4c-0.1,0,0-0.1,0-0.1c0.1-0.1,0.1,0,0.1,0.1
			C23.2,14.4,23.1,14.4,23.1,14.4z M23.2,14.2c0,0,0-0.1,0-0.1C23.2,14,23.2,14.1,23.2,14.2z"/>
		<path style="fill:#F6A720;" d="M15.9,0.4C7.3,0.4,0.3,7.4,0.3,16s7,15.6,15.6,15.6s15.6-7,15.6-15.6S24.5,0.4,15.9,0.4z
			 M15.9,30.2C8,30.2,1.7,23.8,1.7,16S8,1.8,15.9,1.8S30,8.2,30,16S23.7,30.2,15.9,30.2z"/>
	</g>
</g>
</svg>
