<?xml version="1.0" encoding="utf-8"?>
<!-- Generator: Adobe Illustrator 21.1.0, SVG Export Plug-In . SVG Version: 6.00 Build 0)  -->
<svg version="1.1" id="Слой_1" xmlns="http://www.w3.org/2000/svg" xmlns:xlink="http://www.w3.org/1999/xlink" x="0px" y="0px"
	 viewBox="0 0 108.7 48.8" style="enable-background:new 0 0 108.7 48.8;" xml:space="preserve">
<style type="text/css">
	.st0{fill:#29B6F6;}
	.st1{fill:#FF132A;}
	.st2{fill:#FFD600;}
	.st3{fill:#AEEA00;}
</style>
<g>
	<g>
		<path d="M60.4,15.9c-0.7,0.3-1.6,0.5-2.7,0.5c-2.3,0-3.9-1.5-3.9-3.7c0-2.3,1.7-3.7,3.8-3.7c1.1,0,2.1,0.4,2.7,0.9l-0.9,0.9
			c-0.4-0.4-1-0.7-1.8-0.7c-1.5,0-2.5,1.1-2.5,2.6c0,1.5,1,2.6,2.5,2.6c0.5,0,1-0.1,1.4-0.3v-1.8h-1.5v-1h2.7
			C60.4,12.2,60.4,15.9,60.4,15.9z"/>
		<path d="M61.9,9.2h1.3v6h3v1.1h-4.3L61.9,9.2L61.9,9.2z"/>
		<path d="M70.5,9c2.2,0,3.8,1.4,3.8,3.7c0,2.2-1.6,3.7-3.8,3.7c-2.2,0-3.8-1.5-3.8-3.7C66.7,10.4,68.3,9,70.5,9z M70.5,15.3
			c1.4,0,2.4-1.1,2.4-2.6c0-1.5-1-2.6-2.4-2.6c-1.5,0-2.4,1.1-2.4,2.6C68.1,14.2,69.1,15.3,70.5,15.3z"/>
		<path d="M75.5,9.2h2.8c1.1,0,2.2,0.5,2.2,1.8c0,0.8-0.5,1.3-1.2,1.5v0c0.9,0.1,1.5,0.7,1.5,1.7c0,1.5-1.3,2.1-2.7,2.1h-2.5V9.2z
			 M76.8,12.1h1.1c0.8,0,1.3-0.4,1.3-1c0-0.6-0.4-0.9-1.4-0.9h-1V12.1z M76.8,15.2h1.1c0.7,0,1.6-0.1,1.6-1.1c0-0.7-0.5-1-1.5-1
			h-1.2V15.2z"/>
		<path d="M84.2,9.2h1.1l3,7.1h-1.4l-0.7-1.6h-3.1l-0.6,1.6h-1.4L84.2,9.2z M85.8,13.6l-1.1-2.9l-1.1,2.9H85.8z"/>
		<path d="M89.1,9.2h1.3v6h3v1.1h-4.3C89.1,16.3,89.1,9.2,89.1,9.2z"/>
		<path d="M54.2,21.2h1.3v6h3v1.1h-4.3L54.2,21.2L54.2,21.2z"/>
		<path d="M61.5,21.2h1.1l3,7.1h-1.4l-0.7-1.6h-3.1l-0.6,1.6h-1.4L61.5,21.2z M63.1,25.6L62,22.7l-1.1,2.9H63.1z"/>
		<path d="M66.4,21.2H68l3.3,5.3h0v-5.3h1.3v7.1H71l-3.4-5.5h0v5.5h-1.3V21.2z"/>
		<path d="M80.4,27.9c-0.7,0.3-1.6,0.5-2.7,0.5c-2.3,0-3.9-1.5-3.9-3.7c0-2.3,1.7-3.7,3.8-3.7c1.1,0,2.1,0.4,2.7,0.9l-0.9,0.9
			c-0.4-0.4-1.1-0.7-1.8-0.7c-1.5,0-2.5,1.1-2.5,2.6c0,1.5,1,2.6,2.5,2.6c0.5,0,1-0.1,1.4-0.3v-1.8h-1.5v-1h2.7V27.9z"/>
		<path d="M87.5,25.7c0,1.7-1.2,2.8-2.8,2.8s-2.8-1.1-2.8-2.8v-4.5h1.3v4.4c0,0.8,0.4,1.7,1.6,1.7c1.2,0,1.6-0.9,1.6-1.7v-4.4h1.3
			V25.7z"/>
		<path d="M91.3,21.2h1.1l3,7.1H94l-0.7-1.6h-3.1l-0.6,1.6h-1.4L91.3,21.2z M92.9,25.6l-1.1-2.9l-1.1,2.9H92.9z"/>
		<path d="M102.3,27.9c-0.7,0.3-1.6,0.5-2.7,0.5c-2.3,0-3.9-1.5-3.9-3.7c0-2.3,1.7-3.7,3.8-3.7c1.1,0,2.1,0.4,2.7,0.9l-0.9,0.9
			c-0.4-0.4-1.1-0.7-1.8-0.7c-1.5,0-2.5,1.1-2.5,2.6c0,1.5,1,2.6,2.5,2.6c0.5,0,1-0.1,1.4-0.3v-1.8h-1.5v-1h2.7
			C102.3,24.2,102.3,27.9,102.3,27.9z"/>
		<path d="M103.8,21.2h4.7v1.1h-3.4v1.8h3.2v1.1h-3.2v2h3.6v1.1h-4.9C103.8,28.3,103.8,21.2,103.8,21.2z"/>
		<path d="M57.8,34.7C57.5,34.3,57,34,56.5,34c-0.6,0-1.3,0.3-1.3,1c0,0.7,0.5,0.8,1.3,1.1c0.9,0.3,2.1,0.7,2.1,2.1
			c0,1.5-1.2,2.3-2.6,2.3c-0.9,0-1.9-0.3-2.4-1l0.9-0.8c0.3,0.5,1,0.8,1.5,0.8c0.6,0,1.3-0.3,1.3-1c0-0.7-0.7-0.9-1.6-1.2
			c-0.9-0.3-1.8-0.7-1.8-2c0-1.4,1.3-2.1,2.6-2.1c0.7,0,1.5,0.3,2.1,0.8L57.8,34.7z"/>
		<path d="M63.4,33c2.2,0,3.8,1.4,3.8,3.7c0,2.2-1.6,3.7-3.8,3.7c-2.2,0-3.8-1.5-3.8-3.7C59.6,34.4,61.2,33,63.4,33z M63.4,39.3
			c1.4,0,2.4-1.1,2.4-2.6c0-1.5-1-2.6-2.4-2.6c-1.5,0-2.4,1.1-2.4,2.6C61,38.2,62,39.3,63.4,39.3z"/>
		<path d="M68.4,33.2h1.3v6h3v1.1h-4.3L68.4,33.2L68.4,33.2z"/>
		<path d="M79.2,37.7c0,1.7-1.2,2.8-2.8,2.8s-2.8-1.1-2.8-2.8v-4.5h1.3v4.4c0,0.8,0.4,1.7,1.6,1.7c1.2,0,1.6-0.9,1.6-1.7v-4.4h1.3
			V37.7z"/>
		<path d="M82.1,34.3h-2.2v-1.1h5.6v1.1h-2.2v6h-1.3V34.3z"/>
		<path d="M86.4,33.2h1.3v7.1h-1.3V33.2z"/>
		<path d="M92.6,33c2.2,0,3.8,1.4,3.8,3.7c0,2.2-1.6,3.7-3.8,3.7c-2.2,0-3.8-1.5-3.8-3.7C88.8,34.4,90.4,33,92.6,33z M92.6,39.3
			c1.4,0,2.4-1.1,2.4-2.6c0-1.5-1-2.6-2.4-2.6c-1.5,0-2.4,1.1-2.4,2.6C90.2,38.2,91.2,39.3,92.6,39.3z"/>
		<path d="M97.7,33.2h1.7l3.3,5.3h0v-5.3h1.3v7.1h-1.6l-3.4-5.5h0v5.5h-1.3V33.2z"/>
	</g>
</g>
<rect x="-1.5" y="19.7" transform="matrix(0.9142 -0.4053 0.4053 0.9142 -6.2087 11.0027)" class="st0" width="48.8" height="1"/>
<polygon class="st1" points="22.6,39.3 44.8,29.6 45.4,30.4 22.6,40.4 "/>
<polygon class="st0" points="22.8,47.6 44.8,37.9 45.4,38.7 22.8,48.7 "/>
<polygon class="st2" points="0,30.3 0,29.8 0.6,29.5 22.6,39.3 22.6,40.4 "/>
<polygon class="st1" points="22.4,9.2 22.4,8.1 45.2,18.5 44.8,19.4 "/>
<polygon class="st1" points="22.8,1.1 22.8,0 45.4,10 44.4,10.9 "/>
<polygon class="st1" points="0.1,38.1 44.6,18.4 45.4,19.2 1.3,38.7 0.4,38.7 "/>
<polygon class="st1" points="44.4,10.9 45.4,10 45.4,19.2 44.4,19.2 "/>
<rect x="44.4" y="30.4" class="st1" width="1" height="8.3"/>
<polygon class="st2" points="0,29.8 1,29.6 1,38.7 0,38.7 "/>
<polygon class="st3" points="0.1,19 0.5,18.1 45.4,38.1 45.4,38.7 44.8,38.9 "/>
<polygon class="st2" points="0.1,10.6 0.5,9.7 45.4,29.7 45.4,30.8 "/>
<polygon class="st0" points="0.1,9.8 22.8,0 22.8,1.1 0.5,10.8 "/>
<polygon class="st3" points="0.4,18.2 22.4,8.1 22.5,9.3 0.8,19.1 "/>
<polygon class="st3" points="0,9.8 1,10.5 1,18.9 0,18.9 "/>
<polygon class="st2" points="0,38.7 0.5,37.9 22.8,47.6 22.8,48.7 "/>
</svg>
