<?xml version="1.0" encoding="utf-8"?>
<!-- Generator: Adobe Illustrator 19.2.1, SVG Export Plug-In . SVG Version: 6.00 Build 0)  -->
<svg version="1.1" id="Layer_1" xmlns="http://www.w3.org/2000/svg" xmlns:xlink="http://www.w3.org/1999/xlink" x="0px" y="0px"
	 width="512px" height="512px" viewBox="0 0 512 512" style="enable-background:new 0 0 512 512;" xml:space="preserve">
<style type="text/css">
	.st0{clip-path:url(#SVGID_2_);}
	.st1{fill:#FFFFFF;}
	.st2{fill:url(#SVGID_3_);}
	.st3{fill:url(#SVGID_4_);}
	.st4{fill:url(#SVGID_5_);}
	.st5{fill:url(#SVGID_6_);}
	.st6{fill:url(#SVGID_7_);}
	.st7{fill:url(#SVGID_8_);}
	.st8{fill:url(#SVGID_9_);}
	.st9{fill:#001D51;}
	.st10{fill:#B3B3B3;}
	.st11{fill:#979797;}
	.st12{fill:#C7C7C7;}
</style>
<g>
	<defs>
		<circle id="SVGID_1_" cx="252.9" cy="200.3" r="181.3"/>
	</defs>
	<clipPath id="SVGID_2_">
		<use xlink:href="#SVGID_1_"  style="overflow:visible;"/>
	</clipPath>
	<g class="st0">
		<rect x="15.5" y="42.7" class="st1" width="394.2" height="312.6"/>
		<radialGradient id="SVGID_3_" cx="194.8893" cy="107.0981" r="180.4605" gradientUnits="userSpaceOnUse">
			<stop  offset="0" style="stop-color:#F66B59"/>
			<stop  offset="4.094017e-002" style="stop-color:#F46655"/>
			<stop  offset="0.6964" style="stop-color:#D41D1C"/>
			<stop  offset="1" style="stop-color:#C70006"/>
		</radialGradient>
		<rect x="15.5" y="38.8" class="st2" width="394.2" height="24.7"/>
		<radialGradient id="SVGID_4_" cx="194.8893" cy="107.0959" r="180.4607" gradientUnits="userSpaceOnUse">
			<stop  offset="0" style="stop-color:#F66B59"/>
			<stop  offset="4.094017e-002" style="stop-color:#F46655"/>
			<stop  offset="0.6964" style="stop-color:#D41D1C"/>
			<stop  offset="1" style="stop-color:#C70006"/>
		</radialGradient>
		<rect x="15.5" y="87.7" class="st3" width="394.2" height="24.7"/>
		<radialGradient id="SVGID_5_" cx="194.8893" cy="107.0981" r="180.4602" gradientUnits="userSpaceOnUse">
			<stop  offset="0" style="stop-color:#F66B59"/>
			<stop  offset="4.094017e-002" style="stop-color:#F46655"/>
			<stop  offset="0.6964" style="stop-color:#D41D1C"/>
			<stop  offset="1" style="stop-color:#C70006"/>
		</radialGradient>
		<rect x="15.5" y="136.7" class="st4" width="394.2" height="24.7"/>
		<radialGradient id="SVGID_6_" cx="199.4394" cy="107.1008" r="184.1854" gradientUnits="userSpaceOnUse">
			<stop  offset="0" style="stop-color:#F66B59"/>
			<stop  offset="4.094017e-002" style="stop-color:#F46655"/>
			<stop  offset="0.6964" style="stop-color:#D41D1C"/>
			<stop  offset="1" style="stop-color:#C70006"/>
		</radialGradient>
		<rect x="15.5" y="185.6" class="st5" width="404.2" height="24.7"/>
		<radialGradient id="SVGID_7_" cx="194.8893" cy="107.1033" r="180.457" gradientUnits="userSpaceOnUse">
			<stop  offset="0" style="stop-color:#F66B59"/>
			<stop  offset="4.094017e-002" style="stop-color:#F46655"/>
			<stop  offset="0.6964" style="stop-color:#D41D1C"/>
			<stop  offset="1" style="stop-color:#C70006"/>
		</radialGradient>
		<rect x="15.5" y="234.6" class="st6" width="394.2" height="24.7"/>
		<radialGradient id="SVGID_8_" cx="194.8893" cy="107.0939" r="180.4608" gradientUnits="userSpaceOnUse">
			<stop  offset="0" style="stop-color:#F66B59"/>
			<stop  offset="4.094017e-002" style="stop-color:#F46655"/>
			<stop  offset="0.6964" style="stop-color:#D41D1C"/>
			<stop  offset="1" style="stop-color:#C70006"/>
		</radialGradient>
		<rect x="15.5" y="283.5" class="st7" width="394.2" height="24.7"/>
		<radialGradient id="SVGID_9_" cx="194.8893" cy="107.0834" r="180.4656" gradientUnits="userSpaceOnUse">
			<stop  offset="0" style="stop-color:#F66B59"/>
			<stop  offset="4.094017e-002" style="stop-color:#F46655"/>
			<stop  offset="0.6964" style="stop-color:#D41D1C"/>
			<stop  offset="1" style="stop-color:#C70006"/>
		</radialGradient>
		<rect x="15.5" y="332.5" class="st8" width="394.2" height="24.7"/>
		<rect x="15.5" y="38.8" class="st9" width="241.6" height="171.6"/>
		<g>
			<polygon class="st1" points="37.9,48.1 40.2,54.4 46.8,54.6 41.6,58.7 43.4,65.1 37.9,61.4 32.3,65.1 34.2,58.7 28.9,54.6 
				35.6,54.4 			"/>
			<polygon class="st1" points="77.2,48.1 79.6,54.4 86.2,54.6 81,58.7 82.8,65.1 77.2,61.4 71.7,65.1 73.5,58.7 68.3,54.6 
				74.9,54.4 			"/>
			<polygon class="st1" points="116.6,48.1 118.9,54.4 125.5,54.6 120.3,58.7 122.1,65.1 116.6,61.4 111.1,65.1 112.9,58.7 
				107.7,54.6 114.3,54.4 			"/>
			<polygon class="st1" points="156,48.1 158.3,54.4 164.9,54.6 159.7,58.7 161.5,65.1 156,61.4 150.5,65.1 152.2,58.7 147,54.6 
				153.7,54.4 			"/>
			<polygon class="st1" points="195.4,48.1 197.7,54.4 204.3,54.6 199.1,58.7 200.9,65.1 195.4,61.4 189.8,65.1 191.6,58.7 
				186.4,54.6 193,54.4 			"/>
			<polygon class="st1" points="234.7,48.1 237,54.4 243.6,54.6 238.4,58.7 240.2,65.1 234.7,61.4 229.2,65.1 231,58.7 225.8,54.6 
				232.4,54.4 			"/>
			<polygon class="st1" points="58.5,65.1 60.8,71.4 67.5,71.6 62.3,75.8 64,82.1 58.5,78.5 53,82.1 54.8,75.8 49.6,71.6 56.2,71.4 
							"/>
			<polygon class="st1" points="97.9,65.1 100.2,71.4 106.8,71.6 101.6,75.8 103.4,82.1 97.9,78.5 92.4,82.1 94.2,75.8 89,71.6 
				95.6,71.4 			"/>
			<polygon class="st1" points="137.3,65.1 139.6,71.4 146.2,71.6 141,75.8 142.8,82.1 137.3,78.5 131.7,82.1 133.5,75.8 
				128.3,71.6 135,71.4 			"/>
			<polygon class="st1" points="176.6,65.1 178.9,71.4 185.6,71.6 180.4,75.8 182.2,82.1 176.6,78.5 171.1,82.1 172.9,75.8 
				167.7,71.6 174.3,71.4 			"/>
			<polygon class="st1" points="216,65.1 218.3,71.4 224.9,71.6 219.7,75.8 221.5,82.1 216,78.5 210.5,82.1 212.3,75.8 207.1,71.6 
				213.7,71.4 			"/>
			<polygon class="st1" points="37.9,82.2 40.2,88.4 46.8,88.6 41.6,92.8 43.4,99.1 37.9,95.5 32.3,99.1 34.2,92.8 28.9,88.6 
				35.6,88.4 			"/>
			<polygon class="st1" points="77.2,82.2 79.6,88.4 86.2,88.6 81,92.8 82.8,99.1 77.2,95.5 71.7,99.1 73.5,92.8 68.3,88.6 
				74.9,88.4 			"/>
			<polygon class="st1" points="116.6,82.2 118.9,88.4 125.5,88.6 120.3,92.8 122.1,99.1 116.6,95.5 111.1,99.1 112.9,92.8 
				107.7,88.6 114.3,88.4 			"/>
			<polygon class="st1" points="156,82.2 158.3,88.4 164.9,88.6 159.7,92.8 161.5,99.1 156,95.5 150.5,99.1 152.2,92.8 147,88.6 
				153.7,88.4 			"/>
			<polygon class="st1" points="195.4,82.2 197.7,88.4 204.3,88.6 199.1,92.8 200.9,99.1 195.4,95.5 189.8,99.1 191.6,92.8 
				186.4,88.6 193,88.4 			"/>
			<polygon class="st1" points="234.7,82.2 237,88.4 243.6,88.6 238.4,92.8 240.2,99.1 234.7,95.5 229.2,99.1 231,92.8 225.8,88.6 
				232.4,88.4 			"/>
			<polygon class="st1" points="58.5,99.2 60.8,105.4 67.5,105.7 62.3,109.8 64,116.2 58.5,112.5 53,116.2 54.8,109.8 49.6,105.7 
				56.2,105.4 			"/>
			<polygon class="st1" points="97.9,99.2 100.2,105.4 106.8,105.7 101.6,109.8 103.4,116.2 97.9,112.5 92.4,116.2 94.2,109.8 
				89,105.7 95.6,105.4 			"/>
			<polygon class="st1" points="137.3,99.2 139.6,105.4 146.2,105.7 141,109.8 142.8,116.2 137.3,112.5 131.7,116.2 133.5,109.8 
				128.3,105.7 135,105.4 			"/>
			<polygon class="st1" points="176.6,99.2 178.9,105.4 185.6,105.7 180.4,109.8 182.2,116.2 176.6,112.5 171.1,116.2 172.9,109.8 
				167.7,105.7 174.3,105.4 			"/>
			<polygon class="st1" points="216,99.2 218.3,105.4 224.9,105.7 219.7,109.8 221.5,116.2 216,112.5 210.5,116.2 212.3,109.8 
				207.1,105.7 213.7,105.4 			"/>
			<polygon class="st1" points="37.9,116.2 40.2,122.4 46.8,122.7 41.6,126.8 43.4,133.2 37.9,129.5 32.3,133.2 34.2,126.8 
				28.9,122.7 35.6,122.4 			"/>
			<polygon class="st1" points="77.2,116.2 79.6,122.4 86.2,122.7 81,126.8 82.8,133.2 77.2,129.5 71.7,133.2 73.5,126.8 
				68.3,122.7 74.9,122.4 			"/>
			<polygon class="st1" points="116.6,116.2 118.9,122.4 125.5,122.7 120.3,126.8 122.1,133.2 116.6,129.5 111.1,133.2 112.9,126.8 
				107.7,122.7 114.3,122.4 			"/>
			<polygon class="st1" points="156,116.2 158.3,122.4 164.9,122.7 159.7,126.8 161.5,133.2 156,129.5 150.5,133.2 152.2,126.8 
				147,122.7 153.7,122.4 			"/>
			<polygon class="st1" points="195.4,116.2 197.7,122.4 204.3,122.7 199.1,126.8 200.9,133.2 195.4,129.5 189.8,133.2 191.6,126.8 
				186.4,122.7 193,122.4 			"/>
			<polygon class="st1" points="234.7,116.2 237,122.4 243.6,122.7 238.4,126.8 240.2,133.2 234.7,129.5 229.2,133.2 231,126.8 
				225.8,122.7 232.4,122.4 			"/>
			<polygon class="st1" points="58.5,133.2 60.8,139.4 67.5,139.7 62.3,143.8 64,150.2 58.5,146.5 53,150.2 54.8,143.8 49.6,139.7 
				56.2,139.4 			"/>
			<polygon class="st1" points="97.9,133.2 100.2,139.4 106.8,139.7 101.6,143.8 103.4,150.2 97.9,146.5 92.4,150.2 94.2,143.8 
				89,139.7 95.6,139.4 			"/>
			<polygon class="st1" points="137.3,133.2 139.6,139.4 146.2,139.7 141,143.8 142.8,150.2 137.3,146.5 131.7,150.2 133.5,143.8 
				128.3,139.7 135,139.4 			"/>
			<polygon class="st1" points="176.6,133.2 178.9,139.4 185.6,139.7 180.4,143.8 182.2,150.2 176.6,146.5 171.1,150.2 172.9,143.8 
				167.7,139.7 174.3,139.4 			"/>
			<polygon class="st1" points="216,133.2 218.3,139.4 224.9,139.7 219.7,143.8 221.5,150.2 216,146.5 210.5,150.2 212.3,143.8 
				207.1,139.7 213.7,139.4 			"/>
			<polygon class="st1" points="37.9,150.2 40.2,156.4 46.8,156.7 41.6,160.8 43.4,167.2 37.9,163.5 32.3,167.2 34.2,160.8 
				28.9,156.7 35.6,156.4 			"/>
			<polygon class="st1" points="77.2,150.2 79.6,156.4 86.2,156.7 81,160.8 82.8,167.2 77.2,163.5 71.7,167.2 73.5,160.8 
				68.3,156.7 74.9,156.4 			"/>
			<polygon class="st1" points="116.6,150.2 118.9,156.4 125.5,156.7 120.3,160.8 122.1,167.2 116.6,163.5 111.1,167.2 112.9,160.8 
				107.7,156.7 114.3,156.4 			"/>
			<polygon class="st1" points="156,150.2 158.3,156.4 164.9,156.7 159.7,160.8 161.5,167.2 156,163.5 150.5,167.2 152.2,160.8 
				147,156.7 153.7,156.4 			"/>
			<polygon class="st1" points="195.4,150.2 197.7,156.4 204.3,156.7 199.1,160.8 200.9,167.2 195.4,163.5 189.8,167.2 191.6,160.8 
				186.4,156.7 193,156.4 			"/>
			<polygon class="st1" points="234.7,150.2 237,156.4 243.6,156.7 238.4,160.8 240.2,167.2 234.7,163.5 229.2,167.2 231,160.8 
				225.8,156.7 232.4,156.4 			"/>
			<polygon class="st1" points="58.5,167.2 60.8,173.4 67.5,173.7 62.3,177.8 64,184.2 58.5,180.5 53,184.2 54.8,177.8 49.6,173.7 
				56.2,173.4 			"/>
			<polygon class="st1" points="97.9,167.2 100.2,173.4 106.8,173.7 101.6,177.8 103.4,184.2 97.9,180.5 92.4,184.2 94.2,177.8 
				89,173.7 95.6,173.4 			"/>
			<polygon class="st1" points="137.3,167.2 139.6,173.4 146.2,173.7 141,177.8 142.8,184.2 137.3,180.5 131.7,184.2 133.5,177.8 
				128.3,173.7 135,173.4 			"/>
			<polygon class="st1" points="176.6,167.2 178.9,173.4 185.6,173.7 180.4,177.8 182.2,184.2 176.6,180.5 171.1,184.2 172.9,177.8 
				167.7,173.7 174.3,173.4 			"/>
			<polygon class="st1" points="216,167.2 218.3,173.4 224.9,173.7 219.7,177.8 221.5,184.2 216,180.5 210.5,184.2 212.3,177.8 
				207.1,173.7 213.7,173.4 			"/>
			<polygon class="st1" points="37.9,184.2 40.2,190.4 46.8,190.7 41.6,194.8 43.4,201.2 37.9,197.5 32.3,201.2 34.2,194.8 
				28.9,190.7 35.6,190.4 			"/>
			<polygon class="st1" points="77.2,184.2 79.6,190.4 86.2,190.7 81,194.8 82.8,201.2 77.2,197.5 71.7,201.2 73.5,194.8 
				68.3,190.7 74.9,190.4 			"/>
			<polygon class="st1" points="116.6,184.2 118.9,190.4 125.5,190.7 120.3,194.8 122.1,201.2 116.6,197.5 111.1,201.2 112.9,194.8 
				107.7,190.7 114.3,190.4 			"/>
			<polygon class="st1" points="156,184.2 158.3,190.4 164.9,190.7 159.7,194.8 161.5,201.2 156,197.5 150.5,201.2 152.2,194.8 
				147,190.7 153.7,190.4 			"/>
			<polygon class="st1" points="195.4,184.2 197.7,190.4 204.3,190.7 199.1,194.8 200.9,201.2 195.4,197.5 189.8,201.2 191.6,194.8 
				186.4,190.7 193,190.4 			"/>
			<polygon class="st1" points="234.7,184.2 237,190.4 243.6,190.7 238.4,194.8 240.2,201.2 234.7,197.5 229.2,201.2 231,194.8 
				225.8,190.7 232.4,190.4 			"/>
		</g>
	</g>
</g>
<path class="st10" d="M435.4,110.7C402.2,45.9,335.4,0,257,0l0,42.7c55.5,0,149.6,33.7,159.6,155.3C400,326.3,312,355.4,256.9,355.4
	l0,156.6c70.6-73.6,152-154.5,187.5-251.4C462.3,212.1,459,156.5,435.4,110.7z"/>
<path class="st11" d="M69.5,260.6C105.1,357.5,186.4,438.4,257,512l-0.1-156.6c-107.4-4.9-160.4-96.3-160.4-151.1
	C96.5,148.9,139,43.5,257,42.7V0C178.6,0,111.8,45.9,78.6,110.7C55,156.5,51.7,212.1,69.5,260.6z"/>
<path class="st12" d="M256.9,21.7c-73.7,0-141.5,47.6-166.6,116.8c-25.3,69.8-3.1,149.8,54,197.1c57.2,47.3,140.4,53.6,204,15.1
	c63.6-38.5,97.2-114.7,82.3-187.6c-14.7-71.4-74-128-146.1-139.3C275.4,22.4,266.1,21.7,256.9,21.7 M399.6,263.2
	c-30.2,67-105.7,104.8-177.5,88.4c-55.2-12.6-100.4-55.8-115.8-110.2c-15.7-55.7,1.3-116.8,43.4-156.4
	c45.5-42.9,114.2-54.6,171.3-28.8c68.2,30.8,106,108.1,87.7,180.8C406.5,246,403.4,254.7,399.6,263.2
	C397.5,267.8,401.1,259.7,399.6,263.2"/>
</svg>
